<svg width="121" height="52" viewBox="0 0 121 52" fill="none" xmlns="http://www.w3.org/2000/svg">
<rect x="0.696777" y="0.142944" width="120.297" height="51.5623" rx="5.43717" fill="#D73D34"/>
<path d="M31.8987 29.5643H26.9128L26.1135 31.9241H22.7072L27.5408 18.5649H31.3088L36.1424 31.9241H32.698L31.8987 29.5643ZM31.0614 27.0524L29.4058 22.1616L27.7692 27.0524H31.0614ZM48.9364 22.8657C48.9364 23.6396 48.7588 24.3501 48.4036 24.9971C48.0484 25.6315 47.5028 26.1453 46.767 26.5386C46.0312 26.9318 45.1177 27.1285 44.0267 27.1285H42.0095V31.9241H38.7553V18.5649H44.0267C45.0924 18.5649 45.9931 18.7489 46.7289 19.1168C47.4648 19.4847 48.0166 19.9922 48.3846 20.6392C48.7525 21.2862 48.9364 22.0284 48.9364 22.8657ZM43.7793 24.5404C44.4009 24.5404 44.864 24.3945 45.1685 24.1027C45.473 23.8109 45.6252 23.3986 45.6252 22.8657C45.6252 22.3329 45.473 21.9206 45.1685 21.6288C44.864 21.337 44.4009 21.1911 43.7793 21.1911H42.0095V24.5404H43.7793ZM61.9535 22.8657C61.9535 23.6396 61.7759 24.3501 61.4206 24.9971C61.0654 25.6315 60.5199 26.1453 59.784 26.5386C59.0482 26.9318 58.1348 27.1285 57.0437 27.1285H55.0265V31.9241H51.7724V18.5649H57.0437C58.1094 18.5649 59.0101 18.7489 59.746 19.1168C60.4818 19.4847 61.0337 19.9922 61.4016 20.6392C61.7695 21.2862 61.9535 22.0284 61.9535 22.8657ZM56.7963 24.5404C57.418 24.5404 57.881 24.3945 58.1855 24.1027C58.49 23.8109 58.6422 23.3986 58.6422 22.8657C58.6422 22.3329 58.49 21.9206 58.1855 21.6288C57.881 21.337 57.418 21.1911 56.7963 21.1911H55.0265V24.5404H56.7963ZM68.0435 21.1721V23.8743H72.4014V26.3863H68.0435V29.3169H72.9723V31.9241H64.7894V18.5649H72.9723V21.1721H68.0435ZM84.5429 29.5643H79.557L78.7578 31.9241H75.3514L80.185 18.5649H83.953L88.7866 31.9241H85.3422L84.5429 29.5643ZM83.7056 27.0524L82.05 22.1616L80.4134 27.0524H83.7056ZM94.6537 29.4121H98.9165V31.9241H91.3996V18.5649H94.6537V29.4121Z" fill="white"/>
<rect x="4.4326" y="3.88096" width="112.821" height="44.177" rx="5.09735" stroke="white" stroke-width="0.679646" stroke-dasharray="5.44 5.44"/>
</svg>
