<svg width="148" height="148" viewBox="0 0 148 148" fill="none" xmlns="http://www.w3.org/2000/svg">
<g clip-path="url(#clip0_1196_14707)">
<path d="M87.703 134.66L83.061 146.719C82.7641 147.491 82.0218 148 81.1951 148H66.8044C65.9776 148 65.2353 147.491 64.9385 146.719L60.6872 135.677C53.2418 134.079 46.2289 131.172 39.8082 127.021L28.9892 131.828C28.2313 132.161 27.3473 131.999 26.7626 131.414L16.5867 121.238C16.0019 120.654 15.8366 119.768 16.1728 119.013L20.9776 108.194C16.8292 101.78 13.9204 94.7645 12.3201 87.3113L1.28113 83.0612C0.509039 82.7644 0 82.0221 0 81.1954V66.8047C0 65.9779 0.509039 65.2356 1.28113 64.9388L12.3216 60.6887C13.9192 53.2395 16.8281 46.2251 20.979 39.8085L16.173 28.9869C15.8372 28.2316 16.0025 27.3462 16.587 26.7617L26.7614 16.5858C27.3462 15.9999 28.2301 15.8357 28.9881 16.1719L39.8082 20.9793C46.2275 16.8284 53.2404 13.9207 60.6872 12.323L64.9385 1.28141C65.2356 0.509039 65.9779 0 66.8047 0H81.1953C82.0221 0 82.7644 0.509039 83.0612 1.28113L87.7045 13.3437C88.1016 14.3751 87.5885 15.5313 86.5574 15.9282C85.5301 16.3228 84.3698 15.8123 83.9729 14.7812L79.822 4.00005H68.1783L64.0273 14.7812C63.7814 15.4232 63.2214 15.8918 62.5468 16.0248C54.8565 17.5351 47.6444 20.5249 41.1105 24.9103C40.5401 25.2944 39.8111 25.3557 39.1847 25.0782L28.6186 20.3856L20.3867 28.6186L25.0782 39.185C25.3569 39.8126 25.293 40.5404 24.9103 41.1108C20.5234 47.6418 17.534 54.8542 16.0233 62.5482C15.8906 63.2226 15.4218 63.7825 14.7798 64.0288L4.00005 68.1783V79.8214L14.7775 83.9712C15.4195 84.2172 15.888 84.7771 16.021 85.4518C17.5354 93.1498 20.5249 100.363 24.9091 106.892C25.2918 107.462 25.3557 108.19 25.077 108.818L20.387 119.381L28.6201 127.614L39.1853 122.922C39.8117 122.645 40.5407 122.706 41.111 123.09C47.6462 127.477 54.8586 130.466 62.5473 131.975C63.2217 132.108 63.7816 132.577 64.0279 133.219L68.1789 144H79.822L83.9718 133.223C84.369 132.191 85.5316 131.678 86.5563 132.076C87.5874 132.473 88.1002 133.63 87.703 134.66ZM58.4701 99.7266C58.7944 99.9231 59.1511 100.016 59.5041 100.016C60.1799 100.016 60.8413 99.6719 61.2162 99.0507C61.7877 98.1055 61.4856 96.8761 60.5404 96.3046C52.6602 91.5392 47.9558 83.2017 47.9558 74C47.9558 64.7983 52.6602 56.4608 60.5404 51.6954C61.4856 51.1239 61.7877 49.8945 61.2162 48.9493C60.6459 48.004 59.4142 47.7005 58.4701 48.2734C49.3817 53.7682 43.9557 63.3868 43.9557 74C43.9557 84.6132 49.3814 94.2318 58.4701 99.7266ZM148 74C148 79.1303 143.826 83.3046 138.695 83.3046C134.252 83.3046 130.531 80.1712 129.613 76H76V85.0873H96.2812C96.8111 85.0873 97.3204 85.2983 97.6953 85.6732L105.064 93.0432H110.031C110.949 88.8717 114.67 85.7385 119.113 85.7385C124.244 85.7385 128.418 89.9129 128.418 95.0432C128.418 100.173 124.244 104.348 119.113 104.348C114.671 104.348 110.949 101.214 110.031 97.0432H104.236C103.706 97.0432 103.196 96.8322 102.822 96.4573L95.4531 89.0876H76V98.176H92.448C92.9778 98.176 93.4872 98.3871 93.8621 98.762L108.115 113.014C108.489 113.389 108.701 113.899 108.701 114.429V121.568C111.163 122.112 113.401 123.637 114.758 125.987C116.001 128.139 116.332 130.647 115.689 133.047C115.046 135.448 113.505 137.454 111.353 138.697C109.919 139.525 108.328 139.948 106.716 139.948C105.908 139.948 105.094 139.841 104.293 139.626C101.892 138.983 99.8853 137.444 98.6432 135.292C96.078 130.849 97.6054 125.147 102.048 122.581C102.896 122.091 103.791 121.753 104.7 121.553V115.256L91.6198 102.176H76V116.539C76 117.643 75.1042 118.539 74 118.539C49.4415 118.539 29.461 98.5585 29.461 74C29.461 49.4415 49.4415 29.461 74 29.461C75.1042 29.461 76 30.3568 76 31.461V45.8242H91.6198L104.7 32.7436V26.4348C103.782 26.2313 102.887 25.9035 102.048 25.419C97.6054 22.8527 96.078 17.1507 98.6432 12.7081C99.8853 10.5557 101.892 9.01673 104.293 8.37356C106.693 7.7304 109.2 8.05964 111.353 9.30319C113.505 10.5453 115.044 12.552 115.687 14.9529C116.332 17.3539 116.001 19.8603 114.758 22.0127C113.515 24.165 111.509 25.704 109.108 26.3486C108.973 26.3848 108.836 26.3998 108.7 26.4296V33.5711C108.7 34.101 108.489 34.6103 108.114 34.9852L93.8618 49.2378C93.4869 49.6127 92.9775 49.8237 92.4477 49.8237H75.9997V58.9121H94.953L103.659 50.205C104.034 49.83 104.543 49.619 105.073 49.619H110.03C110.949 45.4476 114.67 42.3144 119.113 42.3144C124.243 42.3144 128.418 46.4888 128.418 51.6191C128.418 56.7493 124.243 60.9237 119.113 60.9237C114.67 60.9237 110.949 57.7902 110.03 53.6191H105.901L97.1952 62.3262C96.8203 62.7011 96.311 62.9121 95.7812 62.9121H76V71.9994H129.613C130.531 67.8279 134.252 64.6948 138.695 64.6948C143.826 64.6954 148 68.8697 148 74ZM113.809 51.6199C113.809 54.5444 116.189 56.9245 119.113 56.9245C122.038 56.9245 124.418 54.5444 124.418 51.6199C124.418 48.6955 122.038 46.3153 119.113 46.3153C116.189 46.3153 113.809 48.6952 113.809 51.6199ZM104.048 21.9557C105.277 22.6639 106.708 22.8542 108.073 22.4844C109.441 22.1185 110.586 21.2397 111.294 20.013C112.002 18.7865 112.191 17.3568 111.824 15.9883C111.458 14.6199 110.579 13.4752 109.352 12.767C108.535 12.2944 107.627 12.0536 106.708 12.0536C106.248 12.0536 105.784 12.1149 105.327 12.2372C103.959 12.6031 102.814 13.4819 102.106 14.7087C100.645 17.2408 101.516 20.4922 104.048 21.9557ZM72 33.509C50.5715 34.5548 33.461 52.3163 33.461 74C33.461 95.6837 50.5718 113.445 72 114.491V33.509ZM106.69 125.336C105.792 125.336 104.881 125.564 104.048 126.044C101.516 127.508 100.644 130.759 102.107 133.292C102.815 134.518 103.96 135.397 105.328 135.763C106.696 136.129 108.125 135.943 109.353 135.233C110.581 134.525 111.458 133.38 111.825 132.012C112.191 130.644 112.002 129.215 111.294 127.987C110.313 126.287 108.526 125.336 106.69 125.336ZM113.809 95.0429C113.809 97.9673 116.189 100.347 119.113 100.347C122.038 100.347 124.418 97.9673 124.418 95.0429C124.418 92.1184 122.038 89.7383 119.113 89.7383C116.189 89.7383 113.809 92.1184 113.809 95.0429ZM144 74C144 71.0756 141.62 68.6954 138.695 68.6954C135.771 68.6954 133.391 71.0756 133.391 74C133.391 76.9245 135.771 79.3046 138.695 79.3046C141.62 79.3046 144 76.9245 144 74Z" fill="#1C256C"/>
</g>
<defs>
<clipPath id="clip0_1196_14707">
<rect width="148" height="148" fill="white"/>
</clipPath>
</defs>
</svg>
