<svg width="148" height="148" viewBox="0 0 148 148" fill="none" xmlns="http://www.w3.org/2000/svg">
<g clip-path="url(#clip0_1196_14725)">
<mask id="mask0_1196_14725" style="mask-type:luminance" maskUnits="userSpaceOnUse" x="0" y="0" width="148" height="148">
<path d="M0 1.52588e-05H148V148H0V1.52588e-05Z" fill="white"/>
</mask>
<g mask="url(#mask0_1196_14725)">
<path d="M47.5928 145.643H12.6367C11.244 145.643 10.1152 144.514 10.1152 143.122V135.459C10.1152 134.066 11.244 132.937 12.6367 132.937H47.5928C48.9852 132.937 50.1143 134.066 50.1143 135.459V143.122C50.1143 144.514 48.9852 145.643 47.5928 145.643Z" stroke="#1C256C" stroke-width="4" stroke-miterlimit="10" stroke-linecap="round" stroke-linejoin="round"/>
<path d="M11.6309 119.646C12.6486 121.834 13.545 123.89 14.1972 125.595C14.6429 126.76 14.873 127.995 14.873 129.243V132.937" stroke="#1C256C" stroke-width="4" stroke-miterlimit="10" stroke-linecap="round" stroke-linejoin="round"/>
<path d="M46.1049 132.937C46.228 132.648 46.3616 132.364 46.5139 132.087L52.3833 120.258C54.2096 116.524 54.9239 112.344 54.4414 108.216L53.2557 98.0723V71.8859C53.2557 68.8681 52.0925 66.422 49.0747 66.422C43.7438 65.8468 37.4307 76.8959 37.4307 85.1319C37.4307 89.125 37.4313 93.6601 37.4318 96.1602C37.4321 97.3835 36.9468 98.5559 36.0715 99.4315L36.0261 99.4766C34.5817 100.921 31.4907 101.214 29.7225 100.191L20.6786 91.1487C18.7223 89.1923 17.623 86.539 17.623 83.7724V79.0248V60.1693C13.3099 63.6132 9.21759 67.2351 7.54218 68.5521C5.67946 70.0162 5.00595 72.1801 4.78308 74.5389L2.23557 96.1301C1.94131 99.2427 2.61251 102.369 4.15495 105.089C5.03515 106.64 6.05872 108.524 7.12218 110.555" stroke="#1C256C" stroke-width="4" stroke-miterlimit="10" stroke-linecap="round" stroke-linejoin="round"/>
<path d="M104.482 15.0752H100.408C99.0155 15.0752 97.8867 13.9461 97.8867 12.5537V4.8788C97.8867 3.4861 99.0155 2.35731 100.408 2.35731H135.364C136.756 2.35731 137.886 3.4861 137.886 4.8788V12.5537C137.886 13.9461 136.756 15.0752 135.364 15.0752H114.597" stroke="#1C256C" stroke-width="4" stroke-miterlimit="10" stroke-linecap="round" stroke-linejoin="round"/>
<path d="M101.895 15.0751C101.772 15.3638 101.638 15.6486 101.486 15.9252L95.6168 27.7542C93.7905 31.4877 93.0762 35.6679 93.5587 39.796L94.7444 49.9397V76.1262C94.7444 79.144 95.9076 81.5901 98.9254 81.5901C104.256 82.1653 110.569 71.1159 110.569 62.8802C110.569 58.8871 110.569 54.352 110.568 51.8519C110.568 50.6286 111.053 49.4559 111.929 48.5806L111.974 48.5355C113.418 47.0907 116.509 46.7976 118.278 47.8209L127.321 56.8634C129.278 58.8197 130.377 61.473 130.377 64.2397V68.9869V87.8428C134.69 84.3986 138.783 80.7769 140.458 79.46C142.321 77.9959 142.994 75.8319 143.217 73.4732L145.765 51.882C146.059 48.7693 145.388 45.6425 143.845 42.9233C140.774 37.5109 135.957 28.049 133.803 22.417C133.357 21.2517 133.127 20.0166 133.127 18.7687V15.0751" stroke="#1C256C" stroke-width="4" stroke-miterlimit="10" stroke-linecap="round" stroke-linejoin="round"/>
<path d="M74.0015 62.4902V47.6925C74.0015 46.7522 73.2393 45.9897 72.2986 45.9897H59.0972C58.2496 45.9897 57.5171 45.3682 57.4119 44.527C56.6925 38.7611 51.7735 34.2994 45.8121 34.2994C39.8511 34.2994 34.9321 38.7611 34.2126 44.527C34.1074 45.3682 33.3749 45.9897 32.5274 45.9897H19.3259C18.3853 45.9897 17.623 46.7522 17.623 47.6925V60.1694" stroke="#1C256C" stroke-width="4" stroke-miterlimit="10" stroke-linecap="round" stroke-linejoin="round"/>
<path d="M53.7578 102.368H72.2986C73.2389 102.368 74.0011 101.606 74.0011 100.666V85.8676" stroke="#1C256C" stroke-width="4" stroke-miterlimit="10" stroke-linecap="round" stroke-linejoin="round"/>
<path d="M94.2819 45.9894H75.7036C74.7636 45.9894 74.001 46.7516 74.001 47.6922V62.4899C73.9799 62.4896 73.9594 62.4882 73.9386 62.4882C67.4821 62.4882 62.248 67.7223 62.248 74.1788C62.248 80.635 67.4821 85.869 73.9386 85.869C73.9594 85.869 73.9799 85.8676 74.001 85.8676V100.665C74.001 101.606 74.7636 102.368 75.7036 102.368H90.4999H90.5027C90.5027 108.824 95.7365 114.058 102.193 114.058C108.65 114.058 113.884 108.824 113.884 102.368H128.677C129.617 102.368 130.379 101.606 130.379 100.665V87.8404C130.379 87.841 130.377 87.8419 130.377 87.8427" stroke="#1C256C" stroke-width="4" stroke-miterlimit="10" stroke-linecap="round" stroke-linejoin="round"/>
</g>
</g>
<defs>
<clipPath id="clip0_1196_14725">
<rect width="148" height="148" fill="white"/>
</clipPath>
</defs>
</svg>
