<svg width="121" height="52" viewBox="0 0 121 52" fill="none" xmlns="http://www.w3.org/2000/svg">
<rect x="0.691406" y="0.142944" width="120.297" height="51.5623" rx="5.43717" fill="#D73D34"/>
<path d="M31.1987 17.6824C31.1987 16.5515 31.4433 15.5456 31.9327 14.6648C32.422 13.7731 33.1017 13.0826 33.9716 12.5932C34.8524 12.093 35.8474 11.8429 36.9566 11.8429C38.3159 11.8429 39.4795 12.2018 40.4473 12.9195C41.4151 13.6372 42.0621 14.6159 42.3884 15.8555H39.3218C39.0934 15.3771 38.7672 15.0128 38.3431 14.7627C37.9299 14.5126 37.4568 14.3875 36.924 14.3875C36.0649 14.3875 35.369 14.6865 34.8361 15.2846C34.3033 15.8827 34.0369 16.682 34.0369 17.6824C34.0369 18.6829 34.3033 19.4821 34.8361 20.0802C35.369 20.6783 36.0649 20.9773 36.924 20.9773C37.4568 20.9773 37.9299 20.8523 38.3431 20.6022C38.7672 20.3521 39.0934 19.9878 39.3218 19.5093H42.3884C42.0621 20.749 41.4151 21.7277 40.4473 22.4454C39.4795 23.1522 38.3159 23.5056 36.9566 23.5056C35.8474 23.5056 34.8524 23.261 33.9716 22.7716C33.1017 22.2714 32.422 21.5809 31.9327 20.7001C31.4433 19.8192 31.1987 18.8134 31.1987 17.6824ZM47.8644 21.271H51.5182V23.4241H45.0752V11.9734H47.8644V21.271ZM60.9554 21.4014H56.6818L55.9967 23.4241H53.077L57.2201 11.9734H60.4498L64.5929 23.4241H61.6405L60.9554 21.4014ZM60.2377 19.2483L58.8186 15.0563L57.4158 19.2483H60.2377ZM69.6218 11.9734V23.4241H66.8325V11.9734H69.6218ZM85.5895 11.9734V23.4241H82.8002V16.5569L80.2393 23.4241H77.9883L75.4111 16.5406V23.4241H72.6218V11.9734H75.9168L79.1301 19.9008L82.3109 11.9734H85.5895ZM36.1114 27.9734C37.3184 27.9734 38.3732 28.2126 39.2758 28.6911C40.1784 29.1696 40.8743 29.8438 41.3637 30.7137C41.8639 31.5728 42.114 32.5678 42.114 33.6987C42.114 34.8188 41.8639 35.8138 41.3637 36.6837C40.8743 37.5537 40.1729 38.2279 39.2595 38.7064C38.3569 39.1848 37.3075 39.4241 36.1114 39.4241H31.8214V27.9734H36.1114ZM35.9319 37.01C36.9867 37.01 37.8078 36.7218 38.395 36.1455C38.9822 35.5691 39.2758 34.7535 39.2758 33.6987C39.2758 32.6439 38.9822 31.8229 38.395 31.2357C37.8078 30.6485 36.9867 30.3549 35.9319 30.3549H34.6107V37.01H35.9319ZM46.7883 30.2081V32.5243H50.5236V34.6774H46.7883V37.1894H51.0129V39.4241H43.999V27.9734H51.0129V30.2081H46.7883ZM63.3936 39.4241H60.6043L55.9393 32.3612V39.4241H53.15V27.9734H55.9393L60.6043 35.0689V27.9734H63.3936V39.4241ZM68.531 27.9734V39.4241H65.7417V27.9734H68.531ZM73.6678 30.2081V32.5243H77.4031V34.6774H73.6678V37.1894H77.8925V39.4241H70.8786V27.9734H77.8925V30.2081H73.6678ZM84.3195 27.9734C85.5265 27.9734 86.5813 28.2126 87.4839 28.6911C88.3865 29.1696 89.0824 29.8438 89.5718 30.7137C90.072 31.5728 90.3221 32.5678 90.3221 33.6987C90.3221 34.8188 90.072 35.8138 89.5718 36.6837C89.0824 37.5537 88.381 38.2279 87.4676 38.7064C86.565 39.1848 85.5157 39.4241 84.3195 39.4241H80.0296V27.9734H84.3195ZM84.1401 37.01C85.1949 37.01 86.0159 36.7218 86.6031 36.1455C87.1903 35.5691 87.4839 34.7535 87.4839 33.6987C87.4839 32.6439 87.1903 31.8229 86.6031 31.2357C86.0159 30.6485 85.1949 30.3549 84.1401 30.3549H82.8188V37.01H84.1401Z" fill="white"/>
<rect x="4.43015" y="3.88096" width="112.142" height="44.177" rx="5.09734" stroke="white" stroke-width="0.679646" stroke-dasharray="5.44 5.44"/>
</svg>
