<svg width="147" height="205" viewBox="0 0 147 205" fill="none" xmlns="http://www.w3.org/2000/svg">
<path d="M106.907 3C106.907 1.52724 108.101 0.333328 109.574 0.333328C111.047 0.333328 112.241 1.52724 112.241 3C112.241 4.47275 111.047 5.66666 109.574 5.66666C108.101 5.66666 106.907 4.47275 106.907 3ZM141.333 202C141.333 200.527 142.527 199.333 144 199.333C145.473 199.333 146.667 200.527 146.667 202C146.667 203.473 145.473 204.667 144 204.667C142.527 204.667 141.333 203.473 141.333 202ZM109.574 3.5H103.502V2.5H109.574V3.5ZM91.3588 3.5H79.2153V2.5H91.3588V3.5ZM67.0718 3.5H61V2.5H67.0718V3.5ZM61 3.5C59.4271 3.5 57.8686 3.56102 56.3266 3.68082L56.2491 2.68381C57.8168 2.56203 59.4012 2.5 61 2.5V3.5ZM47.1036 5.13141C44.0453 5.86311 41.0787 6.83099 38.2243 8.01469L37.8412 7.09096C40.744 5.88724 43.7608 4.90295 46.8709 4.15886L47.1036 5.13141ZM29.9081 12.2599C27.2455 13.895 24.7215 15.7337 22.3576 17.7546L21.7078 16.9945C24.1112 14.9399 26.6775 13.0703 29.3848 11.4078L29.9081 12.2599ZM15.7546 24.3576C13.7338 26.7214 11.895 29.2455 10.2599 31.9081L9.4078 31.3848C11.0703 28.6775 12.9399 26.1111 14.9945 23.7078L15.7546 24.3576ZM6.01471 40.2242C4.83101 43.0787 3.86313 46.0452 3.13142 49.1035L2.15887 48.8709C2.90297 45.7608 3.88725 42.744 5.09098 39.8412L6.01471 40.2242ZM1.68082 58.3265C1.56102 59.8685 1.5 61.4271 1.5 63H0.5C0.5 61.4012 0.562027 59.8168 0.683821 58.2491L1.68082 58.3265ZM1.5 63V67.9375H0.5V63H1.5ZM1.5 77.8125V87.6875H0.5V77.8125H1.5ZM1.5 97.5625V107.438H0.5V97.5625H1.5ZM1.5 117.312V127.188H0.5V117.312H1.5ZM1.5 137.062V142H0.5V137.062H1.5ZM1.5 142C1.5 143.573 1.56102 145.131 1.68082 146.673L0.683821 146.751C0.562027 145.183 0.5 143.599 0.5 142H1.5ZM3.13141 155.896C3.86313 158.955 4.831 161.921 6.0147 164.776L5.09097 165.159C3.88724 162.256 2.90297 159.239 2.15886 156.129L3.13141 155.896ZM10.2599 173.092C11.895 175.754 13.7338 178.279 15.7546 180.642L14.9945 181.292C12.9399 178.889 11.0703 176.323 9.40778 173.615L10.2599 173.092ZM22.3576 187.245C24.7214 189.266 27.2455 191.105 29.9081 192.74L29.3848 193.592C26.6775 191.93 24.1111 190.06 21.7078 188.006L22.3576 187.245ZM38.2243 196.985C41.0787 198.169 44.0453 199.137 47.1036 199.869L46.8709 200.841C43.7608 200.097 40.744 199.113 37.8412 197.909L38.2243 196.985ZM56.3265 201.319C57.8685 201.439 59.4271 201.5 61 201.5V202.5C59.4012 202.5 57.8168 202.438 56.2491 202.316L56.3265 201.319ZM61 201.5H66.1875V202.5H61V201.5ZM76.5625 201.5H86.9375V202.5H76.5625V201.5ZM97.3125 201.5H107.688V202.5H97.3125V201.5ZM118.062 201.5H128.438V202.5H118.062V201.5ZM138.812 201.5H144V202.5H138.812V201.5Z" fill="#002FFF"/>
</svg>
