<svg width="71" height="70" viewBox="0 0 71 70" fill="none" xmlns="http://www.w3.org/2000/svg">
<g clip-path="url(#clip0_1520_16089)">
<path d="M18 0C15.6794 0 13.4538 0.921872 11.8128 2.56282C10.1719 4.20376 9.25 6.42936 9.25 8.75V61.25C9.25 63.5706 10.1719 65.7962 11.8128 67.4372C13.4538 69.0781 15.6794 70 18 70H53C55.3206 70 57.5462 69.0781 59.1872 67.4372C60.8281 65.7962 61.75 63.5706 61.75 61.25V8.75C61.75 6.42936 60.8281 4.20376 59.1872 2.56282C57.5462 0.921872 55.3206 0 53 0L18 0ZM18 4.375H53C54.1603 4.375 55.2731 4.83594 56.0936 5.65641C56.9141 6.47688 57.375 7.58968 57.375 8.75V61.25C57.375 62.4103 56.9141 63.5231 56.0936 64.3436C55.2731 65.1641 54.1603 65.625 53 65.625H18C16.8397 65.625 15.7269 65.1641 14.9064 64.3436C14.0859 63.5231 13.625 62.4103 13.625 61.25V8.75C13.625 7.58968 14.0859 6.47688 14.9064 5.65641C15.7269 4.83594 16.8397 4.375 18 4.375Z" fill="#002FFF"/>
<path d="M20.6376 52.8807C19.7849 52.5397 19.0979 51.8809 18.7213 51.0432C17.8682 49.3457 18.1526 47.6482 19.0713 46.222C19.9376 44.8789 21.3726 43.737 22.9957 42.7789C25.0517 41.6128 27.225 40.6669 29.4795 39.957C31.2303 36.8096 32.782 33.5555 34.1257 30.2139C33.3224 28.3885 32.6925 26.4916 32.2445 24.5482C31.8682 22.7982 31.7238 21.0657 32.0432 19.5782C32.3713 18.0295 33.242 16.6382 34.887 15.9776C35.727 15.6407 36.637 15.4526 37.5207 15.6407C37.9653 15.7354 38.3832 15.9278 38.7441 16.204C39.1051 16.4802 39.4 16.8333 39.6076 17.2376C39.9926 17.9551 40.1326 18.7951 40.1632 19.5914C40.1938 20.4095 40.1107 21.3195 39.9576 22.2776C39.5901 24.5089 38.7763 27.2389 37.6826 30.1264C38.8896 32.7077 40.3245 35.1762 41.9701 37.5026C43.9174 37.3488 45.876 37.4222 47.8063 37.7214C49.3988 38.0057 51.0176 38.5745 52.0063 39.7557C52.5313 40.3857 52.8507 41.1557 52.8813 42.022C52.912 42.862 52.6757 43.6932 52.2776 44.4851C51.9327 45.2189 51.398 45.8473 50.7288 46.3051C50.0674 46.7366 49.2864 46.9479 48.4976 46.9089C47.0495 46.8476 45.6363 46.0514 44.4157 45.0845C42.9316 43.8572 41.5942 42.4625 40.4301 40.9282C37.4715 41.2638 34.548 41.8582 31.6932 42.7045C30.3844 45.0232 28.8906 47.2324 27.2263 49.3107C25.9576 50.842 24.5663 52.1764 23.1751 52.7539C22.3757 53.1155 21.469 53.1608 20.6376 52.8807ZM26.6707 44.5639C25.9445 44.8964 25.2707 45.2464 24.6626 45.6051C23.2276 46.4539 22.2957 47.2807 21.832 47.9982C21.4207 48.6326 21.412 49.092 21.657 49.5776C21.7007 49.6739 21.7445 49.7351 21.7707 49.7701C21.8229 49.7561 21.8741 49.7386 21.9238 49.7176C22.5232 49.4726 23.477 48.6895 24.702 47.2151C25.3987 46.3621 26.0556 45.4774 26.6707 44.5639ZM33.8457 38.7451C35.3066 38.4039 36.7807 38.1222 38.2645 37.9007C37.4675 36.6819 36.7231 35.4295 36.0332 34.147C35.3471 35.6984 34.6177 37.2302 33.8457 38.7407V38.7451ZM44.547 40.7139C45.2032 41.4226 45.842 42.0264 46.4501 42.5076C47.5001 43.3389 48.2307 43.6145 48.6288 43.6276C48.7354 43.6416 48.8436 43.6184 48.9351 43.562C49.1171 43.4183 49.2588 43.2299 49.3463 43.0151C49.5019 42.7486 49.5905 42.4484 49.6045 42.1401C49.6019 42.0373 49.5614 41.9391 49.4907 41.8645C49.2632 41.5932 48.6157 41.1995 47.2245 40.9501C46.3395 40.8022 45.4442 40.7247 44.547 40.7182V40.7139ZM35.8407 25.3751C36.2089 24.1874 36.5012 22.9775 36.7157 21.7526C36.8513 20.9301 36.9038 20.252 36.882 19.7182C36.8832 19.4238 36.8359 19.1311 36.742 18.852C36.5231 18.8791 36.3094 18.938 36.1076 19.027C35.727 19.1801 35.4163 19.4907 35.2501 20.2651C35.0751 21.1051 35.1188 22.317 35.4513 23.8614C35.5563 24.347 35.6876 24.8545 35.8451 25.3751H35.8407Z" fill="#002FFF"/>
</g>
<defs>
<clipPath id="clip0_1520_16089">
<rect width="70" height="70" fill="white" transform="translate(0.5)"/>
</clipPath>
</defs>
</svg>
