<svg width="590" height="85" viewBox="0 0 590 85" fill="none" xmlns="http://www.w3.org/2000/svg">
<g filter="url(#filter0_b_490_533)">
<rect x="2.80908" width="44.479" height="44.479" rx="22.2395" fill="white"/>
<rect x="11.1816" y="8.37244" width="27.734" height="27.734" rx="13.867" fill="#044BD9" fill-opacity="0.04"/>
<g clip-path="url(#clip0_490_533)">
<path fill-rule="evenodd" clip-rule="evenodd" d="M25.4066 17.262C22.6579 17.262 20.4296 19.4903 20.4296 22.239C20.4296 24.9877 22.6579 27.216 25.4066 27.216C28.1553 27.216 30.3836 24.9877 30.3836 22.239C30.3836 19.4903 28.1553 17.262 25.4066 17.262ZM19.6226 22.239C19.6226 19.0446 22.2122 16.455 25.4066 16.455C28.6011 16.455 31.1907 19.0446 31.1907 22.239C31.1907 25.4335 28.6011 28.0231 25.4066 28.0231C22.2122 28.0231 19.6226 25.4335 19.6226 22.239ZM25.4066 19.6833C25.6295 19.6833 25.8102 19.8639 25.8102 20.0868V22.0719L27.0371 23.2988C27.1947 23.4564 27.1947 23.7119 27.0371 23.8695C26.8795 24.0271 26.624 24.0271 26.4664 23.8695L25.1213 22.5244C25.0456 22.4487 25.0031 22.3461 25.0031 22.239V20.0868C25.0031 19.8639 25.1838 19.6833 25.4066 19.6833Z" fill="#044BD9"/>
</g>
<rect x="3.07072" y="0.261641" width="43.9558" height="43.9558" rx="21.9779" stroke="#E7EAEC" stroke-width="0.523283"/>
</g>
<path d="M7.00514 66.9574H6.02588L2.08733 60.985V66.9574H1.10808V59.4462H2.08733L6.02588 65.4078V59.4462H7.00514V66.9574ZM11.2463 67.0542C10.6939 67.0542 10.1918 66.9287 9.73979 66.6776C9.295 66.4265 8.94347 66.0714 8.68521 65.6123C8.43412 65.146 8.30857 64.6079 8.30857 63.9981C8.30857 63.3955 8.4377 62.8646 8.69597 62.4055C8.96141 61.9392 9.32011 61.584 9.77207 61.3401C10.224 61.089 10.7298 60.9635 11.2894 60.9635C11.849 60.9635 12.3547 61.089 12.8067 61.3401C13.2587 61.584 13.6138 61.9356 13.872 62.3947C14.1375 62.8538 14.2702 63.3883 14.2702 63.9981C14.2702 64.6079 14.1339 65.146 13.8613 65.6123C13.5958 66.0714 13.2335 66.4265 12.7744 66.6776C12.3153 66.9287 11.8059 67.0542 11.2463 67.0542ZM11.2463 66.1934C11.5979 66.1934 11.9279 66.1109 12.2364 65.9459C12.5448 65.7809 12.7923 65.5334 12.9789 65.2033C13.1726 64.8733 13.2694 64.4716 13.2694 63.9981C13.2694 63.5246 13.1762 63.1229 12.9896 62.7929C12.8031 62.4629 12.5592 62.2189 12.2579 62.0611C11.9566 61.8961 11.6302 61.8136 11.2786 61.8136C10.9199 61.8136 10.5899 61.8961 10.2886 62.0611C9.99447 62.2189 9.75773 62.4629 9.57838 62.7929C9.39902 63.1229 9.30935 63.5246 9.30935 63.9981C9.30935 64.4788 9.39544 64.8841 9.56761 65.2141C9.74696 65.5441 9.98371 65.7916 10.2778 65.9566C10.572 66.1144 10.8948 66.1934 11.2463 66.1934ZM16.7522 61.8674V65.3432C16.7522 65.6302 16.8132 65.8347 16.9352 65.9566C17.0571 66.0714 17.2687 66.1288 17.5701 66.1288H18.2911V66.9574H17.4086C16.8634 66.9574 16.4545 66.8319 16.1819 66.5808C15.9093 66.3297 15.773 65.9172 15.773 65.3432V61.8674H15.0089V61.0603H15.773V59.5753H16.7522V61.0603H18.2911V61.8674H16.7522ZM24.7462 61.8674H23.5087V66.9574H22.5294V61.8674H21.7654V61.0603H22.5294V60.6407C22.5294 59.9806 22.698 59.5 23.0352 59.1987C23.3795 58.8902 23.9283 58.7359 24.6816 58.7359V59.5538C24.2512 59.5538 23.9463 59.6399 23.7669 59.8121C23.5947 59.9771 23.5087 60.2533 23.5087 60.6407V61.0603H24.7462V61.8674ZM26.3937 60.1026C26.2072 60.1026 26.0494 60.038 25.9202 59.9089C25.7911 59.7798 25.7265 59.6219 25.7265 59.4354C25.7265 59.2489 25.7911 59.0911 25.9202 58.9619C26.0494 58.8328 26.2072 58.7682 26.3937 58.7682C26.5731 58.7682 26.7237 58.8328 26.8457 58.9619C26.9748 59.0911 27.0394 59.2489 27.0394 59.4354C27.0394 59.6219 26.9748 59.7798 26.8457 59.9089C26.7237 60.038 26.5731 60.1026 26.3937 60.1026ZM26.8672 61.0603V66.9574H25.8879V61.0603H26.8672ZM29.5154 58.9942V66.9574H28.5362V58.9942H29.5154ZM32.1637 58.9942V66.9574H31.1844V58.9942H32.1637ZM39.2132 63.7829C39.2132 63.9694 39.2024 64.1667 39.1809 64.3747H34.4675C34.5034 64.9558 34.7007 65.4114 35.0594 65.7414C35.4253 66.0642 35.8665 66.2256 36.383 66.2256C36.8063 66.2256 37.1578 66.1288 37.4376 65.9351C37.7245 65.7342 37.9254 65.4688 38.0402 65.1388H39.0948C38.937 65.7055 38.6213 66.1683 38.1478 66.527C37.6743 66.8785 37.0861 67.0542 36.383 67.0542C35.8234 67.0542 35.3212 66.9287 34.8765 66.6776C34.4388 66.4265 34.0945 66.0714 33.8434 65.6123C33.5923 65.146 33.4668 64.6079 33.4668 63.9981C33.4668 63.3883 33.5887 62.8538 33.8326 62.3947C34.0765 61.9356 34.4173 61.584 34.8549 61.3401C35.2997 61.089 35.8091 60.9635 36.383 60.9635C36.9426 60.9635 37.4376 61.0854 37.868 61.3294C38.2985 61.5733 38.6285 61.9105 38.858 62.3409C39.0948 62.7642 39.2132 63.2448 39.2132 63.7829ZM38.2016 63.5784C38.2016 63.2054 38.1191 62.8861 37.9541 62.6207C37.7891 62.3481 37.5631 62.1436 37.2762 62.0073C36.9964 61.8638 36.6843 61.7921 36.34 61.7921C35.8449 61.7921 35.4217 61.9499 35.0702 62.2656C34.7258 62.5812 34.5285 63.0188 34.4783 63.5784H38.2016ZM40.1399 63.9873C40.1399 63.3847 40.2618 62.8574 40.5057 62.4055C40.7497 61.9463 41.0833 61.5912 41.5065 61.3401C41.937 61.089 42.4176 60.9635 42.9485 60.9635C43.4076 60.9635 43.8345 61.0711 44.2291 61.2863C44.6236 61.4944 44.9249 61.7706 45.133 62.1149V58.9942H46.123V66.9574H45.133V65.849C44.9393 66.2005 44.6523 66.4911 44.2721 66.7207C43.8919 66.943 43.4471 67.0542 42.9377 67.0542C42.414 67.0542 41.937 66.9251 41.5065 66.6668C41.0833 66.4086 40.7497 66.0463 40.5057 65.58C40.2618 65.1137 40.1399 64.5828 40.1399 63.9873ZM45.133 63.9981C45.133 63.5533 45.0433 63.1659 44.864 62.8359C44.6846 62.5059 44.4407 62.2548 44.1322 62.0826C43.8309 61.9033 43.4973 61.8136 43.1314 61.8136C42.7656 61.8136 42.432 61.8997 42.1307 62.0719C41.8294 62.2441 41.589 62.4951 41.4097 62.8252C41.2303 63.1552 41.1406 63.5426 41.1406 63.9873C41.1406 64.4393 41.2303 64.8339 41.4097 65.1711C41.589 65.5011 41.8294 65.7557 42.1307 65.9351C42.432 66.1073 42.7656 66.1934 43.1314 66.1934C43.4973 66.1934 43.8309 66.1073 44.1322 65.9351C44.4407 65.7557 44.6846 65.5011 44.864 65.1711C45.0433 64.8339 45.133 64.4429 45.133 63.9981ZM8.01899 74.1026C7.83246 74.1026 7.67464 74.038 7.5455 73.9089C7.41637 73.7798 7.3518 73.6219 7.3518 73.4354C7.3518 73.2489 7.41637 73.0911 7.5455 72.9619C7.67464 72.8328 7.83246 72.7682 8.01899 72.7682C8.19834 72.7682 8.349 72.8328 8.47095 72.9619C8.60009 73.0911 8.66465 73.2489 8.66465 73.4354C8.66465 73.6219 8.60009 73.7798 8.47095 73.9089C8.349 74.038 8.19834 74.1026 8.01899 74.1026ZM8.49248 75.0603V80.9574H7.51322V75.0603H8.49248ZM13.0347 74.9527C13.7521 74.9527 14.3332 75.1715 14.7779 75.6092C15.2227 76.0396 15.4451 76.6637 15.4451 77.4816V80.9574H14.4766V77.6215C14.4766 77.0332 14.3296 76.5848 14.0354 76.2763C13.7413 75.9607 13.3395 75.8028 12.8302 75.8028C12.3137 75.8028 11.9012 75.9643 11.5927 76.2871C11.2914 76.6099 11.1407 77.0798 11.1407 77.6968V80.9574H10.1614V75.0603H11.1407V75.8997C11.3344 75.5984 11.5963 75.3652 11.9263 75.2002C12.2634 75.0352 12.6329 74.9527 13.0347 74.9527ZM21.1081 75.8674V79.3432C21.1081 79.6302 21.1691 79.8347 21.2911 79.9566C21.413 80.0714 21.6247 80.1288 21.926 80.1288H22.647V80.9574H21.7646C21.2193 80.9574 20.8104 80.8319 20.5378 80.5808C20.2652 80.3297 20.1289 79.9172 20.1289 79.3432V75.8674H19.3648V75.0603H20.1289V73.5753H21.1081V75.0603H22.647V75.8674H21.1081ZM24.3392 74.1026C24.1527 74.1026 23.9949 74.038 23.8657 73.9089C23.7366 73.7798 23.672 73.6219 23.672 73.4354C23.672 73.2489 23.7366 73.0911 23.8657 72.9619C23.9949 72.8328 24.1527 72.7682 24.3392 72.7682C24.5186 72.7682 24.6692 72.8328 24.7912 72.9619C24.9203 73.0911 24.9849 73.2489 24.9849 73.4354C24.9849 73.6219 24.9203 73.7798 24.7912 73.9089C24.6692 74.038 24.5186 74.1026 24.3392 74.1026ZM24.8127 75.0603V80.9574H23.8335V75.0603H24.8127ZM33.5732 74.9527C34.0324 74.9527 34.4413 75.0496 34.8 75.2433C35.1587 75.4298 35.4421 75.7132 35.6501 76.0934C35.8582 76.4736 35.9622 76.9363 35.9622 77.4816V80.9574H34.9937V77.6215C34.9937 77.0332 34.8466 76.5848 34.5525 76.2763C34.2655 75.9607 33.8745 75.8028 33.3795 75.8028C32.8702 75.8028 32.4648 75.9679 32.1635 76.2979C31.8622 76.6207 31.7116 77.0906 31.7116 77.7076V80.9574H30.7431V77.6215C30.7431 77.0332 30.596 76.5848 30.3019 76.2763C30.0149 75.9607 29.6239 75.8028 29.1289 75.8028C28.6196 75.8028 28.2142 75.9679 27.9129 76.2979C27.6116 76.6207 27.4609 77.0906 27.4609 77.7076V80.9574H26.4817V75.0603H27.4609V75.9105C27.6546 75.602 27.9129 75.3652 28.2357 75.2002C28.5657 75.0352 28.928 74.9527 29.3226 74.9527C29.8176 74.9527 30.2552 75.0639 30.6355 75.2863C31.0157 75.5087 31.2991 75.8351 31.4856 76.2656C31.6506 75.8495 31.9232 75.5266 32.3034 75.2971C32.6836 75.0675 33.1069 74.9527 33.5732 74.9527ZM42.9491 77.7829C42.9491 77.9694 42.9383 78.1667 42.9168 78.3747H38.2034C38.2393 78.9558 38.4366 79.4114 38.7953 79.7414C39.1612 80.0642 39.6024 80.2256 40.1189 80.2256C40.5422 80.2256 40.8937 80.1288 41.1735 79.9351C41.4604 79.7342 41.6613 79.4688 41.7761 79.1388H42.8307C42.6729 79.7055 42.3572 80.1683 41.8837 80.527C41.4102 80.8785 40.822 81.0542 40.1189 81.0542C39.5593 81.0542 39.0571 80.9287 38.6123 80.6776C38.1747 80.4265 37.8304 80.0714 37.5793 79.6123C37.3282 79.146 37.2026 78.6079 37.2026 77.9981C37.2026 77.3883 37.3246 76.8538 37.5685 76.3947C37.8124 75.9356 38.1532 75.584 38.5908 75.3401C39.0356 75.089 39.545 74.9635 40.1189 74.9635C40.6785 74.9635 41.1735 75.0854 41.6039 75.3294C42.0344 75.5733 42.3644 75.9105 42.5939 76.3409C42.8307 76.7642 42.9491 77.2448 42.9491 77.7829ZM41.9375 77.5784C41.9375 77.2054 41.855 76.8861 41.69 76.6207C41.525 76.3481 41.299 76.1436 41.0121 76.0073C40.7323 75.8638 40.4202 75.7921 40.0759 75.7921C39.5808 75.7921 39.1576 75.9499 38.806 76.2656C38.4617 76.5812 38.2644 77.0188 38.2142 77.5784H41.9375Z" fill="black"/>
<g filter="url(#filter1_b_490_533)">
<rect x="85.2666" width="44.479" height="44.479" rx="22.2395" fill="white"/>
<rect x="93.6392" y="8.37244" width="27.734" height="27.734" rx="13.867" fill="#044BD9" fill-opacity="0.04"/>
<g clip-path="url(#clip1_490_533)">
<path d="M102.484 22.2394C102.484 19.703 102.484 18.4348 103.272 17.6468C104.06 16.8589 105.328 16.8589 107.865 16.8589C110.401 16.8589 111.67 16.8589 112.457 17.6468C113.245 18.4348 113.245 19.703 113.245 22.2394C113.245 24.7758 113.245 26.044 112.457 26.832C111.67 27.6199 110.401 27.6199 107.865 27.6199C105.328 27.6199 104.06 27.6199 103.272 26.832C102.484 26.044 102.484 24.7758 102.484 22.2394Z" stroke="#044BD9" stroke-width="0.807079"/>
<path d="M110.555 23.8534H109.21H107.864" stroke="#044BD9" stroke-width="0.807079" stroke-linecap="round"/>
<path d="M105.175 21.163L105.301 21.2681C105.991 21.8427 106.335 22.1301 106.335 22.5081C106.335 22.8861 105.991 23.1735 105.301 23.7481L105.175 23.8532" stroke="#044BD9" stroke-width="0.807079" stroke-linecap="round"/>
</g>
<rect x="85.5282" y="0.261641" width="43.9558" height="43.9558" rx="21.9779" stroke="#E7EAEC" stroke-width="0.523283"/>
</g>
<path d="M74.5404 59.4569V66.9574H73.5612V59.4569H74.5404ZM79.0826 60.9527C79.8 60.9527 80.3811 61.1715 80.8259 61.6092C81.2707 62.0396 81.4931 62.6637 81.4931 63.4816V66.9574H80.5246V63.6215C80.5246 63.0332 80.3775 62.5848 80.0834 62.2763C79.7892 61.9607 79.3875 61.8028 78.8781 61.8028C78.3616 61.8028 77.9491 61.9643 77.6406 62.2871C77.3393 62.6099 77.1887 63.0798 77.1887 63.6968V66.9574H76.2094V61.0603H77.1887V61.8997C77.3824 61.5984 77.6442 61.3652 77.9742 61.2002C78.3114 61.0352 78.6809 60.9527 79.0826 60.9527ZM82.7268 63.9981C82.7268 63.3883 82.8488 62.8574 83.0927 62.4055C83.3366 61.9463 83.6738 61.5912 84.1042 61.3401C84.5419 61.089 85.0404 60.9635 85.6 60.9635C86.3246 60.9635 86.92 61.1393 87.3864 61.4908C87.8598 61.8423 88.1719 62.3301 88.3226 62.9543H87.268C87.1676 62.5956 86.9703 62.3122 86.6761 62.1042C86.3892 61.8961 86.0305 61.7921 85.6 61.7921C85.0404 61.7921 84.5885 61.9858 84.2441 62.3732C83.8998 62.7534 83.7276 63.295 83.7276 63.9981C83.7276 64.7083 83.8998 65.2571 84.2441 65.6445C84.5885 66.0319 85.0404 66.2256 85.6 66.2256C86.0305 66.2256 86.3892 66.1252 86.6761 65.9243C86.9631 65.7235 87.1604 65.4365 87.268 65.0635H88.3226C88.1647 65.6661 87.8491 66.1503 87.3756 66.5162C86.9021 66.8749 86.3103 67.0542 85.6 67.0542C85.0404 67.0542 84.5419 66.9287 84.1042 66.6776C83.6738 66.4265 83.3366 66.0714 83.0927 65.6123C82.8488 65.1531 82.7268 64.6151 82.7268 63.9981ZM92.2011 67.0542C91.6487 67.0542 91.1465 66.9287 90.6945 66.6776C90.2498 66.4265 89.8982 66.0714 89.64 65.6123C89.3889 65.146 89.2633 64.6079 89.2633 63.9981C89.2633 63.3955 89.3925 62.8646 89.6507 62.4055C89.9162 61.9392 90.2749 61.584 90.7268 61.3401C91.1788 61.089 91.6846 60.9635 92.2441 60.9635C92.8037 60.9635 93.3095 61.089 93.7614 61.3401C94.2134 61.584 94.5685 61.9356 94.8268 62.3947C95.0922 62.8538 95.225 63.3883 95.225 63.9981C95.225 64.6079 95.0886 65.146 94.816 65.6123C94.5506 66.0714 94.1883 66.4265 93.7292 66.6776C93.27 66.9287 92.7607 67.0542 92.2011 67.0542ZM92.2011 66.1934C92.5526 66.1934 92.8826 66.1109 93.1911 65.9459C93.4996 65.7809 93.7471 65.5334 93.9336 65.2033C94.1273 64.8733 94.2242 64.4716 94.2242 63.9981C94.2242 63.5246 94.1309 63.1229 93.9444 62.7929C93.7579 62.4629 93.5139 62.2189 93.2126 62.0611C92.9113 61.8961 92.5849 61.8136 92.2334 61.8136C91.8747 61.8136 91.5447 61.8961 91.2434 62.0611C90.9492 62.2189 90.7125 62.4629 90.5331 62.7929C90.3538 63.1229 90.2641 63.5246 90.2641 63.9981C90.2641 64.4788 90.3502 64.8841 90.5224 65.2141C90.7017 65.5441 90.9385 65.7916 91.2326 65.9566C91.5267 66.1144 91.8496 66.1934 92.2011 66.1934ZM97.4918 62.0181C97.6639 61.6809 97.9078 61.419 98.2235 61.2325C98.5463 61.046 98.9373 60.9527 99.3965 60.9527V61.9643H99.1382C98.0406 61.9643 97.4918 62.5597 97.4918 63.7506V66.9574H96.5125V61.0603H97.4918V62.0181ZM101.506 62.0181C101.678 61.6809 101.922 61.419 102.238 61.2325C102.561 61.046 102.952 60.9527 103.411 60.9527V61.9643H103.153C102.055 61.9643 101.506 62.5597 101.506 63.7506V66.9574H100.527V61.0603H101.506V62.0181ZM109.922 63.7829C109.922 63.9694 109.911 64.1667 109.89 64.3747H105.176C105.212 64.9558 105.409 65.4114 105.768 65.7414C106.134 66.0642 106.575 66.2256 107.092 66.2256C107.515 66.2256 107.866 66.1288 108.146 65.9351C108.433 65.7342 108.634 65.4688 108.749 65.1388H109.803C109.646 65.7055 109.33 66.1683 108.856 66.527C108.383 66.8785 107.795 67.0542 107.092 67.0542C106.532 67.0542 106.03 66.9287 105.585 66.6776C105.147 66.4265 104.803 66.0714 104.552 65.6123C104.301 65.146 104.175 64.6079 104.175 63.9981C104.175 63.3883 104.297 62.8538 104.541 62.3947C104.785 61.9356 105.126 61.584 105.564 61.3401C106.008 61.089 106.518 60.9635 107.092 60.9635C107.651 60.9635 108.146 61.0854 108.577 61.3294C109.007 61.5733 109.337 61.9105 109.567 62.3409C109.803 62.7642 109.922 63.2448 109.922 63.7829ZM108.91 63.5784C108.91 63.2054 108.828 62.8861 108.663 62.6207C108.498 62.3481 108.272 62.1436 107.985 62.0073C107.705 61.8638 107.393 61.7921 107.049 61.7921C106.554 61.7921 106.13 61.9499 105.779 62.2656C105.434 62.5812 105.237 63.0188 105.187 63.5784H108.91ZM110.848 63.9981C110.848 63.3883 110.97 62.8574 111.214 62.4055C111.458 61.9463 111.795 61.5912 112.226 61.3401C112.664 61.089 113.162 60.9635 113.722 60.9635C114.446 60.9635 115.042 61.1393 115.508 61.4908C115.982 61.8423 116.294 62.3301 116.444 62.9543H115.39C115.289 62.5956 115.092 62.3122 114.798 62.1042C114.511 61.8961 114.152 61.7921 113.722 61.7921C113.162 61.7921 112.71 61.9858 112.366 62.3732C112.021 62.7534 111.849 63.295 111.849 63.9981C111.849 64.7083 112.021 65.2571 112.366 65.6445C112.71 66.0319 113.162 66.2256 113.722 66.2256C114.152 66.2256 114.511 66.1252 114.798 65.9243C115.085 65.7235 115.282 65.4365 115.39 65.0635H116.444C116.286 65.6661 115.971 66.1503 115.497 66.5162C115.024 66.8749 114.432 67.0542 113.722 67.0542C113.162 67.0542 112.664 66.9287 112.226 66.6776C111.795 66.4265 111.458 66.0714 111.214 65.6123C110.97 65.1531 110.848 64.6151 110.848 63.9981ZM118.945 61.8674V65.3432C118.945 65.6302 119.006 65.8347 119.128 65.9566C119.25 66.0714 119.462 66.1288 119.763 66.1288H120.484V66.9574H119.602C119.057 66.9574 118.648 66.8319 118.375 66.5808C118.102 66.3297 117.966 65.9172 117.966 65.3432V61.8674H117.202V61.0603H117.966V59.5753H118.945V61.0603H120.484V61.8674H118.945ZM125.519 59.4569V66.9574H124.54V59.4569H125.519ZM126.822 63.2018C126.822 62.47 126.987 61.8136 127.317 61.2325C127.647 60.6442 128.095 60.1851 128.662 59.8551C129.236 59.5251 129.871 59.3601 130.567 59.3601C131.385 59.3601 132.098 59.5574 132.708 59.9519C133.318 60.3465 133.763 60.9061 134.043 61.6307H132.87C132.662 61.1787 132.36 60.8308 131.966 60.5869C131.578 60.3429 131.112 60.221 130.567 60.221C130.043 60.221 129.573 60.3429 129.157 60.5869C128.741 60.8308 128.415 61.1787 128.178 61.6307C127.941 62.0755 127.823 62.5992 127.823 63.2018C127.823 63.7972 127.941 64.3209 128.178 64.7729C128.415 65.2177 128.741 65.562 129.157 65.806C129.573 66.0499 130.043 66.1718 130.567 66.1718C131.112 66.1718 131.578 66.0535 131.966 65.8167C132.36 65.5728 132.662 65.2249 132.87 64.7729H134.043C133.763 65.4903 133.318 66.0463 132.708 66.4409C132.098 66.8283 131.385 67.022 130.567 67.022C129.871 67.022 129.236 66.8605 128.662 66.5377C128.095 66.2077 127.647 65.7522 127.317 65.1711C126.987 64.59 126.822 63.9335 126.822 63.2018ZM137.835 59.4569C138.653 59.4569 139.36 59.6112 139.955 59.9197C140.558 60.221 141.017 60.655 141.333 61.2218C141.656 61.7885 141.817 62.4557 141.817 63.2233C141.817 63.9909 141.656 64.6581 141.333 65.2249C141.017 65.7844 140.558 66.2149 139.955 66.5162C139.36 66.8103 138.653 66.9574 137.835 66.9574H135.5V59.4569H137.835ZM137.835 66.1503C138.804 66.1503 139.543 65.8956 140.052 65.3863C140.562 64.8698 140.816 64.1488 140.816 63.2233C140.816 62.2907 140.558 61.5625 140.041 61.0388C139.532 60.5151 138.797 60.2533 137.835 60.2533H136.48V66.1503H137.835ZM89.2213 77.9981C89.2213 77.3883 89.3432 76.8574 89.5872 76.4055C89.8311 75.9463 90.1683 75.5912 90.5987 75.3401C91.0363 75.089 91.5349 74.9635 92.0945 74.9635C92.8191 74.9635 93.4145 75.1393 93.8808 75.4908C94.3543 75.8423 94.6664 76.3301 94.817 76.9543H93.7625C93.662 76.5956 93.4647 76.3122 93.1706 76.1042C92.8836 75.8961 92.5249 75.7921 92.0945 75.7921C91.5349 75.7921 91.083 75.9858 90.7386 76.3732C90.3942 76.7534 90.2221 77.295 90.2221 77.9981C90.2221 78.7083 90.3942 79.2571 90.7386 79.6445C91.083 80.0319 91.5349 80.2256 92.0945 80.2256C92.5249 80.2256 92.8836 80.1252 93.1706 79.9243C93.4576 79.7235 93.6548 79.4365 93.7625 79.0635H94.817C94.6592 79.6661 94.3436 80.1503 93.8701 80.5162C93.3966 80.8749 92.8047 81.0542 92.0945 81.0542C91.5349 81.0542 91.0363 80.9287 90.5987 80.6776C90.1683 80.4265 89.8311 80.0714 89.5872 79.6123C89.3432 79.1531 89.2213 78.6151 89.2213 77.9981ZM98.6956 81.0542C98.1432 81.0542 97.641 80.9287 97.189 80.6776C96.7442 80.4265 96.3927 80.0714 96.1344 79.6123C95.8833 79.146 95.7578 78.6079 95.7578 77.9981C95.7578 77.3955 95.8869 76.8646 96.1452 76.4055C96.4106 75.9392 96.7693 75.584 97.2213 75.3401C97.6733 75.089 98.179 74.9635 98.7386 74.9635C99.2982 74.9635 99.804 75.089 100.256 75.3401C100.708 75.584 101.063 75.9356 101.321 76.3947C101.587 76.8538 101.719 77.3883 101.719 77.9981C101.719 78.6079 101.583 79.146 101.31 79.6123C101.045 80.0714 100.683 80.4265 100.224 80.6776C99.7645 80.9287 99.2551 81.0542 98.6956 81.0542ZM98.6956 80.1934C99.0471 80.1934 99.3771 80.1109 99.6856 79.9459C99.9941 79.7809 100.242 79.5334 100.428 79.2033C100.622 78.8733 100.719 78.4716 100.719 77.9981C100.719 77.5246 100.625 77.1229 100.439 76.7929C100.252 76.4629 100.008 76.2189 99.7071 76.0611C99.4058 75.8961 99.0794 75.8136 98.7278 75.8136C98.3691 75.8136 98.0391 75.8961 97.7378 76.0611C97.4437 76.2189 97.2069 76.4629 97.0276 76.7929C96.8482 77.1229 96.7586 77.5246 96.7586 77.9981C96.7586 78.4788 96.8447 78.8841 97.0168 79.2141C97.1962 79.5441 97.4329 79.7916 97.7271 79.9566C98.0212 80.1144 98.344 80.1934 98.6956 80.1934ZM102.641 77.9873C102.641 77.3847 102.763 76.8574 103.007 76.4055C103.251 75.9463 103.584 75.5912 104.008 75.3401C104.438 75.089 104.919 74.9635 105.45 74.9635C105.909 74.9635 106.336 75.0711 106.73 75.2863C107.125 75.4944 107.426 75.7706 107.634 76.1149V72.9942H108.624V80.9574H107.634V79.849C107.441 80.2005 107.154 80.4911 106.773 80.7207C106.393 80.943 105.948 81.0542 105.439 81.0542C104.915 81.0542 104.438 80.9251 104.008 80.6668C103.584 80.4086 103.251 80.0463 103.007 79.58C102.763 79.1137 102.641 78.5828 102.641 77.9873ZM107.634 77.9981C107.634 77.5533 107.545 77.1659 107.365 76.8359C107.186 76.5059 106.942 76.2548 106.633 76.0826C106.332 75.9033 105.999 75.8136 105.633 75.8136C105.267 75.8136 104.933 75.8997 104.632 76.0719C104.331 76.2441 104.09 76.4951 103.911 76.8252C103.732 77.1552 103.642 77.5426 103.642 77.9873C103.642 78.4393 103.732 78.8339 103.911 79.1711C104.09 79.5011 104.331 79.7557 104.632 79.9351C104.933 80.1073 105.267 80.1934 105.633 80.1934C105.999 80.1934 106.332 80.1073 106.633 79.9351C106.942 79.7557 107.186 79.5011 107.365 79.1711C107.545 78.8339 107.634 78.4429 107.634 77.9981ZM110.785 74.1026C110.598 74.1026 110.441 74.038 110.311 73.9089C110.182 73.7798 110.118 73.6219 110.118 73.4354C110.118 73.2489 110.182 73.0911 110.311 72.9619C110.441 72.8328 110.598 72.7682 110.785 72.7682C110.964 72.7682 111.115 72.8328 111.237 72.9619C111.366 73.0911 111.431 73.2489 111.431 73.4354C111.431 73.6219 111.366 73.7798 111.237 73.9089C111.115 74.038 110.964 74.1026 110.785 74.1026ZM111.258 75.0603V80.9574H110.279V75.0603H111.258ZM115.801 74.9527C116.518 74.9527 117.099 75.1715 117.544 75.6092C117.989 76.0396 118.211 76.6637 118.211 77.4816V80.9574H117.243V77.6215C117.243 77.0332 117.095 76.5848 116.801 76.2763C116.507 75.9607 116.105 75.8028 115.596 75.8028C115.08 75.8028 114.667 75.9643 114.359 76.2871C114.057 76.6099 113.907 77.0798 113.907 77.6968V80.9574H112.927V75.0603H113.907V75.8997C114.1 75.5984 114.362 75.3652 114.692 75.2002C115.029 75.0352 115.399 74.9527 115.801 74.9527ZM122.243 74.9635C122.752 74.9635 123.197 75.0747 123.577 75.2971C123.964 75.5195 124.251 75.7993 124.438 76.1364V75.0603H125.428V81.0865C125.428 81.6246 125.313 82.1017 125.084 82.5178C124.854 82.941 124.524 83.271 124.094 83.5078C123.67 83.7445 123.175 83.8629 122.608 83.8629C121.834 83.8629 121.188 83.6799 120.671 83.3141C120.155 82.9482 119.85 82.4496 119.757 81.8183H120.725C120.833 82.177 121.055 82.4639 121.392 82.6792C121.73 82.9016 122.135 83.0128 122.608 83.0128C123.147 83.0128 123.584 82.8442 123.921 82.507C124.266 82.1698 124.438 81.6963 124.438 81.0865V79.849C124.244 80.1934 123.957 80.4803 123.577 80.7099C123.197 80.9395 122.752 81.0542 122.243 81.0542C121.719 81.0542 121.242 80.9251 120.811 80.6668C120.388 80.4086 120.055 80.0463 119.811 79.58C119.567 79.1137 119.445 78.5828 119.445 77.9873C119.445 77.3847 119.567 76.8574 119.811 76.4055C120.055 75.9463 120.388 75.5912 120.811 75.3401C121.242 75.089 121.719 74.9635 122.243 74.9635ZM124.438 77.9981C124.438 77.5533 124.348 77.1659 124.169 76.8359C123.989 76.5059 123.746 76.2548 123.437 76.0826C123.136 75.9033 122.802 75.8136 122.436 75.8136C122.07 75.8136 121.737 75.8997 121.436 76.0719C121.134 76.2441 120.894 76.4951 120.715 76.8252C120.535 77.1552 120.446 77.5426 120.446 77.9873C120.446 78.4393 120.535 78.8339 120.715 79.1711C120.894 79.5011 121.134 79.7557 121.436 79.9351C121.737 80.1073 122.07 80.1934 122.436 80.1934C122.802 80.1934 123.136 80.1073 123.437 79.9351C123.746 79.7557 123.989 79.5011 124.169 79.1711C124.348 78.8339 124.438 78.4429 124.438 77.9981Z" fill="black"/>
<g filter="url(#filter2_b_490_533)">
<rect x="179.333" width="44.479" height="44.479" rx="22.2395" fill="white"/>
<rect x="187.706" y="8.37256" width="27.734" height="27.734" rx="13.867" fill="#044BD9" fill-opacity="0.04"/>
<g clip-path="url(#clip2_490_533)">
<path d="M200.138 27.6199C198.109 27.6199 197.095 27.6199 196.464 26.9895C195.834 26.3591 195.834 25.8826 195.834 23.8535" stroke="#044BD9" stroke-width="0.807079" stroke-linecap="round"/>
<path d="M206.595 23.8535C206.595 25.8826 206.595 26.3591 205.965 26.9895C205.335 27.6199 204.32 27.6199 202.291 27.6199" stroke="#044BD9" stroke-width="0.807079" stroke-linecap="round"/>
<path d="M202.291 16.859C204.32 16.859 205.335 16.859 205.965 17.4894C206.595 18.1197 206.595 18.5963 206.595 20.6254" stroke="#044BD9" stroke-width="0.807079" stroke-linecap="round"/>
<path d="M200.138 16.859C198.109 16.859 197.095 16.859 196.464 17.4894C195.834 18.1197 195.834 18.5963 195.834 20.6254" stroke="#044BD9" stroke-width="0.807079" stroke-linecap="round"/>
<path d="M195.834 22.2394H206.595" stroke="#044BD9" stroke-width="0.807079" stroke-linecap="round"/>
</g>
<rect x="179.595" y="0.261641" width="43.9558" height="43.9558" rx="21.9779" stroke="#E7EAEC" stroke-width="0.523283"/>
</g>
<path d="M176.941 66.9574H175.961L172.023 60.985V66.9574H171.043V59.4462H172.023L175.961 65.4078V59.4462H176.941V66.9574ZM181.182 67.0542C180.629 67.0542 180.127 66.9287 179.675 66.6776C179.23 66.4265 178.879 66.0714 178.621 65.6123C178.369 65.146 178.244 64.6079 178.244 63.9981C178.244 63.3955 178.373 62.8646 178.631 62.4055C178.897 61.9392 179.255 61.584 179.707 61.3401C180.159 61.089 180.665 60.9635 181.225 60.9635C181.784 60.9635 182.29 61.089 182.742 61.3401C183.194 61.584 183.549 61.9356 183.807 62.3947C184.073 62.8538 184.206 63.3883 184.206 63.9981C184.206 64.6079 184.069 65.146 183.797 65.6123C183.531 66.0714 183.169 66.4265 182.71 66.6776C182.251 66.9287 181.741 67.0542 181.182 67.0542ZM181.182 66.1934C181.533 66.1934 181.863 66.1109 182.172 65.9459C182.48 65.7809 182.728 65.5334 182.914 65.2033C183.108 64.8733 183.205 64.4716 183.205 63.9981C183.205 63.5246 183.112 63.1229 182.925 62.7929C182.738 62.4629 182.495 62.2189 182.193 62.0611C181.892 61.8961 181.566 61.8136 181.214 61.8136C180.855 61.8136 180.525 61.8961 180.224 62.0611C179.93 62.2189 179.693 62.4629 179.514 62.7929C179.334 63.1229 179.245 63.5246 179.245 63.9981C179.245 64.4788 179.331 64.8841 179.503 65.2141C179.682 65.5441 179.919 65.7916 180.213 65.9566C180.507 66.1144 180.83 66.1934 181.182 66.1934ZM186.688 61.8674V65.3432C186.688 65.6302 186.749 65.8347 186.871 65.9566C186.992 66.0714 187.204 66.1288 187.505 66.1288H188.226V66.9574H187.344C186.799 66.9574 186.39 66.8319 186.117 66.5808C185.845 66.3297 185.708 65.9172 185.708 65.3432V61.8674H184.944V61.0603H185.708V59.5753H186.688V61.0603H188.226V61.8674H186.688ZM194.369 67.0542C193.918 67.0542 193.512 66.9789 193.153 66.8283C192.795 66.6704 192.511 66.4552 192.303 66.1826C192.095 65.9028 191.981 65.5836 191.959 65.2249H192.971C192.999 65.519 193.136 65.7593 193.379 65.9459C193.631 66.1324 193.957 66.2256 194.359 66.2256C194.732 66.2256 195.026 66.1431 195.241 65.9781C195.456 65.8131 195.564 65.6051 195.564 65.354C195.564 65.0957 195.449 64.9056 195.22 64.7837C194.99 64.6545 194.635 64.529 194.154 64.407C193.717 64.2922 193.358 64.1775 193.078 64.0627C192.806 63.9407 192.569 63.7649 192.368 63.5354C192.174 63.2986 192.077 62.9902 192.077 62.6099C192.077 62.3086 192.167 62.0324 192.346 61.7813C192.526 61.5302 192.78 61.3329 193.11 61.1895C193.44 61.0388 193.817 60.9635 194.24 60.9635C194.893 60.9635 195.42 61.1285 195.822 61.4585C196.224 61.7885 196.439 62.2405 196.468 62.8144H195.489C195.467 62.5059 195.342 62.2584 195.112 62.0719C194.89 61.8854 194.588 61.7921 194.208 61.7921C193.857 61.7921 193.577 61.8674 193.369 62.0181C193.161 62.1687 193.057 62.366 193.057 62.6099C193.057 62.8036 193.118 62.965 193.24 63.0942C193.369 63.2161 193.527 63.3166 193.713 63.3955C193.907 63.4672 194.172 63.5497 194.509 63.643C194.933 63.7578 195.277 63.8726 195.542 63.9873C195.808 64.095 196.034 64.26 196.22 64.4824C196.414 64.7047 196.515 64.9953 196.522 65.354C196.522 65.6768 196.432 65.9674 196.253 66.2256C196.073 66.4839 195.819 66.6884 195.489 66.839C195.166 66.9825 194.793 67.0542 194.369 67.0542ZM198.883 62.1472C199.077 61.81 199.364 61.5302 199.744 61.3078C200.132 61.0783 200.58 60.9635 201.089 60.9635C201.613 60.9635 202.087 61.089 202.51 61.3401C202.94 61.5912 203.277 61.9463 203.521 62.4055C203.765 62.8574 203.887 63.3847 203.887 63.9873C203.887 64.5828 203.765 65.1137 203.521 65.58C203.277 66.0463 202.94 66.4086 202.51 66.6668C202.087 66.9251 201.613 67.0542 201.089 67.0542C200.587 67.0542 200.142 66.943 199.755 66.7207C199.375 66.4911 199.084 66.2077 198.883 65.8705V69.7553H197.904V61.0603H198.883V62.1472ZM202.886 63.9873C202.886 63.5426 202.797 63.1552 202.617 62.8252C202.438 62.4951 202.194 62.2441 201.886 62.0719C201.584 61.8997 201.251 61.8136 200.885 61.8136C200.526 61.8136 200.193 61.9033 199.884 62.0826C199.583 62.2548 199.339 62.5095 199.152 62.8467C198.973 63.1767 198.883 63.5605 198.883 63.9981C198.883 64.4429 198.973 64.8339 199.152 65.1711C199.339 65.5011 199.583 65.7557 199.884 65.9351C200.193 66.1073 200.526 66.1934 200.885 66.1934C201.251 66.1934 201.584 66.1073 201.886 65.9351C202.194 65.7557 202.438 65.5011 202.617 65.1711C202.797 64.8339 202.886 64.4393 202.886 63.9873ZM210.557 63.7829C210.557 63.9694 210.546 64.1667 210.524 64.3747H205.811C205.847 64.9558 206.044 65.4114 206.403 65.7414C206.769 66.0642 207.21 66.2256 207.727 66.2256C208.15 66.2256 208.501 66.1288 208.781 65.9351C209.068 65.7342 209.269 65.4688 209.384 65.1388H210.438C210.281 65.7055 209.965 66.1683 209.491 66.527C209.018 66.8785 208.43 67.0542 207.727 67.0542C207.167 67.0542 206.665 66.9287 206.22 66.6776C205.782 66.4265 205.438 66.0714 205.187 65.6123C204.936 65.146 204.81 64.6079 204.81 63.9981C204.81 63.3883 204.932 62.8538 205.176 62.3947C205.42 61.9356 205.761 61.584 206.198 61.3401C206.643 61.089 207.153 60.9635 207.727 60.9635C208.286 60.9635 208.781 61.0854 209.212 61.3294C209.642 61.5733 209.972 61.9105 210.202 62.3409C210.438 62.7642 210.557 63.2448 210.557 63.7829ZM209.545 63.5784C209.545 63.2054 209.463 62.8861 209.298 62.6207C209.133 62.3481 208.907 62.1436 208.62 62.0073C208.34 61.8638 208.028 61.7921 207.684 61.7921C207.188 61.7921 206.765 61.9499 206.414 62.2656C206.069 62.5812 205.872 63.0188 205.822 63.5784H209.545ZM211.483 63.9981C211.483 63.3883 211.605 62.8574 211.849 62.4055C212.093 61.9463 212.43 61.5912 212.861 61.3401C213.298 61.089 213.797 60.9635 214.357 60.9635C215.081 60.9635 215.677 61.1393 216.143 61.4908C216.616 61.8423 216.929 62.3301 217.079 62.9543H216.025C215.924 62.5956 215.727 62.3122 215.433 62.1042C215.146 61.8961 214.787 61.7921 214.357 61.7921C213.797 61.7921 213.345 61.9858 213.001 62.3732C212.656 62.7534 212.484 63.295 212.484 63.9981C212.484 64.7083 212.656 65.2571 213.001 65.6445C213.345 66.0319 213.797 66.2256 214.357 66.2256C214.787 66.2256 215.146 66.1252 215.433 65.9243C215.72 65.7235 215.917 65.4365 216.025 65.0635H217.079C216.921 65.6661 216.606 66.1503 216.132 66.5162C215.659 66.8749 215.067 67.0542 214.357 67.0542C213.797 67.0542 213.298 66.9287 212.861 66.6776C212.43 66.4265 212.093 66.0714 211.849 65.6123C211.605 65.1531 211.483 64.6151 211.483 63.9981ZM218.892 60.1026C218.705 60.1026 218.547 60.038 218.418 59.9089C218.289 59.7798 218.224 59.6219 218.224 59.4354C218.224 59.2489 218.289 59.0911 218.418 58.9619C218.547 58.8328 218.705 58.7682 218.892 58.7682C219.071 58.7682 219.222 58.8328 219.344 58.9619C219.473 59.0911 219.537 59.2489 219.537 59.4354C219.537 59.6219 219.473 59.7798 219.344 59.9089C219.222 60.038 219.071 60.1026 218.892 60.1026ZM219.365 61.0603V66.9574H218.386V61.0603H219.365ZM223.434 61.8674H222.196V66.9574H221.217V61.8674H220.453V61.0603H221.217V60.6407C221.217 59.9806 221.386 59.5 221.723 59.1987C222.067 58.8902 222.616 58.7359 223.369 58.7359V59.5538C222.939 59.5538 222.634 59.6399 222.454 59.8121C222.282 59.9771 222.196 60.2533 222.196 60.6407V61.0603H223.434V61.8674ZM225.081 60.1026C224.895 60.1026 224.737 60.038 224.608 59.9089C224.479 59.7798 224.414 59.6219 224.414 59.4354C224.414 59.2489 224.479 59.0911 224.608 58.9619C224.737 58.8328 224.895 58.7682 225.081 58.7682C225.261 58.7682 225.411 58.8328 225.533 58.9619C225.662 59.0911 225.727 59.2489 225.727 59.4354C225.727 59.6219 225.662 59.7798 225.533 59.9089C225.411 60.038 225.261 60.1026 225.081 60.1026ZM225.555 61.0603V66.9574H224.576V61.0603H225.555ZM226.858 63.9981C226.858 63.3883 226.98 62.8574 227.224 62.4055C227.468 61.9463 227.805 61.5912 228.235 61.3401C228.673 61.089 229.171 60.9635 229.731 60.9635C230.456 60.9635 231.051 61.1393 231.517 61.4908C231.991 61.8423 232.303 62.3301 232.454 62.9543H231.399C231.299 62.5956 231.101 62.3122 230.807 62.1042C230.52 61.8961 230.162 61.7921 229.731 61.7921C229.171 61.7921 228.72 61.9858 228.375 62.3732C228.031 62.7534 227.859 63.295 227.859 63.9981C227.859 64.7083 228.031 65.2571 228.375 65.6445C228.72 66.0319 229.171 66.2256 229.731 66.2256C230.162 66.2256 230.52 66.1252 230.807 65.9243C231.094 65.7235 231.291 65.4365 231.399 65.0635H232.454C232.296 65.6661 231.98 66.1503 231.507 66.5162C231.033 66.8749 230.441 67.0542 229.731 67.0542C229.171 67.0542 228.673 66.9287 228.235 66.6776C227.805 66.4265 227.468 66.0714 227.224 65.6123C226.98 65.1531 226.858 64.6151 226.858 63.9981Z" fill="black"/>
<g filter="url(#filter3_b_490_533)">
<rect x="274.662" width="44.479" height="44.479" rx="22.2395" fill="white"/>
<rect x="283.034" y="8.37268" width="27.734" height="27.734" rx="13.867" fill="#044BD9" fill-opacity="0.04"/>
<g clip-path="url(#clip3_490_533)">
<path d="M298.368 17.9641L298.098 18.2641V18.2641L298.368 17.9641ZM300.498 19.8811L300.228 20.1811V20.1811L300.498 19.8811ZM301.737 21.2465L301.368 21.4106L301.368 21.4106L301.737 21.2465ZM291.792 26.9898L292.077 26.7045L292.077 26.7045L291.792 26.9898ZM301.292 26.9898L301.007 26.7045L301.007 26.7045L301.292 26.9898ZM297.618 27.2166H295.466V28.0237H297.618V27.2166ZM291.565 23.3158V21.1636H290.758V23.3158H291.565ZM301.519 23.0806V23.3158H302.326V23.0806H301.519ZM298.098 18.2641L300.228 20.1811L300.768 19.5812L298.638 17.6642L298.098 18.2641ZM302.326 23.0806C302.326 22.1722 302.334 21.597 302.105 21.0823L301.368 21.4106C301.511 21.732 301.519 22.1009 301.519 23.0806H302.326ZM300.228 20.1811C300.956 20.8365 301.225 21.0893 301.368 21.4106L302.105 21.0823C301.876 20.5676 301.443 20.1889 300.768 19.5812L300.228 20.1811ZM295.482 17.2627C296.333 17.2627 296.654 17.2689 296.941 17.3787L297.23 16.6252C296.771 16.4494 296.272 16.4556 295.482 16.4556V17.2627ZM298.638 17.6642C298.053 17.1383 297.688 16.8011 297.23 16.6252L296.941 17.3787C297.227 17.4886 297.468 17.6976 298.098 18.2641L298.638 17.6642ZM295.466 27.2166C294.44 27.2166 293.711 27.2158 293.158 27.1415C292.617 27.0687 292.305 26.9322 292.077 26.7045L291.507 27.2752C291.909 27.6778 292.42 27.8565 293.051 27.9413C293.67 28.0246 294.463 28.0237 295.466 28.0237V27.2166ZM290.758 23.3158C290.758 24.3189 290.757 25.1119 290.84 25.7311C290.925 26.3619 291.104 26.8725 291.507 27.2752L292.077 26.7045C291.85 26.4768 291.713 26.1649 291.64 25.6236C291.566 25.0706 291.565 24.3417 291.565 23.3158H290.758ZM297.618 28.0237C298.621 28.0237 299.414 28.0246 300.034 27.9413C300.664 27.8565 301.175 27.6778 301.578 27.2752L301.007 26.7045C300.779 26.9322 300.467 27.0687 299.926 27.1415C299.373 27.2158 298.644 27.2166 297.618 27.2166V28.0237ZM301.519 23.3158C301.519 24.3417 301.518 25.0706 301.444 25.6236C301.371 26.1649 301.235 26.4768 301.007 26.7045L301.578 27.2752C301.98 26.8725 302.159 26.3619 302.244 25.7311C302.327 25.1119 302.326 24.3189 302.326 23.3158H301.519ZM291.565 21.1636C291.565 20.1376 291.566 19.4087 291.64 18.8558C291.713 18.3144 291.85 18.0026 292.077 17.7748L291.507 17.2042C291.104 17.6068 290.925 18.1174 290.84 18.7482C290.757 19.3674 290.758 20.1604 290.758 21.1636H291.565ZM295.482 16.4556C294.474 16.4556 293.677 16.4547 293.055 16.538C292.422 16.6227 291.91 16.8012 291.507 17.2042L292.077 17.7748C292.305 17.5475 292.618 17.4108 293.162 17.3379C293.718 17.2635 294.451 17.2627 295.482 17.2627V16.4556Z" fill="#044BD9"/>
<path d="M297.08 17.1278V18.4729C297.08 19.7411 297.08 20.3752 297.474 20.7692C297.868 21.1632 298.502 21.1632 299.77 21.1632H301.923" stroke="#044BD9" stroke-width="0.807079"/>
<path d="M293.314 25.4678L294.928 23.8536M294.928 25.4678L293.314 23.8536" stroke="#044BD9" stroke-width="0.807079" stroke-linecap="round"/>
</g>
<rect x="274.923" y="0.261641" width="43.9558" height="43.9558" rx="21.9779" stroke="#E7EAEC" stroke-width="0.523283"/>
</g>
<path d="M285.279 66.1611H287.905V66.9574H284.3V59.4569H285.279V66.1611ZM288.579 63.9873C288.579 63.3847 288.701 62.8574 288.945 62.4055C289.188 61.9463 289.522 61.5912 289.945 61.3401C290.376 61.089 290.853 60.9635 291.377 60.9635C291.893 60.9635 292.341 61.0747 292.722 61.2971C293.102 61.5195 293.385 61.7993 293.572 62.1364V61.0603H294.562V66.9574H293.572V65.8598C293.378 66.2041 293.088 66.4911 292.7 66.7207C292.32 66.943 291.875 67.0542 291.366 67.0542C290.842 67.0542 290.369 66.9251 289.945 66.6668C289.522 66.4086 289.188 66.0463 288.945 65.58C288.701 65.1137 288.579 64.5828 288.579 63.9873ZM293.572 63.9981C293.572 63.5533 293.482 63.1659 293.303 62.8359C293.123 62.5059 292.88 62.2548 292.571 62.0826C292.27 61.9033 291.936 61.8136 291.57 61.8136C291.204 61.8136 290.871 61.8997 290.569 62.0719C290.268 62.2441 290.028 62.4951 289.849 62.8252C289.669 63.1552 289.579 63.5426 289.579 63.9873C289.579 64.4393 289.669 64.8339 289.849 65.1711C290.028 65.5011 290.268 65.7557 290.569 65.9351C290.871 66.1073 291.204 66.1934 291.57 66.1934C291.936 66.1934 292.27 66.1073 292.571 65.9351C292.88 65.7557 293.123 65.5011 293.303 65.1711C293.482 64.8339 293.572 64.4429 293.572 63.9981ZM295.851 63.9981C295.851 63.3883 295.973 62.8574 296.217 62.4055C296.461 61.9463 296.798 61.5912 297.228 61.3401C297.666 61.089 298.164 60.9635 298.724 60.9635C299.449 60.9635 300.044 61.1393 300.51 61.4908C300.984 61.8423 301.296 62.3301 301.447 62.9543H300.392C300.292 62.5956 300.094 62.3122 299.8 62.1042C299.513 61.8961 299.154 61.7921 298.724 61.7921C298.164 61.7921 297.712 61.9858 297.368 62.3732C297.024 62.7534 296.852 63.295 296.852 63.9981C296.852 64.7083 297.024 65.2571 297.368 65.6445C297.712 66.0319 298.164 66.2256 298.724 66.2256C299.154 66.2256 299.513 66.1252 299.8 65.9243C300.087 65.7235 300.284 65.4365 300.392 65.0635H301.447C301.289 65.6661 300.973 66.1503 300.5 66.5162C300.026 66.8749 299.434 67.0542 298.724 67.0542C298.164 67.0542 297.666 66.9287 297.228 66.6776C296.798 66.4265 296.461 66.0714 296.217 65.6123C295.973 65.1531 295.851 64.6151 295.851 63.9981ZM306.046 66.9574L303.732 64.3532V66.9574H302.753V58.9942H303.732V63.6753L306.003 61.0603H307.37L304.593 63.9981L307.38 66.9574H306.046ZM265.586 81.0542C265.033 81.0542 264.531 80.9287 264.079 80.6776C263.635 80.4265 263.283 80.0714 263.025 79.6123C262.774 79.146 262.648 78.6079 262.648 77.9981C262.648 77.3955 262.777 76.8646 263.036 76.4055C263.301 75.9392 263.66 75.584 264.112 75.3401C264.564 75.089 265.069 74.9635 265.629 74.9635C266.189 74.9635 266.694 75.089 267.146 75.3401C267.598 75.584 267.953 75.9356 268.212 76.3947C268.477 76.8538 268.61 77.3883 268.61 77.9981C268.61 78.6079 268.473 79.146 268.201 79.6123C267.935 80.0714 267.573 80.4265 267.114 80.6776C266.655 80.9287 266.145 81.0542 265.586 81.0542ZM265.586 80.1934C265.937 80.1934 266.267 80.1109 266.576 79.9459C266.884 79.7809 267.132 79.5334 267.318 79.2033C267.512 78.8733 267.609 78.4716 267.609 77.9981C267.609 77.5246 267.516 77.1229 267.329 76.7929C267.143 76.4629 266.899 76.2189 266.597 76.0611C266.296 75.8961 265.97 75.8136 265.618 75.8136C265.259 75.8136 264.929 75.8961 264.628 76.0611C264.334 76.2189 264.097 76.4629 263.918 76.7929C263.739 77.1229 263.649 77.5246 263.649 77.9981C263.649 78.4788 263.735 78.8841 263.907 79.2141C264.087 79.5441 264.323 79.7916 264.617 79.9566C264.912 80.1144 265.234 80.1934 265.586 80.1934ZM272.297 75.8674H271.059V80.9574H270.08V75.8674H269.316V75.0603H270.08V74.6407C270.08 73.9806 270.249 73.5 270.586 73.1987C270.93 72.8902 271.479 72.7359 272.232 72.7359V73.5538C271.802 73.5538 271.497 73.6399 271.318 73.8121C271.146 73.9771 271.059 74.2533 271.059 74.6407V75.0603H272.297V75.8674ZM275.942 77.9873C275.942 77.3847 276.064 76.8574 276.308 76.4055C276.552 75.9463 276.885 75.5912 277.308 75.3401C277.739 75.089 278.22 74.9635 278.75 74.9635C279.21 74.9635 279.636 75.0711 280.031 75.2863C280.426 75.4944 280.727 75.7706 280.935 76.1149V72.9942H281.925V80.9574H280.935V79.849C280.741 80.2005 280.454 80.4911 280.074 80.7207C279.694 80.943 279.249 81.0542 278.74 81.0542C278.216 81.0542 277.739 80.9251 277.308 80.6668C276.885 80.4086 276.552 80.0463 276.308 79.58C276.064 79.1137 275.942 78.5828 275.942 77.9873ZM280.935 77.9981C280.935 77.5533 280.845 77.1659 280.666 76.8359C280.487 76.5059 280.243 76.2548 279.934 76.0826C279.633 75.9033 279.299 75.8136 278.933 75.8136C278.568 75.8136 278.234 75.8997 277.933 76.0719C277.631 76.2441 277.391 76.4951 277.212 76.8252C277.032 77.1552 276.943 77.5426 276.943 77.9873C276.943 78.4393 277.032 78.8339 277.212 79.1711C277.391 79.5011 277.631 79.7557 277.933 79.9351C278.234 80.1073 278.568 80.1934 278.933 80.1934C279.299 80.1934 279.633 80.1073 279.934 79.9351C280.243 79.7557 280.487 79.5011 280.666 79.1711C280.845 78.8339 280.935 78.4429 280.935 77.9981ZM286.152 81.0542C285.599 81.0542 285.097 80.9287 284.645 80.6776C284.2 80.4265 283.849 80.0714 283.591 79.6123C283.339 79.146 283.214 78.6079 283.214 77.9981C283.214 77.3955 283.343 76.8646 283.601 76.4055C283.867 75.9392 284.225 75.584 284.677 75.3401C285.129 75.089 285.635 74.9635 286.195 74.9635C286.754 74.9635 287.26 75.089 287.712 75.3401C288.164 75.584 288.519 75.9356 288.777 76.3947C289.043 76.8538 289.176 77.3883 289.176 77.9981C289.176 78.6079 289.039 79.146 288.767 79.6123C288.501 80.0714 288.139 80.4265 287.68 80.6776C287.221 80.9287 286.711 81.0542 286.152 81.0542ZM286.152 80.1934C286.503 80.1934 286.833 80.1109 287.142 79.9459C287.45 79.7809 287.698 79.5334 287.884 79.2033C288.078 78.8733 288.175 78.4716 288.175 77.9981C288.175 77.5246 288.082 77.1229 287.895 76.7929C287.708 76.4629 287.465 76.2189 287.163 76.0611C286.862 75.8961 286.536 75.8136 286.184 75.8136C285.825 75.8136 285.495 75.8961 285.194 76.0611C284.9 76.2189 284.663 76.4629 284.484 76.7929C284.304 77.1229 284.215 77.5246 284.215 77.9981C284.215 78.4788 284.301 78.8841 284.473 79.2141C284.652 79.5441 284.889 79.7916 285.183 79.9566C285.477 80.1144 285.8 80.1934 286.152 80.1934ZM290.097 77.9981C290.097 77.3883 290.219 76.8574 290.463 76.4055C290.707 75.9463 291.044 75.5912 291.475 75.3401C291.912 75.089 292.411 74.9635 292.97 74.9635C293.695 74.9635 294.29 75.1393 294.757 75.4908C295.23 75.8423 295.542 76.3301 295.693 76.9543H294.638C294.538 76.5956 294.341 76.3122 294.047 76.1042C293.76 75.8961 293.401 75.7921 292.97 75.7921C292.411 75.7921 291.959 75.9858 291.615 76.3732C291.27 76.7534 291.098 77.295 291.098 77.9981C291.098 78.7083 291.27 79.2571 291.615 79.6445C291.959 80.0319 292.411 80.2256 292.97 80.2256C293.401 80.2256 293.76 80.1252 294.047 79.9243C294.333 79.7235 294.531 79.4365 294.638 79.0635H295.693C295.535 79.6661 295.219 80.1503 294.746 80.5162C294.273 80.8749 293.681 81.0542 292.97 81.0542C292.411 81.0542 291.912 80.9287 291.475 80.6776C291.044 80.4265 290.707 80.0714 290.463 79.6123C290.219 79.1531 290.097 78.6151 290.097 77.9981ZM302.229 75.0603V80.9574H301.25V80.0858C301.064 80.3871 300.802 80.6238 300.465 80.796C300.135 80.961 299.769 81.0435 299.367 81.0435C298.908 81.0435 298.495 80.9502 298.13 80.7637C297.764 80.57 297.473 80.283 297.258 79.9028C297.05 79.5226 296.946 79.0599 296.946 78.5146V75.0603H297.914V78.3855C297.914 78.9666 298.061 79.415 298.355 79.7306C298.65 80.0391 299.051 80.1934 299.561 80.1934C300.084 80.1934 300.497 80.0319 300.798 79.7091C301.1 79.3863 301.25 78.9164 301.25 78.2994V75.0603H302.229ZM310.974 74.9527C311.434 74.9527 311.842 75.0496 312.201 75.2433C312.56 75.4298 312.843 75.7132 313.051 76.0934C313.259 76.4736 313.363 76.9363 313.363 77.4816V80.9574H312.395V77.6215C312.395 77.0332 312.248 76.5848 311.954 76.2763C311.667 75.9607 311.276 75.8028 310.781 75.8028C310.271 75.8028 309.866 75.9679 309.565 76.2979C309.263 76.6207 309.113 77.0906 309.113 77.7076V80.9574H308.144V77.6215C308.144 77.0332 307.997 76.5848 307.703 76.2763C307.416 75.9607 307.025 75.8028 306.53 75.8028C306.021 75.8028 305.615 75.9679 305.314 76.2979C305.013 76.6207 304.862 77.0906 304.862 77.7076V80.9574H303.883V75.0603H304.862V75.9105C305.056 75.602 305.314 75.3652 305.637 75.2002C305.967 75.0352 306.329 74.9527 306.724 74.9527C307.219 74.9527 307.656 75.0639 308.037 75.2863C308.417 75.5087 308.7 75.8351 308.887 76.2656C309.052 75.8495 309.324 75.5266 309.705 75.2971C310.085 75.0675 310.508 74.9527 310.974 74.9527ZM320.35 77.7829C320.35 77.9694 320.34 78.1667 320.318 78.3747H315.605C315.641 78.9558 315.838 79.4114 316.196 79.7414C316.562 80.0642 317.004 80.2256 317.52 80.2256C317.943 80.2256 318.295 80.1288 318.575 79.9351C318.862 79.7342 319.063 79.4688 319.177 79.1388H320.232C320.074 79.7055 319.758 80.1683 319.285 80.527C318.811 80.8785 318.223 81.0542 317.52 81.0542C316.961 81.0542 316.458 80.9287 316.014 80.6776C315.576 80.4265 315.232 80.0714 314.98 79.6123C314.729 79.146 314.604 78.6079 314.604 77.9981C314.604 77.3883 314.726 76.8538 314.97 76.3947C315.214 75.9356 315.554 75.584 315.992 75.3401C316.437 75.089 316.946 74.9635 317.52 74.9635C318.08 74.9635 318.575 75.0854 319.005 75.3294C319.436 75.5733 319.766 75.9105 319.995 76.3409C320.232 76.7642 320.35 77.2448 320.35 77.7829ZM319.339 77.5784C319.339 77.2054 319.256 76.8861 319.091 76.6207C318.926 76.3481 318.7 76.1436 318.413 76.0073C318.133 75.8638 317.821 75.7921 317.477 75.7921C316.982 75.7921 316.559 75.9499 316.207 76.2656C315.863 76.5812 315.666 77.0188 315.615 77.5784H319.339ZM324.516 74.9527C325.233 74.9527 325.815 75.1715 326.259 75.6092C326.704 76.0396 326.927 76.6637 326.927 77.4816V80.9574H325.958V77.6215C325.958 77.0332 325.811 76.5848 325.517 76.2763C325.223 75.9607 324.821 75.8028 324.312 75.8028C323.795 75.8028 323.383 75.9643 323.074 76.2871C322.773 76.6099 322.622 77.0798 322.622 77.6968V80.9574H321.643V75.0603H322.622V75.8997C322.816 75.5984 323.078 75.3652 323.408 75.2002C323.745 75.0352 324.114 74.9527 324.516 74.9527ZM329.721 75.8674V79.3432C329.721 79.6302 329.782 79.8347 329.904 79.9566C330.026 80.0714 330.237 80.1288 330.538 80.1288H331.259V80.9574H330.377C329.832 80.9574 329.423 80.8319 329.15 80.5808C328.878 80.3297 328.741 79.9172 328.741 79.3432V75.8674H327.977V75.0603H328.741V73.5753H329.721V75.0603H331.259V75.8674H329.721Z" fill="black"/>
<g filter="url(#filter4_b_490_533)">
<rect x="368.728" width="44.479" height="44.479" rx="22.2395" fill="white"/>
<rect x="377.101" y="8.37256" width="27.734" height="27.734" rx="13.867" fill="#044BD9" fill-opacity="0.04"/>
<g clip-path="url(#clip4_490_533)">
<path d="M390.609 19.549V22.7773" stroke="#044BD9" stroke-width="0.807079" stroke-linecap="round"/>
<circle cx="390.608" cy="24.3916" r="0.538054" fill="#044BD9"/>
<path d="M388.372 17.8286C389.464 17.1822 390.01 16.859 390.609 16.859C391.208 16.859 391.754 17.1822 392.846 17.8286L393.215 18.0473C394.306 18.6937 394.852 19.0169 395.152 19.5493C395.452 20.0816 395.452 20.7281 395.452 22.0209V22.4582C395.452 23.751 395.452 24.3974 395.152 24.9298C394.852 25.4622 394.306 25.7854 393.215 26.4318L392.846 26.6504C391.754 27.2969 391.208 27.6201 390.609 27.6201C390.01 27.6201 389.464 27.2969 388.372 26.6504L388.003 26.4318C386.912 25.7854 386.366 25.4622 386.066 24.9298C385.767 24.3974 385.767 23.751 385.767 22.4582V22.0209C385.767 20.7281 385.767 20.0816 386.066 19.5493C386.366 19.0169 386.912 18.6937 388.003 18.0473L388.372 17.8286Z" stroke="#044BD9" stroke-width="0.807079"/>
</g>
<rect x="368.99" y="0.261641" width="43.9558" height="43.9558" rx="21.9779" stroke="#E7EAEC" stroke-width="0.523283"/>
</g>
<path d="M377.987 59.5107V66.9574H377.008V61.4047L374.533 66.9574H373.844L371.359 61.3939V66.9574H370.379V59.5107H371.434L374.189 65.6661L376.944 59.5107H377.987ZM380.154 60.1026C379.967 60.1026 379.81 60.038 379.68 59.9089C379.551 59.7798 379.487 59.6219 379.487 59.4354C379.487 59.2489 379.551 59.0911 379.68 58.9619C379.81 58.8328 379.967 58.7682 380.154 58.7682C380.333 58.7682 380.484 58.8328 380.606 58.9619C380.735 59.0911 380.8 59.2489 380.8 59.4354C380.8 59.6219 380.735 59.7798 380.606 59.9089C380.484 60.038 380.333 60.1026 380.154 60.1026ZM380.627 61.0603V66.9574H379.648V61.0603H380.627ZM384.384 67.0542C383.932 67.0542 383.527 66.9789 383.168 66.8283C382.809 66.6704 382.526 66.4552 382.318 66.1826C382.11 65.9028 381.995 65.5836 381.974 65.2249H382.985C383.014 65.519 383.15 65.7593 383.394 65.9459C383.645 66.1324 383.972 66.2256 384.373 66.2256C384.746 66.2256 385.04 66.1431 385.256 65.9781C385.471 65.8131 385.579 65.6051 385.579 65.354C385.579 65.0957 385.464 64.9056 385.234 64.7837C385.005 64.6545 384.649 64.529 384.169 64.407C383.731 64.2922 383.372 64.1775 383.093 64.0627C382.82 63.9407 382.583 63.7649 382.382 63.5354C382.189 63.2986 382.092 62.9902 382.092 62.6099C382.092 62.3086 382.182 62.0324 382.361 61.7813C382.54 61.5302 382.795 61.3329 383.125 61.1895C383.455 61.0388 383.832 60.9635 384.255 60.9635C384.908 60.9635 385.435 61.1285 385.837 61.4585C386.239 61.7885 386.454 62.2405 386.482 62.8144H385.503C385.482 62.5059 385.356 62.2584 385.127 62.0719C384.904 61.8854 384.603 61.7921 384.223 61.7921C383.871 61.7921 383.591 61.8674 383.383 62.0181C383.175 62.1687 383.071 62.366 383.071 62.6099C383.071 62.8036 383.132 62.965 383.254 63.0942C383.383 63.2161 383.541 63.3166 383.728 63.3955C383.921 63.4672 384.187 63.5497 384.524 63.643C384.947 63.7578 385.292 63.8726 385.557 63.9873C385.822 64.095 386.048 64.26 386.235 64.4824C386.429 64.7047 386.529 64.9953 386.536 65.354C386.536 65.6768 386.447 65.9674 386.267 66.2256C386.088 66.4839 385.833 66.6884 385.503 66.839C385.18 66.9825 384.807 67.0542 384.384 67.0542ZM390.006 67.0542C389.554 67.0542 389.149 66.9789 388.79 66.8283C388.432 66.6704 388.148 66.4552 387.94 66.1826C387.732 65.9028 387.617 65.5836 387.596 65.2249H388.607C388.636 65.519 388.772 65.7593 389.016 65.9459C389.267 66.1324 389.594 66.2256 389.995 66.2256C390.369 66.2256 390.663 66.1431 390.878 65.9781C391.093 65.8131 391.201 65.6051 391.201 65.354C391.201 65.0957 391.086 64.9056 390.856 64.7837C390.627 64.6545 390.272 64.529 389.791 64.407C389.353 64.2922 388.995 64.1775 388.715 64.0627C388.442 63.9407 388.206 63.7649 388.005 63.5354C387.811 63.2986 387.714 62.9902 387.714 62.6099C387.714 62.3086 387.804 62.0324 387.983 61.7813C388.163 61.5302 388.417 61.3329 388.747 61.1895C389.077 61.0388 389.454 60.9635 389.877 60.9635C390.53 60.9635 391.057 61.1285 391.459 61.4585C391.861 61.7885 392.076 62.2405 392.105 62.8144H391.125C391.104 62.5059 390.978 62.2584 390.749 62.0719C390.526 61.8854 390.225 61.7921 389.845 61.7921C389.493 61.7921 389.214 61.8674 389.005 62.0181C388.797 62.1687 388.693 62.366 388.693 62.6099C388.693 62.8036 388.754 62.965 388.876 63.0942C389.005 63.2161 389.163 63.3166 389.35 63.3955C389.544 63.4672 389.809 63.5497 390.146 63.643C390.569 63.7578 390.914 63.8726 391.179 63.9873C391.445 64.095 391.671 64.26 391.857 64.4824C392.051 64.7047 392.151 64.9953 392.158 65.354C392.158 65.6768 392.069 65.9674 391.889 66.2256C391.71 66.4839 391.455 66.6884 391.125 66.839C390.803 66.9825 390.43 67.0542 390.006 67.0542ZM394.047 60.1026C393.86 60.1026 393.702 60.038 393.573 59.9089C393.444 59.7798 393.379 59.6219 393.379 59.4354C393.379 59.2489 393.444 59.0911 393.573 58.9619C393.702 58.8328 393.86 58.7682 394.047 58.7682C394.226 58.7682 394.377 58.8328 394.499 58.9619C394.628 59.0911 394.692 59.2489 394.692 59.4354C394.692 59.6219 394.628 59.7798 394.499 59.9089C394.377 60.038 394.226 60.1026 394.047 60.1026ZM394.52 61.0603V66.9574H393.541V61.0603H394.52ZM399.062 60.9527C399.78 60.9527 400.361 61.1715 400.806 61.6092C401.25 62.0396 401.473 62.6637 401.473 63.4816V66.9574H400.504V63.6215C400.504 63.0332 400.357 62.5848 400.063 62.2763C399.769 61.9607 399.367 61.8028 398.858 61.8028C398.341 61.8028 397.929 61.9643 397.62 62.2871C397.319 62.6099 397.168 63.0798 397.168 63.6968V66.9574H396.189V61.0603H397.168V61.8997C397.362 61.5984 397.624 61.3652 397.954 61.2002C398.291 61.0352 398.661 60.9527 399.062 60.9527ZM405.504 60.9635C406.014 60.9635 406.459 61.0747 406.839 61.2971C407.226 61.5195 407.513 61.7993 407.7 62.1364V61.0603H408.69V67.0865C408.69 67.6246 408.575 68.1017 408.345 68.5178C408.116 68.941 407.786 69.271 407.355 69.5078C406.932 69.7445 406.437 69.8629 405.87 69.8629C405.095 69.8629 404.45 69.6799 403.933 69.3141C403.417 68.9482 403.112 68.4496 403.019 67.8183H403.987C404.095 68.177 404.317 68.4639 404.654 68.6792C404.991 68.9016 405.397 69.0128 405.87 69.0128C406.408 69.0128 406.846 68.8442 407.183 68.507C407.527 68.1698 407.7 67.6963 407.7 67.0865V65.849C407.506 66.1934 407.219 66.4803 406.839 66.7099C406.459 66.9395 406.014 67.0542 405.504 67.0542C404.981 67.0542 404.504 66.9251 404.073 66.6668C403.65 66.4086 403.316 66.0463 403.072 65.58C402.828 65.1137 402.706 64.5828 402.706 63.9873C402.706 63.3847 402.828 62.8574 403.072 62.4055C403.316 61.9463 403.65 61.5912 404.073 61.3401C404.504 61.089 404.981 60.9635 405.504 60.9635ZM407.7 63.9981C407.7 63.5533 407.61 63.1659 407.431 62.8359C407.251 62.5059 407.007 62.2548 406.699 62.0826C406.398 61.9033 406.064 61.8136 405.698 61.8136C405.332 61.8136 404.999 61.8997 404.697 62.0719C404.396 62.2441 404.156 62.4951 403.976 62.8252C403.797 63.1552 403.707 63.5426 403.707 63.9873C403.707 64.4393 403.797 64.8339 403.976 65.1711C404.156 65.5011 404.396 65.7557 404.697 65.9351C404.999 66.1073 405.332 66.1934 405.698 66.1934C406.064 66.1934 406.398 66.1073 406.699 65.9351C407.007 65.7557 407.251 65.5011 407.431 65.1711C407.61 64.8339 407.7 64.4429 407.7 63.9981ZM360.97 74.1026C360.783 74.1026 360.626 74.038 360.497 73.9089C360.367 73.7798 360.303 73.6219 360.303 73.4354C360.303 73.2489 360.367 73.0911 360.497 72.9619C360.626 72.8328 360.783 72.7682 360.97 72.7682C361.149 72.7682 361.3 72.8328 361.422 72.9619C361.551 73.0911 361.616 73.2489 361.616 73.4354C361.616 73.6219 361.551 73.7798 361.422 73.9089C361.3 74.038 361.149 74.1026 360.97 74.1026ZM361.444 75.0603V80.9574H360.464V75.0603H361.444ZM365.986 74.9527C366.703 74.9527 367.284 75.1715 367.729 75.6092C368.174 76.0396 368.396 76.6637 368.396 77.4816V80.9574H367.428V77.6215C367.428 77.0332 367.281 76.5848 366.986 76.2763C366.692 75.9607 366.291 75.8028 365.781 75.8028C365.265 75.8028 364.852 75.9643 364.544 76.2871C364.242 76.6099 364.092 77.0798 364.092 77.6968V80.9574H363.112V75.0603H364.092V75.8997C364.285 75.5984 364.547 75.3652 364.877 75.2002C365.214 75.0352 365.584 74.9527 365.986 74.9527ZM372.395 75.8674H371.158V80.9574H370.179V75.8674H369.415V75.0603H370.179V74.6407C370.179 73.9806 370.347 73.5 370.684 73.1987C371.029 72.8902 371.578 72.7359 372.331 72.7359V73.5538C371.9 73.5538 371.596 73.6399 371.416 73.8121C371.244 73.9771 371.158 74.2533 371.158 74.6407V75.0603H372.395V75.8674ZM376.109 81.0542C375.557 81.0542 375.055 80.9287 374.603 80.6776C374.158 80.4265 373.806 80.0714 373.548 79.6123C373.297 79.146 373.171 78.6079 373.171 77.9981C373.171 77.3955 373.301 76.8646 373.559 76.4055C373.824 75.9392 374.183 75.584 374.635 75.3401C375.087 75.089 375.593 74.9635 376.152 74.9635C376.712 74.9635 377.218 75.089 377.669 75.3401C378.121 75.584 378.477 75.9356 378.735 76.3947C379 76.8538 379.133 77.3883 379.133 77.9981C379.133 78.6079 378.997 79.146 378.724 79.6123C378.459 80.0714 378.096 80.4265 377.637 80.6776C377.178 80.9287 376.669 81.0542 376.109 81.0542ZM376.109 80.1934C376.461 80.1934 376.791 80.1109 377.099 79.9459C377.408 79.7809 377.655 79.5334 377.842 79.2033C378.035 78.8733 378.132 78.4716 378.132 77.9981C378.132 77.5246 378.039 77.1229 377.852 76.7929C377.666 76.4629 377.422 76.2189 377.121 76.0611C376.819 75.8961 376.493 75.8136 376.141 75.8136C375.783 75.8136 375.453 75.8961 375.151 76.0611C374.857 76.2189 374.621 76.4629 374.441 76.7929C374.262 77.1229 374.172 77.5246 374.172 77.9981C374.172 78.4788 374.258 78.8841 374.43 79.2141C374.61 79.5441 374.847 79.7916 375.141 79.9566C375.435 80.1144 375.758 80.1934 376.109 80.1934ZM381.4 76.0181C381.572 75.6809 381.816 75.419 382.132 75.2325C382.454 75.046 382.845 74.9527 383.305 74.9527V75.9643H383.046C381.949 75.9643 381.4 76.5597 381.4 77.7506V80.9574H380.421V75.0603H381.4V76.0181ZM391.526 74.9527C391.986 74.9527 392.395 75.0496 392.753 75.2433C393.112 75.4298 393.395 75.7132 393.603 76.0934C393.811 76.4736 393.915 76.9363 393.915 77.4816V80.9574H392.947V77.6215C392.947 77.0332 392.8 76.5848 392.506 76.2763C392.219 75.9607 391.828 75.8028 391.333 75.8028C390.823 75.8028 390.418 75.9679 390.117 76.2979C389.815 76.6207 389.665 77.0906 389.665 77.7076V80.9574H388.696V77.6215C388.696 77.0332 388.549 76.5848 388.255 76.2763C387.968 75.9607 387.577 75.8028 387.082 75.8028C386.573 75.8028 386.167 75.9679 385.866 76.2979C385.565 76.6207 385.414 77.0906 385.414 77.7076V80.9574H384.435V75.0603H385.414V75.9105C385.608 75.602 385.866 75.3652 386.189 75.2002C386.519 75.0352 386.881 74.9527 387.276 74.9527C387.771 74.9527 388.208 75.0639 388.589 75.2863C388.969 75.5087 389.252 75.8351 389.439 76.2656C389.604 75.8495 389.876 75.5266 390.257 75.2971C390.637 75.0675 391.06 74.9527 391.526 74.9527ZM395.156 77.9873C395.156 77.3847 395.278 76.8574 395.522 76.4055C395.766 75.9463 396.099 75.5912 396.523 75.3401C396.953 75.089 397.43 74.9635 397.954 74.9635C398.47 74.9635 398.919 75.0747 399.299 75.2971C399.679 75.5195 399.962 75.7993 400.149 76.1364V75.0603H401.139V80.9574H400.149V79.8598C399.955 80.2041 399.665 80.4911 399.277 80.7207C398.897 80.943 398.452 81.0542 397.943 81.0542C397.419 81.0542 396.946 80.9251 396.523 80.6668C396.099 80.4086 395.766 80.0463 395.522 79.58C395.278 79.1137 395.156 78.5828 395.156 77.9873ZM400.149 77.9981C400.149 77.5533 400.059 77.1659 399.88 76.8359C399.701 76.5059 399.457 76.2548 399.148 76.0826C398.847 75.9033 398.513 75.8136 398.147 75.8136C397.782 75.8136 397.448 75.8997 397.147 76.0719C396.845 76.2441 396.605 76.4951 396.426 76.8252C396.246 77.1552 396.157 77.5426 396.157 77.9873C396.157 78.4393 396.246 78.8339 396.426 79.1711C396.605 79.5011 396.845 79.7557 397.147 79.9351C397.448 80.1073 397.782 80.1934 398.147 80.1934C398.513 80.1934 398.847 80.1073 399.148 79.9351C399.457 79.7557 399.701 79.5011 399.88 79.1711C400.059 78.8339 400.149 78.4429 400.149 77.9981ZM403.988 75.8674V79.3432C403.988 79.6302 404.049 79.8347 404.171 79.9566C404.293 80.0714 404.505 80.1288 404.806 80.1288H405.527V80.9574H404.645C404.1 80.9574 403.691 80.8319 403.418 80.5808C403.145 80.3297 403.009 79.9172 403.009 79.3432V75.8674H402.245V75.0603H403.009V73.5753H403.988V75.0603H405.527V75.8674H403.988ZM407.219 74.1026C407.033 74.1026 406.875 74.038 406.746 73.9089C406.617 73.7798 406.552 73.6219 406.552 73.4354C406.552 73.2489 406.617 73.0911 406.746 72.9619C406.875 72.8328 407.033 72.7682 407.219 72.7682C407.399 72.7682 407.549 72.8328 407.671 72.9619C407.801 73.0911 407.865 73.2489 407.865 73.4354C407.865 73.6219 407.801 73.7798 407.671 73.9089C407.549 74.038 407.399 74.1026 407.219 74.1026ZM407.693 75.0603V80.9574H406.714V75.0603H407.693ZM411.934 81.0542C411.381 81.0542 410.879 80.9287 410.427 80.6776C409.982 80.4265 409.631 80.0714 409.373 79.6123C409.122 79.146 408.996 78.6079 408.996 77.9981C408.996 77.3955 409.125 76.8646 409.383 76.4055C409.649 75.9392 410.008 75.584 410.46 75.3401C410.912 75.089 411.417 74.9635 411.977 74.9635C412.536 74.9635 413.042 75.089 413.494 75.3401C413.946 75.584 414.301 75.9356 414.56 76.3947C414.825 76.8538 414.958 77.3883 414.958 77.9981C414.958 78.6079 414.821 79.146 414.549 79.6123C414.283 80.0714 413.921 80.4265 413.462 80.6776C413.003 80.9287 412.493 81.0542 411.934 81.0542ZM411.934 80.1934C412.285 80.1934 412.615 80.1109 412.924 79.9459C413.232 79.7809 413.48 79.5334 413.666 79.2033C413.86 78.8733 413.957 78.4716 413.957 77.9981C413.957 77.5246 413.864 77.1229 413.677 76.7929C413.491 76.4629 413.247 76.2189 412.945 76.0611C412.644 75.8961 412.318 75.8136 411.966 75.8136C411.607 75.8136 411.277 75.8961 410.976 76.0611C410.682 76.2189 410.445 76.4629 410.266 76.7929C410.086 77.1229 409.997 77.5246 409.997 77.9981C409.997 78.4788 410.083 78.8841 410.255 79.2141C410.434 79.5441 410.671 79.7916 410.965 79.9566C411.259 80.1144 411.582 80.1934 411.934 80.1934ZM419.118 74.9527C419.836 74.9527 420.417 75.1715 420.862 75.6092C421.306 76.0396 421.529 76.6637 421.529 77.4816V80.9574H420.56V77.6215C420.56 77.0332 420.413 76.5848 420.119 76.2763C419.825 75.9607 419.423 75.8028 418.914 75.8028C418.397 75.8028 417.985 75.9643 417.676 76.2871C417.375 76.6099 417.224 77.0798 417.224 77.6968V80.9574H416.245V75.0603H417.224V75.8997C417.418 75.5984 417.68 75.3652 418.01 75.2002C418.347 75.0352 418.717 74.9527 419.118 74.9527Z" fill="black"/>
<g filter="url(#filter5_b_490_533)">
<rect x="458.622" width="44.479" height="44.479" rx="22.2395" fill="white"/>
<rect x="466.994" y="8.37256" width="27.734" height="27.734" rx="13.867" fill="#044BD9" fill-opacity="0.04"/>
<g clip-path="url(#clip5_490_533)">
<path d="M485.883 21.4325V22.2395C485.883 24.7759 485.883 26.0441 485.095 26.8321C484.307 27.6201 483.039 27.6201 480.503 27.6201C477.966 27.6201 476.698 27.6201 475.91 26.8321C475.122 26.0441 475.122 24.7759 475.122 22.2395C475.122 19.7031 475.122 18.4349 475.91 17.647C476.698 16.859 477.966 16.859 480.503 16.859H481.31" stroke="#044BD9" stroke-width="0.807079" stroke-linecap="round"/>
<path d="M477.813 23.3156H482.655" stroke="#044BD9" stroke-width="0.807079" stroke-linecap="round"/>
<path d="M477.813 25.1986H481.041" stroke="#044BD9" stroke-width="0.807079" stroke-linecap="round"/>
<path d="M485.884 16.859L483.193 19.5493M483.193 16.859L485.884 19.5493" stroke="#044BD9" stroke-width="0.807079" stroke-linecap="round"/>
</g>
<rect x="458.883" y="0.261641" width="43.9558" height="43.9558" rx="21.9779" stroke="#E7EAEC" stroke-width="0.523283"/>
</g>
<path d="M457.18 59.4569V66.9574H456.201V59.4569H457.18ZM461.722 60.9527C462.44 60.9527 463.021 61.1715 463.465 61.6092C463.91 62.0396 464.133 62.6637 464.133 63.4816V66.9574H463.164V63.6215C463.164 63.0332 463.017 62.5848 462.723 62.2763C462.429 61.9607 462.027 61.8028 461.518 61.8028C461.001 61.8028 460.589 61.9643 460.28 62.2871C459.979 62.6099 459.828 63.0798 459.828 63.6968V66.9574H458.849V61.0603H459.828V61.8997C460.022 61.5984 460.284 61.3652 460.614 61.2002C460.951 61.0352 461.32 60.9527 461.722 60.9527ZM465.366 63.9981C465.366 63.3883 465.488 62.8574 465.732 62.4055C465.976 61.9463 466.313 61.5912 466.744 61.3401C467.181 61.089 467.68 60.9635 468.24 60.9635C468.964 60.9635 469.56 61.1393 470.026 61.4908C470.499 61.8423 470.811 62.3301 470.962 62.9543H469.908C469.807 62.5956 469.61 62.3122 469.316 62.1042C469.029 61.8961 468.67 61.7921 468.24 61.7921C467.68 61.7921 467.228 61.9858 466.884 62.3732C466.539 62.7534 466.367 63.295 466.367 63.9981C466.367 64.7083 466.539 65.2571 466.884 65.6445C467.228 66.0319 467.68 66.2256 468.24 66.2256C468.67 66.2256 469.029 66.1252 469.316 65.9243C469.603 65.7235 469.8 65.4365 469.908 65.0635H470.962C470.804 65.6661 470.489 66.1503 470.015 66.5162C469.542 66.8749 468.95 67.0542 468.24 67.0542C467.68 67.0542 467.181 66.9287 466.744 66.6776C466.313 66.4265 465.976 66.0714 465.732 65.6123C465.488 65.1531 465.366 64.6151 465.366 63.9981ZM474.841 67.0542C474.288 67.0542 473.786 66.9287 473.334 66.6776C472.889 66.4265 472.538 66.0714 472.28 65.6123C472.028 65.146 471.903 64.6079 471.903 63.9981C471.903 63.3955 472.032 62.8646 472.29 62.4055C472.556 61.9392 472.914 61.584 473.366 61.3401C473.818 61.089 474.324 60.9635 474.884 60.9635C475.443 60.9635 475.949 61.089 476.401 61.3401C476.853 61.584 477.208 61.9356 477.466 62.3947C477.732 62.8538 477.864 63.3883 477.864 63.9981C477.864 64.6079 477.728 65.146 477.456 65.6123C477.19 66.0714 476.828 66.4265 476.369 66.6776C475.91 66.9287 475.4 67.0542 474.841 67.0542ZM474.841 66.1934C475.192 66.1934 475.522 66.1109 475.831 65.9459C476.139 65.7809 476.387 65.5334 476.573 65.2033C476.767 64.8733 476.864 64.4716 476.864 63.9981C476.864 63.5246 476.77 63.1229 476.584 62.7929C476.397 62.4629 476.153 62.2189 475.852 62.0611C475.551 61.8961 475.224 61.8136 474.873 61.8136C474.514 61.8136 474.184 61.8961 473.883 62.0611C473.589 62.2189 473.352 62.4629 473.173 62.7929C472.993 63.1229 472.904 63.5246 472.904 63.9981C472.904 64.4788 472.99 64.8841 473.162 65.2141C473.341 65.5441 473.578 65.7916 473.872 65.9566C474.166 66.1144 474.489 66.1934 474.841 66.1934ZM480.131 62.0181C480.303 61.6809 480.547 61.419 480.863 61.2325C481.186 61.046 481.577 60.9527 482.036 60.9527V61.9643H481.778C480.68 61.9643 480.131 62.5597 480.131 63.7506V66.9574H479.152V61.0603H480.131V62.0181ZM484.146 62.0181C484.318 61.6809 484.562 61.419 484.877 61.2325C485.2 61.046 485.591 60.9527 486.05 60.9527V61.9643H485.792C484.694 61.9643 484.146 62.5597 484.146 63.7506V66.9574H483.166V61.0603H484.146V62.0181ZM492.561 63.7829C492.561 63.9694 492.551 64.1667 492.529 64.3747H487.816C487.852 64.9558 488.049 65.4114 488.408 65.7414C488.773 66.0642 489.215 66.2256 489.731 66.2256C490.154 66.2256 490.506 66.1288 490.786 65.9351C491.073 65.7342 491.274 65.4688 491.388 65.1388H492.443C492.285 65.7055 491.969 66.1683 491.496 66.527C491.022 66.8785 490.434 67.0542 489.731 67.0542C489.172 67.0542 488.669 66.9287 488.225 66.6776C487.787 66.4265 487.443 66.0714 487.192 65.6123C486.94 65.146 486.815 64.6079 486.815 63.9981C486.815 63.3883 486.937 62.8538 487.181 62.3947C487.425 61.9356 487.765 61.584 488.203 61.3401C488.648 61.089 489.157 60.9635 489.731 60.9635C490.291 60.9635 490.786 61.0854 491.216 61.3294C491.647 61.5733 491.977 61.9105 492.206 62.3409C492.443 62.7642 492.561 63.2448 492.561 63.7829ZM491.55 63.5784C491.55 63.2054 491.467 62.8861 491.302 62.6207C491.137 62.3481 490.911 62.1436 490.624 62.0073C490.345 61.8638 490.032 61.7921 489.688 61.7921C489.193 61.7921 488.77 61.9499 488.418 62.2656C488.074 62.5812 487.877 63.0188 487.826 63.5784H491.55ZM493.488 63.9981C493.488 63.3883 493.61 62.8574 493.854 62.4055C494.098 61.9463 494.435 61.5912 494.865 61.3401C495.303 61.089 495.802 60.9635 496.361 60.9635C497.086 60.9635 497.681 61.1393 498.148 61.4908C498.621 61.8423 498.933 62.3301 499.084 62.9543H498.029C497.929 62.5956 497.731 62.3122 497.437 62.1042C497.15 61.8961 496.792 61.7921 496.361 61.7921C495.802 61.7921 495.35 61.9858 495.005 62.3732C494.661 62.7534 494.489 63.295 494.489 63.9981C494.489 64.7083 494.661 65.2571 495.005 65.6445C495.35 66.0319 495.802 66.2256 496.361 66.2256C496.792 66.2256 497.15 66.1252 497.437 65.9243C497.724 65.7235 497.922 65.4365 498.029 65.0635H499.084C498.926 65.6661 498.61 66.1503 498.137 66.5162C497.663 66.8749 497.071 67.0542 496.361 67.0542C495.802 67.0542 495.303 66.9287 494.865 66.6776C494.435 66.4265 494.098 66.0714 493.854 65.6123C493.61 65.1531 493.488 64.6151 493.488 63.9981ZM501.585 61.8674V65.3432C501.585 65.6302 501.646 65.8347 501.768 65.9566C501.89 66.0714 502.101 66.1288 502.403 66.1288H503.124V66.9574H502.241C501.696 66.9574 501.287 66.8319 501.015 66.5808C500.742 66.3297 500.606 65.9172 500.606 65.3432V61.8674H499.842V61.0603H500.606V59.5753H501.585V61.0603H503.124V61.8674H501.585ZM451.962 76.1472C452.156 75.81 452.443 75.5302 452.823 75.3078C453.211 75.0783 453.659 74.9635 454.168 74.9635C454.692 74.9635 455.166 75.089 455.589 75.3401C456.019 75.5912 456.356 75.9463 456.6 76.4055C456.844 76.8574 456.966 77.3847 456.966 77.9873C456.966 78.5828 456.844 79.1137 456.6 79.58C456.356 80.0463 456.019 80.4086 455.589 80.6668C455.166 80.9251 454.692 81.0542 454.168 81.0542C453.666 81.0542 453.221 80.943 452.834 80.7207C452.454 80.4911 452.163 80.2077 451.962 79.8705V83.7553H450.983V75.0603H451.962V76.1472ZM455.965 77.9873C455.965 77.5426 455.876 77.1552 455.696 76.8252C455.517 76.4951 455.273 76.2441 454.965 76.0719C454.663 75.8997 454.33 75.8136 453.964 75.8136C453.605 75.8136 453.272 75.9033 452.963 76.0826C452.662 76.2548 452.418 76.5095 452.231 76.8467C452.052 77.1767 451.962 77.5605 451.962 77.9981C451.962 78.4429 452.052 78.8339 452.231 79.1711C452.418 79.5011 452.662 79.7557 452.963 79.9351C453.272 80.1073 453.605 80.1934 453.964 80.1934C454.33 80.1934 454.663 80.1073 454.965 79.9351C455.273 79.7557 455.517 79.5011 455.696 79.1711C455.876 78.8339 455.965 78.4393 455.965 77.9873ZM457.889 77.9873C457.889 77.3847 458.011 76.8574 458.255 76.4055C458.499 75.9463 458.833 75.5912 459.256 75.3401C459.686 75.089 460.163 74.9635 460.687 74.9635C461.204 74.9635 461.652 75.0747 462.032 75.2971C462.413 75.5195 462.696 75.7993 462.882 76.1364V75.0603H463.872V80.9574H462.882V79.8598C462.689 80.2041 462.398 80.4911 462.011 80.7207C461.631 80.943 461.186 81.0542 460.676 81.0542C460.153 81.0542 459.679 80.9251 459.256 80.6668C458.833 80.4086 458.499 80.0463 458.255 79.58C458.011 79.1137 457.889 78.5828 457.889 77.9873ZM462.882 77.9981C462.882 77.5533 462.793 77.1659 462.613 76.8359C462.434 76.5059 462.19 76.2548 461.882 76.0826C461.58 75.9033 461.247 75.8136 460.881 75.8136C460.515 75.8136 460.181 75.8997 459.88 76.0719C459.579 76.2441 459.338 76.4951 459.159 76.8252C458.98 77.1552 458.89 77.5426 458.89 77.9873C458.89 78.4393 458.98 78.8339 459.159 79.1711C459.338 79.5011 459.579 79.7557 459.88 79.9351C460.181 80.1073 460.515 80.1934 460.881 80.1934C461.247 80.1934 461.58 80.1073 461.882 79.9351C462.19 79.7557 462.434 79.5011 462.613 79.1711C462.793 78.8339 462.882 78.4429 462.882 77.9981ZM466.722 75.8674V79.3432C466.722 79.6302 466.783 79.8347 466.905 79.9566C467.027 80.0714 467.238 80.1288 467.54 80.1288H468.261V80.9574H467.378C466.833 80.9574 466.424 80.8319 466.151 80.5808C465.879 80.3297 465.743 79.9172 465.743 79.3432V75.8674H464.979V75.0603H465.743V73.5753H466.722V75.0603H468.261V75.8674H466.722ZM469.953 74.1026C469.766 74.1026 469.609 74.038 469.479 73.9089C469.35 73.7798 469.286 73.6219 469.286 73.4354C469.286 73.2489 469.35 73.0911 469.479 72.9619C469.609 72.8328 469.766 72.7682 469.953 72.7682C470.132 72.7682 470.283 72.8328 470.405 72.9619C470.534 73.0911 470.599 73.2489 470.599 73.4354C470.599 73.6219 470.534 73.7798 470.405 73.9089C470.283 74.038 470.132 74.1026 469.953 74.1026ZM470.426 75.0603V80.9574H469.447V75.0603H470.426ZM477.476 77.7829C477.476 77.9694 477.465 78.1667 477.444 78.3747H472.73C472.766 78.9558 472.963 79.4114 473.322 79.7414C473.688 80.0642 474.129 80.2256 474.646 80.2256C475.069 80.2256 475.421 80.1288 475.7 79.9351C475.987 79.7342 476.188 79.4688 476.303 79.1388H477.358C477.2 79.7055 476.884 80.1683 476.411 80.527C475.937 80.8785 475.349 81.0542 474.646 81.0542C474.086 81.0542 473.584 80.9287 473.139 80.6776C472.702 80.4265 472.357 80.0714 472.106 79.6123C471.855 79.146 471.729 78.6079 471.729 77.9981C471.729 77.3883 471.851 76.8538 472.095 76.3947C472.339 75.9356 472.68 75.584 473.118 75.3401C473.562 75.089 474.072 74.9635 474.646 74.9635C475.205 74.9635 475.7 75.0854 476.131 75.3294C476.561 75.5733 476.891 75.9105 477.121 76.3409C477.358 76.7642 477.476 77.2448 477.476 77.7829ZM476.464 77.5784C476.464 77.2054 476.382 76.8861 476.217 76.6207C476.052 76.3481 475.826 76.1436 475.539 76.0073C475.259 75.8638 474.947 75.7921 474.603 75.7921C474.108 75.7921 473.684 75.9499 473.333 76.2656C472.989 76.5812 472.791 77.0188 472.741 77.5784H476.464ZM481.642 74.9527C482.359 74.9527 482.94 75.1715 483.385 75.6092C483.83 76.0396 484.052 76.6637 484.052 77.4816V80.9574H483.084V77.6215C483.084 77.0332 482.937 76.5848 482.642 76.2763C482.348 75.9607 481.947 75.8028 481.437 75.8028C480.921 75.8028 480.508 75.9643 480.2 76.2871C479.898 76.6099 479.748 77.0798 479.748 77.6968V80.9574H478.768V75.0603H479.748V75.8997C479.941 75.5984 480.203 75.3652 480.533 75.2002C480.87 75.0352 481.24 74.9527 481.642 74.9527ZM486.846 75.8674V79.3432C486.846 79.6302 486.907 79.8347 487.029 79.9566C487.151 80.0714 487.363 80.1288 487.664 80.1288H488.385V80.9574H487.503C486.957 80.9574 486.549 80.8319 486.276 80.5808C486.003 80.3297 485.867 79.9172 485.867 79.3432V75.8674H485.103V75.0603H485.867V73.5753H486.846V75.0603H488.385V75.8674H486.846ZM492.946 74.1026C492.76 74.1026 492.602 74.038 492.473 73.9089C492.344 73.7798 492.279 73.6219 492.279 73.4354C492.279 73.2489 492.344 73.0911 492.473 72.9619C492.602 72.8328 492.76 72.7682 492.946 72.7682C493.126 72.7682 493.276 72.8328 493.398 72.9619C493.527 73.0911 493.592 73.2489 493.592 73.4354C493.592 73.6219 493.527 73.7798 493.398 73.9089C493.276 74.038 493.126 74.1026 492.946 74.1026ZM493.42 75.0603V80.9574H492.44V75.0603H493.42ZM497.962 74.9527C498.679 74.9527 499.26 75.1715 499.705 75.6092C500.15 76.0396 500.372 76.6637 500.372 77.4816V80.9574H499.404V77.6215C499.404 77.0332 499.257 76.5848 498.963 76.2763C498.669 75.9607 498.267 75.8028 497.757 75.8028C497.241 75.8028 496.828 75.9643 496.52 76.2871C496.219 76.6099 496.068 77.0798 496.068 77.6968V80.9574H495.089V75.0603H496.068V75.8997C496.262 75.5984 496.524 75.3652 496.854 75.2002C497.191 75.0352 497.56 74.9527 497.962 74.9527ZM504.372 75.8674H503.134V80.9574H502.155V75.8674H501.391V75.0603H502.155V74.6407C502.155 73.9806 502.324 73.5 502.661 73.1987C503.005 72.8902 503.554 72.7359 504.307 72.7359V73.5538C503.877 73.5538 503.572 73.6399 503.392 73.8121C503.22 73.9771 503.134 74.2533 503.134 74.6407V75.0603H504.372V75.8674ZM508.085 81.0542C507.533 81.0542 507.031 80.9287 506.579 80.6776C506.134 80.4265 505.783 80.0714 505.524 79.6123C505.273 79.146 505.148 78.6079 505.148 77.9981C505.148 77.3955 505.277 76.8646 505.535 76.4055C505.8 75.9392 506.159 75.584 506.611 75.3401C507.063 75.089 507.569 74.9635 508.128 74.9635C508.688 74.9635 509.194 75.089 509.646 75.3401C510.098 75.584 510.453 75.9356 510.711 76.3947C510.977 76.8538 511.109 77.3883 511.109 77.9981C511.109 78.6079 510.973 79.146 510.7 79.6123C510.435 80.0714 510.073 80.4265 509.613 80.6776C509.154 80.9287 508.645 81.0542 508.085 81.0542ZM508.085 80.1934C508.437 80.1934 508.767 80.1109 509.075 79.9459C509.384 79.7809 509.631 79.5334 509.818 79.2033C510.012 78.8733 510.108 78.4716 510.108 77.9981C510.108 77.5246 510.015 77.1229 509.829 76.7929C509.642 76.4629 509.398 76.2189 509.097 76.0611C508.796 75.8961 508.469 75.8136 508.118 75.8136C507.759 75.8136 507.429 75.8961 507.128 76.0611C506.834 76.2189 506.597 76.4629 506.417 76.7929C506.238 77.1229 506.148 77.5246 506.148 77.9981C506.148 78.4788 506.234 78.8841 506.407 79.2141C506.586 79.5441 506.823 79.7916 507.117 79.9566C507.411 80.1144 507.734 80.1934 508.085 80.1934Z" fill="black"/>
<g filter="url(#filter6_b_490_533)">
<rect x="541.515" width="44.479" height="44.479" rx="22.2395" fill="white"/>
<rect x="549.888" y="8.37256" width="27.734" height="27.734" rx="13.867" fill="#044BD9" fill-opacity="0.04"/>
<g clip-path="url(#clip6_490_533)">
<path d="M567.868 22.5878L568.147 21.5484C568.472 20.335 568.635 19.7283 568.512 19.2033C568.416 18.7888 568.198 18.4122 567.887 18.1212C567.494 17.7527 566.887 17.5901 565.674 17.265C564.461 16.9399 563.854 16.7773 563.329 16.8998C562.914 16.9964 562.538 17.2138 562.247 17.5245C561.931 17.8614 561.767 18.3546 561.522 19.251C561.481 19.4015 561.437 19.5635 561.391 19.738L561.391 19.738L561.112 20.7774C560.787 21.9908 560.624 22.5975 560.747 23.1225C560.843 23.537 561.061 23.9136 561.372 24.2046C561.765 24.5731 562.372 24.7357 563.585 25.0608C564.679 25.3538 565.279 25.5148 565.772 25.4541C565.826 25.4474 565.878 25.4381 565.93 25.4261C566.345 25.3294 566.721 25.112 567.012 24.8013C567.381 24.4078 567.543 23.8012 567.868 22.5878Z" stroke="#044BD9" stroke-width="0.807079"/>
<path d="M565.772 25.454C565.66 25.7975 565.463 26.1083 565.197 26.3567C564.804 26.7252 564.197 26.8878 562.984 27.2129C561.771 27.538 561.164 27.7006 560.639 27.5781C560.224 27.4815 559.848 27.2641 559.557 26.9534C559.188 26.5599 559.026 25.9532 558.701 24.7399L558.422 23.7004C558.097 22.4871 557.934 21.8804 558.057 21.3554C558.154 20.9409 558.371 20.5643 558.682 20.2733C559.075 19.9048 559.682 19.7422 560.895 19.4171C561.125 19.3556 561.333 19.2999 561.522 19.2509" stroke="#044BD9" stroke-width="0.807079"/>
<path d="M563.277 21.1631L565.875 21.8594" stroke="#044BD9" stroke-width="0.807079" stroke-linecap="round"/>
<path d="M562.859 22.7222L564.418 23.1399" stroke="#044BD9" stroke-width="0.807079" stroke-linecap="round"/>
</g>
<rect x="541.777" y="0.261641" width="43.9558" height="43.9558" rx="21.9779" stroke="#E7EAEC" stroke-width="0.523283"/>
</g>
<path d="M541.188 59.4569C542.006 59.4569 542.712 59.6112 543.308 59.9197C543.91 60.221 544.369 60.655 544.685 61.2218C545.008 61.7885 545.169 62.4557 545.169 63.2233C545.169 63.9909 545.008 64.6581 544.685 65.2249C544.369 65.7844 543.91 66.2149 543.308 66.5162C542.712 66.8103 542.006 66.9574 541.188 66.9574H538.853V59.4569H541.188ZM541.188 66.1503C542.156 66.1503 542.895 65.8956 543.404 65.3863C543.914 64.8698 544.169 64.1488 544.169 63.2233C544.169 62.2907 543.91 61.5625 543.394 61.0388C542.884 60.5151 542.149 60.2533 541.188 60.2533H539.832V66.1503H541.188ZM551.691 61.0603V66.9574H550.712V66.0858C550.525 66.3871 550.263 66.6238 549.926 66.796C549.596 66.961 549.23 67.0435 548.828 67.0435C548.369 67.0435 547.957 66.9502 547.591 66.7637C547.225 66.57 546.934 66.283 546.719 65.9028C546.511 65.5226 546.407 65.0599 546.407 64.5146V61.0603H547.376V64.3855C547.376 64.9666 547.523 65.415 547.817 65.7306C548.111 66.0391 548.513 66.1934 549.022 66.1934C549.546 66.1934 549.958 66.0319 550.26 65.7091C550.561 65.3863 550.712 64.9164 550.712 64.2994V61.0603H551.691ZM554.324 62.1472C554.517 61.81 554.804 61.5302 555.184 61.3078C555.572 61.0783 556.02 60.9635 556.53 60.9635C557.053 60.9635 557.527 61.089 557.95 61.3401C558.38 61.5912 558.718 61.9463 558.962 62.4055C559.205 62.8574 559.327 63.3847 559.327 63.9873C559.327 64.5828 559.205 65.1137 558.962 65.58C558.718 66.0463 558.38 66.4086 557.95 66.6668C557.527 66.9251 557.053 67.0542 556.53 67.0542C556.027 67.0542 555.583 66.943 555.195 66.7207C554.815 66.4911 554.524 66.2077 554.324 65.8705V69.7553H553.344V61.0603H554.324V62.1472ZM558.327 63.9873C558.327 63.5426 558.237 63.1552 558.058 62.8252C557.878 62.4951 557.634 62.2441 557.326 62.0719C557.025 61.8997 556.691 61.8136 556.325 61.8136C555.966 61.8136 555.633 61.9033 555.324 62.0826C555.023 62.2548 554.779 62.5095 554.593 62.8467C554.413 63.1767 554.324 63.5605 554.324 63.9981C554.324 64.4429 554.413 64.8339 554.593 65.1711C554.779 65.5011 555.023 65.7557 555.324 65.9351C555.633 66.1073 555.966 66.1934 556.325 66.1934C556.691 66.1934 557.025 66.1073 557.326 65.9351C557.634 65.7557 557.878 65.5011 558.058 65.1711C558.237 64.8339 558.327 64.4393 558.327 63.9873ZM561.596 58.9942V66.9574H560.616V58.9942H561.596ZM563.77 60.1026C563.584 60.1026 563.426 60.038 563.297 59.9089C563.168 59.7798 563.103 59.6219 563.103 59.4354C563.103 59.2489 563.168 59.0911 563.297 58.9619C563.426 58.8328 563.584 58.7682 563.77 58.7682C563.95 58.7682 564.1 58.8328 564.222 58.9619C564.351 59.0911 564.416 59.2489 564.416 59.4354C564.416 59.6219 564.351 59.7798 564.222 59.9089C564.1 60.038 563.95 60.1026 563.77 60.1026ZM564.244 61.0603V66.9574H563.265V61.0603H564.244ZM565.547 63.9981C565.547 63.3883 565.669 62.8574 565.913 62.4055C566.157 61.9463 566.494 61.5912 566.924 61.3401C567.362 61.089 567.861 60.9635 568.42 60.9635C569.145 60.9635 569.74 61.1393 570.207 61.4908C570.68 61.8423 570.992 62.3301 571.143 62.9543H570.088C569.988 62.5956 569.79 62.3122 569.496 62.1042C569.209 61.8961 568.851 61.7921 568.42 61.7921C567.861 61.7921 567.409 61.9858 567.064 62.3732C566.72 62.7534 566.548 63.295 566.548 63.9981C566.548 64.7083 566.72 65.2571 567.064 65.6445C567.409 66.0319 567.861 66.2256 568.42 66.2256C568.851 66.2256 569.209 66.1252 569.496 65.9243C569.783 65.7235 569.981 65.4365 570.088 65.0635H571.143C570.985 65.6661 570.669 66.1503 570.196 66.5162C569.722 66.8749 569.13 67.0542 568.42 67.0542C567.861 67.0542 567.362 66.9287 566.924 66.6776C566.494 66.4265 566.157 66.0714 565.913 65.6123C565.669 65.1531 565.547 64.6151 565.547 63.9981ZM572.083 63.9873C572.083 63.3847 572.205 62.8574 572.449 62.4055C572.693 61.9463 573.027 61.5912 573.45 61.3401C573.881 61.089 574.358 60.9635 574.881 60.9635C575.398 60.9635 575.846 61.0747 576.226 61.2971C576.607 61.5195 576.89 61.7993 577.077 62.1364V61.0603H578.067V66.9574H577.077V65.8598C576.883 66.2041 576.592 66.4911 576.205 66.7207C575.825 66.943 575.38 67.0542 574.871 67.0542C574.347 67.0542 573.873 66.9251 573.45 66.6668C573.027 66.4086 572.693 66.0463 572.449 65.58C572.205 65.1137 572.083 64.5828 572.083 63.9873ZM577.077 63.9981C577.077 63.5533 576.987 63.1659 576.808 62.8359C576.628 62.5059 576.384 62.2548 576.076 62.0826C575.775 61.9033 575.441 61.8136 575.075 61.8136C574.709 61.8136 574.376 61.8997 574.074 62.0719C573.773 62.2441 573.533 62.4951 573.353 62.8252C573.174 63.1552 573.084 63.5426 573.084 63.9873C573.084 64.4393 573.174 64.8339 573.353 65.1711C573.533 65.5011 573.773 65.7557 574.074 65.9351C574.376 66.1073 574.709 66.1934 575.075 66.1934C575.441 66.1934 575.775 66.1073 576.076 65.9351C576.384 65.7557 576.628 65.5011 576.808 65.1711C576.987 64.8339 577.077 64.4429 577.077 63.9981ZM580.916 61.8674V65.3432C580.916 65.6302 580.977 65.8347 581.099 65.9566C581.221 66.0714 581.432 66.1288 581.734 66.1288H582.455V66.9574H581.572C581.027 66.9574 580.618 66.8319 580.346 66.5808C580.073 66.3297 579.937 65.9172 579.937 65.3432V61.8674H579.173V61.0603H579.937V59.5753H580.916V61.0603H582.455V61.8674H580.916ZM589.022 63.7829C589.022 63.9694 589.011 64.1667 588.99 64.3747H584.276C584.312 64.9558 584.509 65.4114 584.868 65.7414C585.234 66.0642 585.675 66.2256 586.192 66.2256C586.615 66.2256 586.966 66.1288 587.246 65.9351C587.533 65.7342 587.734 65.4688 587.849 65.1388H588.903C588.746 65.7055 588.43 66.1683 587.956 66.527C587.483 66.8785 586.895 67.0542 586.192 67.0542C585.632 67.0542 585.13 66.9287 584.685 66.6776C584.247 66.4265 583.903 66.0714 583.652 65.6123C583.401 65.146 583.275 64.6079 583.275 63.9981C583.275 63.3883 583.397 62.8538 583.641 62.3947C583.885 61.9356 584.226 61.584 584.664 61.3401C585.108 61.089 585.618 60.9635 586.192 60.9635C586.751 60.9635 587.246 61.0854 587.677 61.3294C588.107 61.5733 588.437 61.9105 588.667 62.3409C588.903 62.7642 589.022 63.2448 589.022 63.7829ZM588.01 63.5784C588.01 63.2054 587.928 62.8861 587.763 62.6207C587.598 62.3481 587.372 62.1436 587.085 62.0073C586.805 61.8638 586.493 61.7921 586.149 61.7921C585.654 61.7921 585.23 61.9499 584.879 62.2656C584.534 62.5812 584.337 63.0188 584.287 63.5784H588.01Z" fill="black"/>
<line x1="47.3975" y1="22.5983" x2="85.4199" y2="22.5983" stroke="#E7EAEC" stroke-width="0.717404"/>
<line x1="129.182" y1="22.5983" x2="179.4" y2="22.5983" stroke="#E7EAEC" stroke-width="0.717404"/>
<line x1="223.879" y1="22.5983" x2="274.097" y2="22.5983" stroke="#E7EAEC" stroke-width="0.717404"/>
<line x1="318.576" y1="22.5983" x2="368.794" y2="22.5983" stroke="#E7EAEC" stroke-width="0.717404"/>
<line x1="413.273" y1="22.5983" x2="458.47" y2="22.5983" stroke="#E7EAEC" stroke-width="0.717404"/>
<line x1="502.949" y1="22.5983" x2="541.689" y2="22.5983" stroke="#E7EAEC" stroke-width="0.717404"/>
<defs>
<filter id="filter0_b_490_533" x="-20.7386" y="-23.5477" width="91.5745" height="91.5745" filterUnits="userSpaceOnUse" color-interpolation-filters="sRGB">
<feFlood flood-opacity="0" result="BackgroundImageFix"/>
<feGaussianBlur in="BackgroundImageFix" stdDeviation="11.7739"/>
<feComposite in2="SourceAlpha" operator="in" result="effect1_backgroundBlur_490_533"/>
<feBlend mode="normal" in="SourceGraphic" in2="effect1_backgroundBlur_490_533" result="shape"/>
</filter>
<filter id="filter1_b_490_533" x="61.7189" y="-23.5477" width="91.5745" height="91.5745" filterUnits="userSpaceOnUse" color-interpolation-filters="sRGB">
<feFlood flood-opacity="0" result="BackgroundImageFix"/>
<feGaussianBlur in="BackgroundImageFix" stdDeviation="11.7739"/>
<feComposite in2="SourceAlpha" operator="in" result="effect1_backgroundBlur_490_533"/>
<feBlend mode="normal" in="SourceGraphic" in2="effect1_backgroundBlur_490_533" result="shape"/>
</filter>
<filter id="filter2_b_490_533" x="155.786" y="-23.5477" width="91.5745" height="91.5745" filterUnits="userSpaceOnUse" color-interpolation-filters="sRGB">
<feFlood flood-opacity="0" result="BackgroundImageFix"/>
<feGaussianBlur in="BackgroundImageFix" stdDeviation="11.7739"/>
<feComposite in2="SourceAlpha" operator="in" result="effect1_backgroundBlur_490_533"/>
<feBlend mode="normal" in="SourceGraphic" in2="effect1_backgroundBlur_490_533" result="shape"/>
</filter>
<filter id="filter3_b_490_533" x="251.114" y="-23.5477" width="91.5745" height="91.5745" filterUnits="userSpaceOnUse" color-interpolation-filters="sRGB">
<feFlood flood-opacity="0" result="BackgroundImageFix"/>
<feGaussianBlur in="BackgroundImageFix" stdDeviation="11.7739"/>
<feComposite in2="SourceAlpha" operator="in" result="effect1_backgroundBlur_490_533"/>
<feBlend mode="normal" in="SourceGraphic" in2="effect1_backgroundBlur_490_533" result="shape"/>
</filter>
<filter id="filter4_b_490_533" x="345.18" y="-23.5477" width="91.5745" height="91.5745" filterUnits="userSpaceOnUse" color-interpolation-filters="sRGB">
<feFlood flood-opacity="0" result="BackgroundImageFix"/>
<feGaussianBlur in="BackgroundImageFix" stdDeviation="11.7739"/>
<feComposite in2="SourceAlpha" operator="in" result="effect1_backgroundBlur_490_533"/>
<feBlend mode="normal" in="SourceGraphic" in2="effect1_backgroundBlur_490_533" result="shape"/>
</filter>
<filter id="filter5_b_490_533" x="435.074" y="-23.5477" width="91.5745" height="91.5745" filterUnits="userSpaceOnUse" color-interpolation-filters="sRGB">
<feFlood flood-opacity="0" result="BackgroundImageFix"/>
<feGaussianBlur in="BackgroundImageFix" stdDeviation="11.7739"/>
<feComposite in2="SourceAlpha" operator="in" result="effect1_backgroundBlur_490_533"/>
<feBlend mode="normal" in="SourceGraphic" in2="effect1_backgroundBlur_490_533" result="shape"/>
</filter>
<filter id="filter6_b_490_533" x="517.967" y="-23.5477" width="91.5745" height="91.5745" filterUnits="userSpaceOnUse" color-interpolation-filters="sRGB">
<feFlood flood-opacity="0" result="BackgroundImageFix"/>
<feGaussianBlur in="BackgroundImageFix" stdDeviation="11.7739"/>
<feComposite in2="SourceAlpha" operator="in" result="effect1_backgroundBlur_490_533"/>
<feBlend mode="normal" in="SourceGraphic" in2="effect1_backgroundBlur_490_533" result="shape"/>
</filter>
<clipPath id="clip0_490_533">
<rect width="12.9133" height="12.9133" fill="white" transform="translate(18.9497 15.7826)"/>
</clipPath>
<clipPath id="clip1_490_533">
<path d="M101.408 15.7826H114.321V28.6959H101.408V15.7826Z" fill="white"/>
</clipPath>
<clipPath id="clip2_490_533">
<rect x="194.758" y="15.7827" width="12.9133" height="12.9133" rx="2.69026" fill="white"/>
</clipPath>
<clipPath id="clip3_490_533">
<rect width="12.9133" height="12.9133" fill="white" transform="translate(290.086 15.7828)"/>
</clipPath>
<clipPath id="clip4_490_533">
<rect width="12.9133" height="12.9133" fill="white" transform="translate(384.152 15.7827)"/>
</clipPath>
<clipPath id="clip5_490_533">
<rect x="474.046" y="15.7827" width="12.9133" height="12.9133" rx="2.69026" fill="white"/>
</clipPath>
<clipPath id="clip6_490_533">
<rect x="556.94" y="15.7827" width="12.9133" height="12.9133" rx="2.69026" fill="white"/>
</clipPath>
</defs>
</svg>
