<svg width="148" height="148" viewBox="0 0 148 148" fill="none" xmlns="http://www.w3.org/2000/svg">
<path fill-rule="evenodd" clip-rule="evenodd" d="M41.276 78.6608C41.1617 78.5679 41.0566 78.462 40.9638 78.3442L38.2603 74.9251C37.9768 74.5664 37.8224 74.1227 37.8224 73.6653V53.3382C37.8224 52.1838 38.2812 51.0768 39.0975 50.2604C39.9138 49.4441 41.0209 48.9853 42.1753 48.9853H51.7489V41.5926C51.7489 36.9506 55.5177 33.1821 60.1597 33.1821H87.8391C92.4811 33.1821 96.2499 36.9506 96.2499 41.5926V48.9853H105.823C106.978 48.9853 108.085 49.4441 108.901 50.2604C109.718 51.0768 110.176 52.1838 110.176 53.3382V73.6459C110.176 74.1012 110.023 74.5432 109.742 74.9013L107.039 78.3398C106.945 78.4594 106.839 78.5667 106.723 78.6608V86.4035C106.723 87.5248 105.812 88.4349 104.691 88.4349C103.57 88.4349 102.66 87.5248 102.66 86.4035V79.1155H95.9992V81.2191C95.9992 83.1426 94.4399 84.7015 92.5168 84.7015H88.6404C86.7172 84.7015 85.158 83.1426 85.158 81.2191V79.1155H62.8408V81.2191C62.8408 83.1426 61.2816 84.7015 59.3584 84.7015H55.482C53.5589 84.7015 51.9996 83.1426 51.9996 81.2191V79.1155H45.3388V103.098C45.3388 103.91 45.9984 104.57 46.8112 104.57H71.6433C72.7643 104.57 73.6747 105.48 73.6747 106.602C73.6747 107.723 72.7643 108.633 71.6433 108.633H46.8112C43.7563 108.633 41.276 106.153 41.276 103.098V78.6608ZM55.8116 48.9853H59.6997V44.6341C59.6997 42.5891 61.3599 40.9289 63.4049 40.9289H84.5939C86.6389 40.9289 88.2991 42.5891 88.2991 44.6341V48.9853H92.1871V41.5926C92.1871 39.1929 90.2391 37.2448 87.8391 37.2448H60.1597C57.7597 37.2448 55.8116 39.1929 55.8116 41.5926V48.9853ZM63.7624 48.9853H84.2364V44.9916H63.7624V48.9853ZM95.9992 75.0528H104.455L106.114 72.9427V53.3382C106.114 53.2613 106.083 53.1876 106.029 53.1331C105.974 53.0788 105.9 53.0481 105.823 53.0481H92.61V69.4679C94.4902 69.5173 95.9992 71.057 95.9992 72.9491V75.0528ZM88.5472 53.0481H59.4516V69.4679C61.3318 69.5173 62.8408 71.057 62.8408 72.9491V75.0528H85.158V72.9491C85.158 71.057 86.667 69.5173 88.5472 69.4679V53.0481ZM55.3888 53.0481H42.1753C42.0984 53.0481 42.0247 53.0788 41.9702 53.1331C41.9159 53.1876 41.8851 53.2613 41.8851 53.3382V72.9593L43.5407 75.0528H51.9996V72.9491C51.9996 71.057 53.5086 69.5173 55.3888 69.4679V53.0481ZM89.2208 73.5295V80.6387H91.9364V73.5295H89.2208ZM56.0624 73.5295V80.6387H58.778V73.5295H56.0624ZM86.7141 136.454C87.7112 135.941 88.937 136.335 89.4492 137.332C89.9616 138.329 89.5681 139.555 88.571 140.067C83.7787 142.53 79.0157 144.405 74.5255 145.609C74.1808 145.702 73.8177 145.702 73.473 145.609C60.9899 142.26 46.3823 133.691 34.9071 121.825C23.3407 109.865 14.9805 94.5737 14.9805 77.9843V29.8051C14.9805 28.7453 15.795 27.8637 16.8514 27.7801C21.4733 27.4136 28.2717 25.0128 35.5417 21.8848C52.9703 14.3855 72.9683 2.60298 72.9683 2.60298C73.6047 2.22804 74.3941 2.22804 75.0305 2.60298C75.0305 2.60298 95.0285 14.3855 112.457 21.8848C119.727 25.0128 126.525 27.4136 131.147 27.7801C132.204 27.8637 133.018 28.7453 133.018 29.8051V77.9843C133.018 88.2346 129.835 97.9861 124.667 106.766C124.641 106.81 124.615 106.854 124.588 106.899C124.017 107.864 122.771 108.184 121.806 107.613C120.841 107.042 120.521 105.795 121.092 104.83C121.116 104.789 121.141 104.746 121.166 104.705C125.965 96.5508 128.956 87.5042 128.956 77.9843C128.956 77.9843 128.956 40.3401 128.956 31.6017C124.142 30.8318 117.682 28.5555 110.851 25.6167C95.5694 19.0411 78.3349 9.21422 73.9994 6.70403C69.6639 9.21422 52.4294 19.0411 37.1474 25.6167C30.317 28.5555 23.8573 30.8318 19.0432 31.6017V77.9843C19.0432 93.5252 26.9923 107.797 37.8276 119.001C48.593 130.133 62.2314 138.255 73.9997 141.541C78.0781 140.402 82.3823 138.679 86.7141 136.454ZM120.309 120.918C117.403 120.918 115.943 124.44 117.999 126.496C119.405 127.902 119.405 130.189 117.999 131.595L114.614 134.979C113.209 136.385 110.922 136.385 109.516 134.979C107.46 132.924 103.938 134.383 103.938 137.29C103.938 139.286 102.324 140.893 100.334 140.893H95.5468C93.5572 140.893 91.9434 139.286 91.9434 137.29C91.9434 134.38 88.4227 132.922 86.3649 134.979C84.9584 136.386 82.6763 136.386 81.2703 134.98L77.8819 131.595C76.4762 130.189 76.4762 127.902 77.8819 126.496C79.938 124.44 78.48 120.918 75.5717 120.918C73.5818 120.918 71.968 119.304 71.968 117.315V112.527C71.968 110.537 73.5818 108.924 75.5717 108.924C78.48 108.924 79.938 105.401 77.8819 103.345C76.4753 101.939 76.4753 99.6567 77.8819 98.2499L81.2697 94.8624C82.6763 93.4555 84.9584 93.4555 86.3649 94.8624C88.421 96.9182 91.9434 95.4605 91.9434 92.5519C91.9434 90.562 93.5572 88.9482 95.5468 88.9482H100.334C102.324 88.9482 103.938 90.562 103.938 92.5519C103.938 95.4605 107.46 96.9182 109.516 94.8624C110.922 93.4564 113.209 93.4564 114.614 94.8624L117.999 98.2499C119.406 99.6567 119.406 101.939 117.999 103.345C115.943 105.401 117.403 108.924 120.309 108.924C122.306 108.924 123.913 110.537 123.913 112.527V117.315C123.913 119.304 122.306 120.918 120.309 120.918ZM76.0308 112.973V116.869C82.0965 117.22 85.1093 124.5 81.0695 129.036L83.8266 131.791C88.3659 127.749 95.6419 130.762 95.9928 136.831H99.8884C100.24 130.768 107.52 127.752 112.056 131.792L114.812 129.036C110.772 124.5 113.788 117.22 119.85 116.869V112.973C113.789 112.622 110.772 105.343 114.811 100.807L112.056 98.0496C107.52 102.09 100.24 99.0766 99.8884 93.011H95.9928C95.6413 99.0761 88.3627 102.089 83.8266 98.0508L81.0706 100.807C85.1087 105.343 82.0959 112.622 76.0308 112.973ZM97.942 128.685C90.3604 128.685 84.1795 122.5 84.1795 114.922C84.1795 107.341 90.3604 101.16 97.942 101.16C105.52 101.16 111.705 107.341 111.705 114.922C111.705 122.5 105.52 128.685 97.942 128.685ZM97.942 124.622C103.283 124.622 107.642 120.263 107.642 114.922C107.642 109.579 103.283 105.222 97.942 105.222C92.5986 105.222 88.2422 109.579 88.2422 114.922C88.2422 120.263 92.5986 124.622 97.942 124.622Z" fill="#1C256C"/>
</svg>
