<svg width="22" height="22" viewBox="0 0 22 22" fill="none" xmlns="http://www.w3.org/2000/svg">
<rect x="0.5" y="0.5" width="21" height="21" rx="4.5" stroke="#EEF6FF"/>
<path d="M16.8088 12.0028V16.3072H14.3133V12.291C14.3133 11.2818 13.9522 10.5935 13.0492 10.5935C12.3597 10.5935 11.949 11.0578 11.7688 11.5064C11.7028 11.6668 11.6859 11.8902 11.6859 12.1148V16.3072H9.18927C9.18927 16.3072 9.2231 9.50555 9.18927 8.8003H11.6859V9.8643L11.6696 9.8888H11.6859V9.8643C12.0173 9.35388 12.6093 8.62413 13.9353 8.62413C15.5773 8.62413 16.8088 9.69747 16.8088 12.0028ZM6.57827 5.18188C5.72485 5.18188 5.16602 5.74188 5.16602 6.47863C5.16602 7.19905 5.70852 7.77597 6.5456 7.77597H6.56193C7.43285 7.77597 7.9736 7.19905 7.9736 6.47863C7.95843 5.74188 7.43343 5.18188 6.57885 5.18188H6.57827ZM5.31418 16.3072H7.80968V8.8003H5.31418V16.3072Z" fill="#EBEDF0"/>
</svg>
