<svg width="22" height="22" viewBox="0 0 22 22" fill="none" xmlns="http://www.w3.org/2000/svg">
<rect x="0.5" y="0.5" width="21" height="21" rx="4.5" stroke="#EEF6FF"/>
<path d="M16.8097 12.0026V16.307H14.3142V12.2907C14.3142 11.2816 13.9532 10.5932 13.0502 10.5932C12.3607 10.5932 11.95 11.0576 11.7697 11.5061C11.7038 11.6666 11.6869 11.89 11.6869 12.1146V16.307H9.19024C9.19024 16.307 9.22408 9.50531 9.19024 8.80006H11.6869V9.86406L11.6706 9.88856H11.6869V9.86406C12.0182 9.35364 12.6103 8.62389 13.9362 8.62389C15.5783 8.62389 16.8097 9.69722 16.8097 12.0026ZM6.57924 5.18164C5.72583 5.18164 5.16699 5.74164 5.16699 6.47839C5.16699 7.19881 5.70949 7.77572 6.54658 7.77572H6.56291C7.43383 7.77572 7.97458 7.19881 7.97458 6.47839C7.95941 5.74164 7.43441 5.18164 6.57983 5.18164H6.57924ZM5.31516 16.307H7.81066V8.80006H5.31516V16.307Z" fill="#EBEDF0"/>
</svg>
