<svg width="51" height="22" viewBox="0 0 51 22" fill="none" xmlns="http://www.w3.org/2000/svg">
<rect x="0.921875" y="0.564819" width="49.4617" height="21.2378" rx="2.23556" fill="#05AFF2"/>
<path d="M15.3262 6.99134C15.3262 7.26408 15.2636 7.51446 15.1384 7.74249C15.0132 7.96604 14.8209 8.14712 14.5616 8.28573C14.3023 8.42433 13.9804 8.49363 13.5959 8.49363H12.8849V10.1837H11.7381V5.47563H13.5959C13.9714 5.47563 14.2889 5.54046 14.5482 5.67012C14.8075 5.79978 15.002 5.97863 15.1317 6.20666C15.2613 6.43468 15.3262 6.69624 15.3262 6.99134ZM13.5087 7.58153C13.7277 7.58153 13.8909 7.53011 13.9983 7.42727C14.1056 7.32444 14.1592 7.17912 14.1592 6.99134C14.1592 6.80355 14.1056 6.65824 13.9983 6.5554C13.8909 6.45257 13.7277 6.40115 13.5087 6.40115H12.8849V7.58153H13.5087ZM19.2564 9.35209H17.4993L17.2176 10.1837H16.0171L17.7206 5.47563H19.0485L20.752 10.1837H19.5381L19.2564 9.35209ZM18.9613 8.46681L18.3779 6.74319L17.8011 8.46681H18.9613ZM22.8197 5.47563V10.1837H21.6729V5.47563H22.8197ZM25.8171 5.47563C26.3134 5.47563 26.7471 5.57399 27.1182 5.77072C27.4893 5.96745 27.7754 6.24466 27.9766 6.60235C28.1823 6.95557 28.2851 7.36468 28.2851 7.82967C28.2851 8.2902 28.1823 8.6993 27.9766 9.05699C27.7754 9.41468 27.4871 9.69189 27.1115 9.88862C26.7404 10.0854 26.3089 10.1837 25.8171 10.1837H24.0532V5.47563H25.8171ZM25.7433 9.19113C26.177 9.19113 26.5146 9.07264 26.756 8.83567C26.9975 8.5987 27.1182 8.26337 27.1182 7.82967C27.1182 7.39597 26.9975 7.0584 26.756 6.81696C26.5146 6.57552 26.177 6.4548 25.7433 6.4548H25.2001V9.19113H25.7433ZM32.2989 5.47563V10.1837H31.1521V5.47563H32.2989ZM37.7442 10.1837H36.5974L34.6793 7.27972V10.1837H33.5324V5.47563H34.6793L36.5974 8.39303V5.47563H37.7442V10.1837ZM21.1356 11.4756V12.3944H19.2175V13.387H20.6527V14.279H19.2175V16.1837H18.0707V11.4756H21.1356ZM23.2675 11.4756V14.2924C23.2675 14.5741 23.3368 14.791 23.4754 14.943C23.614 15.095 23.8175 15.171 24.0857 15.171C24.354 15.171 24.5597 15.095 24.7027 14.943C24.8458 14.791 24.9174 14.5741 24.9174 14.2924V11.4756H26.0642V14.2857C26.0642 14.706 25.9748 15.0615 25.7959 15.3521C25.6171 15.6427 25.3756 15.8618 25.0716 16.0093C24.772 16.1569 24.4367 16.2307 24.0656 16.2307C23.6945 16.2307 23.3614 16.1591 23.0663 16.016C22.7757 15.8685 22.5454 15.6494 22.3755 15.3588C22.2056 15.0637 22.1207 14.706 22.1207 14.2857V11.4756H23.2675ZM28.4188 15.2984H29.9211V16.1837H27.2719V11.4756H28.4188V15.2984ZM32.0173 15.2984H33.5196V16.1837H30.8705V11.4756H32.0173V15.2984Z" fill="white"/>
<rect x="2.45955" y="2.10176" width="46.1084" height="18.1639" rx="2.09584" stroke="white" stroke-width="0.279445" stroke-dasharray="2.24 2.24"/>
</svg>
