<svg width="148" height="148" viewBox="0 0 148 148" fill="none" xmlns="http://www.w3.org/2000/svg">
<path d="M97.6804 25.6532C98.7702 25.6532 99.6537 24.7697 99.6537 23.6799C99.6537 22.59 98.7702 21.7065 97.6804 21.7065C96.5905 21.7065 95.707 22.59 95.707 23.6799C95.707 24.7697 96.5905 25.6532 97.6804 25.6532Z" fill="#1C256C"/>
<path d="M117.414 76.96C114.15 76.96 111.494 79.6156 111.494 82.88C111.494 86.1443 114.15 88.8 117.414 88.8C120.679 88.8 123.334 86.1443 123.334 82.88C123.334 79.6156 120.679 76.96 117.414 76.96ZM117.414 84.8533C116.326 84.8533 115.441 83.9678 115.441 82.88C115.441 81.7922 116.326 80.9066 117.414 80.9066C118.502 80.9066 119.387 81.7922 119.387 82.88C119.387 83.9678 118.502 84.8533 117.414 84.8533Z" fill="#1C256C"/>
<path d="M107.309 39.7052C107.694 40.0905 108.199 40.2834 108.704 40.2834C109.209 40.2834 109.714 40.0905 110.099 39.7052L111.494 38.31L112.889 39.7052C113.275 40.0905 113.78 40.2834 114.285 40.2834C114.789 40.2834 115.294 40.0905 115.68 39.7052C116.45 38.9346 116.45 37.6855 115.68 36.9149L114.285 35.5197L115.68 34.1246C116.45 33.354 116.45 32.1049 115.68 31.3343C114.909 30.5637 113.66 30.5637 112.889 31.3343L111.494 32.7294L110.099 31.3343C109.328 30.5637 108.079 30.5637 107.309 31.3343C106.538 32.1049 106.538 33.354 107.309 34.1246L108.704 35.5197L107.309 36.9149C106.538 37.686 106.538 38.9346 107.309 39.7052Z" fill="#1C256C"/>
<path d="M125.307 58.2132C125.307 53.3163 121.324 49.3332 116.427 49.3332H91.4798C90.5972 45.9385 87.5336 43.4132 83.8667 43.4132C80.1997 43.4132 77.1361 45.9385 76.2536 49.3332H38.1998C37.482 46.573 35.3202 44.4112 32.56 43.6934V31.5732H40.4534V33.5465C40.4534 34.6363 41.3369 35.5198 42.4267 35.5198H50.32C51.4098 35.5198 52.2934 34.6363 52.2934 33.5465V21.7065C52.2934 20.6167 51.4098 19.7332 50.32 19.7332H44.4V17.7598C44.4 16.6701 43.5165 15.7865 42.4267 15.7865H32.56V13.8132C32.56 12.7234 31.6765 11.8398 30.5867 11.8398C29.4969 11.8398 28.6134 12.7234 28.6134 13.8132V43.6934C25.2187 44.576 22.6934 47.6396 22.6934 51.3065C22.6934 55.6587 26.2345 59.1998 30.5867 59.1998C34.2536 59.1998 37.3172 56.6745 38.1998 53.2798H76.2536C77.1361 56.6745 80.1997 59.1998 83.8667 59.1998C87.5336 59.1998 90.5972 56.6745 91.4798 53.2798H116.427C119.147 53.2798 121.36 55.4929 121.36 58.2132V64.1332C121.36 66.8534 119.147 69.0665 116.427 69.0665H67.7998C66.9172 65.6719 63.8536 63.1465 60.1867 63.1465C56.5197 63.1465 53.4561 65.6719 52.5736 69.0665H33.5467C28.6499 69.0665 24.6667 73.0497 24.6667 77.9465V81.8932C24.6667 86.79 28.6499 90.7732 33.5467 90.7732H69.0667C71.7869 90.7732 74 92.9863 74 95.7065C74 100.603 77.9832 104.586 82.88 104.586H92.0402C92.9228 107.981 95.9864 110.506 99.6534 110.506C103.32 110.506 106.384 107.981 107.266 104.586H116.427C119.147 104.586 121.36 106.8 121.36 109.52V115.44C121.36 118.16 119.147 120.373 116.427 120.373H87.5332C86.6506 116.979 83.587 114.453 79.92 114.453C76.2531 114.453 73.1895 116.979 72.3069 120.373H64.1334V108.533C64.1334 107.443 63.2498 106.56 62.16 106.56H52.2934V104.514C52.2934 102.378 50.5553 100.64 48.4187 100.64H40.3813C38.2452 100.64 36.5067 102.378 36.5067 104.514V106.56H26.64C25.5503 106.56 24.6667 107.443 24.6667 108.533V134.186C24.6667 135.276 25.5503 136.16 26.64 136.16H62.16C63.2498 136.16 64.1334 135.276 64.1334 134.186V124.32H72.3069C73.1895 127.714 76.2531 130.24 79.92 130.24C83.587 130.24 86.6506 127.714 87.5332 124.32H116.427C121.324 124.32 125.307 120.337 125.307 115.44V109.52C125.307 104.623 121.324 100.64 116.427 100.64H107.266C106.384 97.2452 103.32 94.7198 99.6534 94.7198C95.9864 94.7198 92.9228 97.2452 92.0402 100.64H82.88C80.1598 100.64 77.9467 98.4267 77.9467 95.7065C77.9467 90.8097 73.9635 86.8265 69.0667 86.8265H33.5467C30.8265 86.8265 28.6134 84.6134 28.6134 81.8932V77.9465C28.6134 75.2263 30.8265 73.0132 33.5467 73.0132H52.5736C53.4561 76.4078 56.5197 78.9332 60.1867 78.9332C63.8536 78.9332 66.9172 76.4078 67.7998 73.0132H116.427C121.324 73.0132 125.307 69.03 125.307 64.1332V58.2132ZM48.3467 23.6798V31.5732H44.4V29.5998V23.6798H48.3467ZM40.4534 19.7332V27.6265H32.56V19.7332H40.4534ZM30.5867 55.2532C28.4101 55.2532 26.64 53.4831 26.64 51.3065C26.64 49.1299 28.4101 47.3598 30.5867 47.3598C32.7633 47.3598 34.5334 49.1299 34.5334 51.3065C34.5334 53.4831 32.7633 55.2532 30.5867 55.2532ZM83.8667 55.2532C81.6901 55.2532 79.92 53.4831 79.92 51.3065C79.92 49.1299 81.6901 47.3598 83.8667 47.3598C86.0433 47.3598 87.8134 49.1299 87.8134 51.3065C87.8134 53.4831 86.0433 55.2532 83.8667 55.2532ZM40.3813 104.586H48.3467V106.56H40.4178L40.3813 104.586ZM60.1867 110.506V114.844L44.4 118.352L28.6134 114.844V110.506H60.1867ZM60.1867 132.213H28.6134V118.886L43.9723 122.299C44.1129 122.331 44.2565 122.346 44.4 122.346C44.5436 122.346 44.6871 122.331 44.8277 122.299L60.1867 118.886V132.213ZM79.92 126.293C77.7434 126.293 75.9734 124.523 75.9734 122.346C75.9734 120.17 77.7434 118.4 79.92 118.4C82.0966 118.4 83.8667 120.17 83.8667 122.346C83.8667 124.523 82.0966 126.293 79.92 126.293ZM99.6534 98.6665C101.83 98.6665 103.6 100.437 103.6 102.613C103.6 104.79 101.83 106.56 99.6534 106.56C97.4768 106.56 95.7067 104.79 95.7067 102.613C95.7067 100.437 97.4768 98.6665 99.6534 98.6665ZM60.1867 74.9865C58.0101 74.9865 56.24 73.2164 56.24 71.0398C56.24 68.8632 58.0101 67.0932 60.1867 67.0932C62.3633 67.0932 64.1334 68.8632 64.1334 71.0398C64.1334 73.2164 62.3633 74.9865 60.1867 74.9865Z" fill="#1C256C"/>
</svg>
