<svg width="459" height="424" viewBox="0 0 459 424" fill="none" xmlns="http://www.w3.org/2000/svg">
<g clip-path="url(#clip0_558_13250)">
<path d="M380.807 191.484L345.628 114.703L457.784 92.8244L380.807 191.484Z" fill="url(#paint0_radial_558_13250)" fill-opacity="0.8"/>
<path d="M380.807 191.484L345.628 114.703L457.784 92.8244L380.807 191.484Z" stroke="#0C0F27"/>
<path d="M380.807 191.484L345.628 114.703L457.784 92.8244L380.807 191.484Z" stroke="url(#paint1_radial_558_13250)"/>
<path d="M329.364 79.2786L455.6 92.2317L345.199 113.768L329.364 79.2786Z" fill="url(#paint2_radial_558_13250)" fill-opacity="0.8"/>
<path d="M329.364 79.2786L455.6 92.2317L345.199 113.768L329.364 79.2786Z" stroke="#0C0F27"/>
<path d="M329.364 79.2786L455.6 92.2317L345.199 113.768L329.364 79.2786Z" stroke="url(#paint3_radial_558_13250)"/>
<path d="M200.683 198.673L89.5816 209.65L13.9547 69.857L200.683 198.673Z" stroke="#002FFF"/>
<path d="M157.881 97.7152L200.943 197.637L14.8001 69.2253L157.881 97.7152Z" stroke="#002FFF"/>
<path d="M158.864 97.4659L294.83 9.23615L202.122 197.842L158.864 97.4659Z" stroke="#002FFF"/>
<path d="M311.223 149.668L203.152 198.015L295.77 9.59158L311.223 149.668Z" stroke="#002FFF"/>
<path d="M379.03 192.002L204.646 198.441L311.722 150.54L379.03 192.002Z" stroke="#002FFF"/>
<path d="M188.601 260.293L2.17327 245.493L89.2787 210.728L188.601 260.293Z" stroke="#002FFF"/>
<path d="M188.774 261.31L65.928 305.454L1.41157 246.436L188.774 261.31Z" stroke="#002FFF"/>
<path d="M91.0759 210.507L201.483 199.599L190.752 260.249L91.0759 210.507Z" stroke="#002FFF"/>
<path d="M202.51 199.521L377.513 193.058L191.768 260.231L202.51 199.521Z" stroke="#002FFF"/>
<path d="M311.385 276.366L337.432 351.641L193.311 261.769L311.385 276.366Z" stroke="#002FFF"/>
<path d="M255.851 341.675L129.842 410.049L191.314 307.568L255.851 341.675Z" stroke="#002FFF"/>
<path d="M191.625 261.896L336.12 352.001L257.061 341.185L191.625 306.603V261.896Z" stroke="#002FFF"/>
<path d="M135.189 307.404H190.246L129.093 409.354L135.189 307.404Z" stroke="#002FFF"/>
<path d="M311.544 275.378L193.259 260.755L379.141 193.533L311.544 275.378Z" stroke="#002FFF"/>
<path d="M211.781 17.691L294.035 8.55998L159.993 95.5418L211.781 17.691Z" stroke="#002FFF"/>
<path d="M312.229 149.678L296.915 10.8558L379.553 191.15L312.229 149.678Z" stroke="#002FFF"/>
<path d="M190.624 261.706V306.401L68.6247 305.547L190.624 261.706Z" stroke="#002FFF"/>
<path d="M393.187 275.408H312.818L345.293 236.101L345.293 236.101L380.371 193.616L393.187 275.408Z" stroke="#002FFF"/>
<path d="M381.222 192.577L457.498 94.8156L393.961 273.882L381.222 192.577Z" fill="url(#paint4_radial_558_13250)" fill-opacity="0.8"/>
<path d="M381.222 192.577L457.498 94.8156L393.961 273.882L381.222 192.577Z" stroke="#0C0F27"/>
<path d="M381.222 192.577L457.498 94.8156L393.961 273.882L381.222 192.577Z" stroke="url(#paint5_radial_558_13250)"/>
<path d="M112.509 64.6115V3.0358L137.782 77.6786L112.509 64.6115Z" fill="url(#paint6_radial_558_13250)" fill-opacity="0.8"/>
<path d="M112.509 64.6115V3.0358L137.782 77.6786L112.509 64.6115Z" stroke="#0C0F27"/>
<path d="M112.509 64.6115V3.0358L137.782 77.6786L112.509 64.6115Z" stroke="url(#paint7_radial_558_13250)"/>
<path d="M151.371 52.5899L138.746 77.4067L113.465 2.74052L151.371 52.5899Z" fill="url(#paint8_radial_558_13250)" fill-opacity="0.8"/>
<path d="M151.371 52.5899L138.746 77.4067L113.465 2.74052L151.371 52.5899Z" stroke="#0C0F27"/>
<path d="M151.371 52.5899L138.746 77.4067L113.465 2.74052L151.371 52.5899Z" stroke="url(#paint9_radial_558_13250)"/>
<path d="M363.156 44.8076L334.404 39.1322L391.877 9.37459L363.156 44.8076Z" fill="url(#paint10_radial_558_13250)" fill-opacity="0.8"/>
<path d="M363.156 44.8076L334.404 39.1322L391.877 9.37459L363.156 44.8076Z" stroke="#0C0F27"/>
<path d="M363.156 44.8076L334.404 39.1322L391.877 9.37459L363.156 44.8076Z" stroke="url(#paint11_radial_558_13250)"/>
<path d="M392.369 10.3552L372.812 66.8554L363.93 45.44L392.369 10.3552Z" fill="url(#paint12_radial_558_13250)" fill-opacity="0.8"/>
<path d="M392.369 10.3552L372.812 66.8554L363.93 45.44L392.369 10.3552Z" stroke="#0C0F27"/>
<path d="M392.369 10.3552L372.812 66.8554L363.93 45.44L392.369 10.3552Z" stroke="url(#paint13_radial_558_13250)"/>
<path d="M362.995 45.7951L371.715 66.8203L335.045 40.2779L362.995 45.7951Z" fill="url(#paint14_radial_558_13250)" fill-opacity="0.8"/>
<path d="M362.995 45.7951L371.715 66.8203L335.045 40.2779L362.995 45.7951Z" stroke="#0C0F27"/>
<path d="M362.995 45.7951L371.715 66.8203L335.045 40.2779L362.995 45.7951Z" stroke="url(#paint15_radial_558_13250)"/>
<path d="M55.9151 191.941H1.07514L25.0949 163.435L55.9151 191.941Z" fill="url(#paint16_radial_558_13250)" fill-opacity="0.8"/>
<path d="M55.9151 191.941H1.07514L25.0949 163.435L55.9151 191.941Z" stroke="#0C0F27"/>
<path d="M55.9151 191.941H1.07514L25.0949 163.435L55.9151 191.941Z" stroke="url(#paint17_radial_558_13250)"/>
<path d="M55.21 192.941L24.3096 209.591L1.53132 192.941H55.21Z" fill="url(#paint18_radial_558_13250)" fill-opacity="0.8"/>
<path d="M55.21 192.941L24.3096 209.591L1.53132 192.941H55.21Z" stroke="#0C0F27"/>
<path d="M55.21 192.941L24.3096 209.591L1.53132 192.941H55.21Z" stroke="url(#paint19_radial_558_13250)"/>
<path d="M279.435 422.502L239.592 388.729L259.888 360.226L279.435 422.502Z" fill="url(#paint20_radial_558_13250)" fill-opacity="0.8"/>
<path d="M279.435 422.502L239.592 388.729L259.888 360.226L279.435 422.502Z" stroke="#0C0F27"/>
<path d="M279.435 422.502L239.592 388.729L259.888 360.226L279.435 422.502Z" stroke="url(#paint21_radial_558_13250)"/>
<path d="M285.364 378.869L280.211 421.634L261.009 360.458L285.364 378.869Z" fill="url(#paint22_radial_558_13250)" fill-opacity="0.8"/>
<path d="M285.364 378.869L280.211 421.634L261.009 360.458L285.364 378.869Z" stroke="#0C0F27"/>
<path d="M285.364 378.869L280.211 421.634L261.009 360.458L285.364 378.869Z" stroke="url(#paint23_radial_558_13250)"/>
</g>
<defs>
<radialGradient id="paint0_radial_558_13250" cx="0" cy="0" r="1" gradientUnits="userSpaceOnUse" gradientTransform="translate(357.36 100.703) rotate(54.7955) scale(162.172 784.473)">
<stop stop-color="#06060C"/>
<stop offset="0.705" stop-color="#121953" stop-opacity="0.7"/>
<stop offset="0.96" stop-color="#081050" stop-opacity="0.3"/>
</radialGradient>
<radialGradient id="paint1_radial_558_13250" cx="0" cy="0" r="1" gradientUnits="userSpaceOnUse" gradientTransform="translate(397.058 202.425) rotate(-35.655) scale(309.139 481.45)">
<stop stop-color="#0B0C14"/>
<stop offset="1" stop-color="#3025FF"/>
</radialGradient>
<radialGradient id="paint2_radial_558_13250" cx="0" cy="0" r="1" gradientUnits="userSpaceOnUse" gradientTransform="translate(342.781 81.7549) rotate(23.7595) scale(116.8 442.29)">
<stop stop-color="#06060C"/>
<stop offset="0.705" stop-color="#121953" stop-opacity="0.7"/>
<stop offset="0.96" stop-color="#081050" stop-opacity="0.3"/>
</radialGradient>
<radialGradient id="paint3_radial_558_13250" cx="0" cy="0" r="1" gradientUnits="userSpaceOnUse" gradientTransform="translate(388.174 117.88) rotate(-12.5608) scale(294.259 205.387)">
<stop stop-color="#0B0C14"/>
<stop offset="1" stop-color="#3025FF"/>
</radialGradient>
<radialGradient id="paint4_radial_558_13250" cx="0" cy="0" r="1" gradientUnits="userSpaceOnUse" gradientTransform="translate(389.24 107.876) rotate(75.1913) scale(251.053 637.049)">
<stop stop-color="#06060C"/>
<stop offset="0.705" stop-color="#121953" stop-opacity="0.7"/>
<stop offset="0.96" stop-color="#081050" stop-opacity="0.3"/>
</radialGradient>
<radialGradient id="paint5_radial_558_13250" cx="0" cy="0" r="1" gradientUnits="userSpaceOnUse" gradientTransform="translate(416.486 294.197) rotate(-62.4206) scale(372.375 502.47)">
<stop stop-color="#0B0C14"/>
<stop offset="1" stop-color="#3025FF"/>
</radialGradient>
<radialGradient id="paint6_radial_558_13250" cx="0" cy="0" r="1" gradientUnits="userSpaceOnUse" gradientTransform="translate(114.916 6.76256) rotate(78.1324) scale(106.167 219.415)">
<stop stop-color="#06060C"/>
<stop offset="0.705" stop-color="#121953" stop-opacity="0.7"/>
<stop offset="0.96" stop-color="#081050" stop-opacity="0.3"/>
</radialGradient>
<radialGradient id="paint7_radial_558_13250" cx="0" cy="0" r="1" gradientUnits="userSpaceOnUse" gradientTransform="translate(124.187 86.5204) rotate(-67.4525) scale(152.982 178.143)">
<stop stop-color="#0B0C14"/>
<stop offset="1" stop-color="#3025FF"/>
</radialGradient>
<radialGradient id="paint8_radial_558_13250" cx="0" cy="0" r="1" gradientUnits="userSpaceOnUse" gradientTransform="translate(116.368 6.76256) rotate(72.5111) scale(108.933 320.635)">
<stop stop-color="#06060C"/>
<stop offset="0.705" stop-color="#121953" stop-opacity="0.7"/>
<stop offset="0.96" stop-color="#081050" stop-opacity="0.3"/>
</radialGradient>
<radialGradient id="paint9_radial_558_13250" cx="0" cy="0" r="1" gradientUnits="userSpaceOnUse" gradientTransform="translate(130.269 86.5204) rotate(-58.0967) scale(166.429 245.525)">
<stop stop-color="#0B0C14"/>
<stop offset="1" stop-color="#3025FF"/>
</radialGradient>
<radialGradient id="paint10_radial_558_13250" cx="0" cy="0" r="1" gradientUnits="userSpaceOnUse" gradientTransform="translate(339.547 11.055) rotate(44.809) scale(70.3043 360.972)">
<stop stop-color="#06060C"/>
<stop offset="0.705" stop-color="#121953" stop-opacity="0.7"/>
<stop offset="0.96" stop-color="#081050" stop-opacity="0.3"/>
</radialGradient>
<radialGradient id="paint11_radial_558_13250" cx="0" cy="0" r="1" gradientUnits="userSpaceOnUse" gradientTransform="translate(360.726 49.0898) rotate(-26.6922) scale(149.995 197.939)">
<stop stop-color="#0B0C14"/>
<stop offset="1" stop-color="#3025FF"/>
</radialGradient>
<radialGradient id="paint12_radial_558_13250" cx="0" cy="0" r="1" gradientUnits="userSpaceOnUse" gradientTransform="translate(366.674 13.0235) rotate(72.6515) scale(83.5921 244.32)">
<stop stop-color="#06060C"/>
<stop offset="0.705" stop-color="#121953" stop-opacity="0.7"/>
<stop offset="0.96" stop-color="#081050" stop-opacity="0.3"/>
</radialGradient>
<radialGradient id="paint13_radial_558_13250" cx="0" cy="0" r="1" gradientUnits="userSpaceOnUse" gradientTransform="translate(377.258 74.2743) rotate(-58.3168) scale(127.507 187.388)">
<stop stop-color="#0B0C14"/>
<stop offset="1" stop-color="#3025FF"/>
</radialGradient>
<radialGradient id="paint14_radial_558_13250" cx="0" cy="0" r="1" gradientUnits="userSpaceOnUse" gradientTransform="translate(337.264 41.8307) rotate(49.3883) scale(50.2922 255.203)">
<stop stop-color="#06060C"/>
<stop offset="0.705" stop-color="#121953" stop-opacity="0.7"/>
<stop offset="0.96" stop-color="#081050" stop-opacity="0.3"/>
</radialGradient>
<radialGradient id="paint15_radial_558_13250" cx="0" cy="0" r="1" gradientUnits="userSpaceOnUse" gradientTransform="translate(351.165 71.1389) rotate(-30.5526) scale(102.136 147.015)">
<stop stop-color="#0B0C14"/>
<stop offset="1" stop-color="#3025FF"/>
</radialGradient>
<radialGradient id="paint16_radial_558_13250" cx="0" cy="0" r="1" gradientUnits="userSpaceOnUse" gradientTransform="translate(6.24119 165.267) rotate(39.947) scale(61.1314 309.011)">
<stop stop-color="#06060C"/>
<stop offset="0.705" stop-color="#121953" stop-opacity="0.7"/>
<stop offset="0.96" stop-color="#081050" stop-opacity="0.3"/>
</radialGradient>
<radialGradient id="paint17_radial_558_13250" cx="0" cy="0" r="1" gradientUnits="userSpaceOnUse" gradientTransform="translate(26.1415 195.398) rotate(-22.9724) scale(136.763 161.593)">
<stop stop-color="#0B0C14"/>
<stop offset="1" stop-color="#3025FF"/>
</radialGradient>
<radialGradient id="paint18_radial_558_13250" cx="0" cy="0" r="1" gradientUnits="userSpaceOnUse" gradientTransform="translate(6.24119 193.965) rotate(26.5545) scale(52.3926 215.15)">
<stop stop-color="#06060C"/>
<stop offset="0.705" stop-color="#121953" stop-opacity="0.7"/>
<stop offset="0.96" stop-color="#081050" stop-opacity="0.3"/>
</radialGradient>
<radialGradient id="paint19_radial_558_13250" cx="0" cy="0" r="1" gradientUnits="userSpaceOnUse" gradientTransform="translate(26.1415 211.946) rotate(-14.1954) scale(129.883 101.534)">
<stop stop-color="#0B0C14"/>
<stop offset="1" stop-color="#3025FF"/>
</radialGradient>
<radialGradient id="paint20_radial_558_13250" cx="0" cy="0" r="1" gradientUnits="userSpaceOnUse" gradientTransform="translate(243.448 364.693) rotate(68.343) scale(92.1728 324.657)">
<stop stop-color="#06060C"/>
<stop offset="0.705" stop-color="#121953" stop-opacity="0.7"/>
<stop offset="0.96" stop-color="#081050" stop-opacity="0.3"/>
</radialGradient>
<radialGradient id="paint21_radial_558_13250" cx="0" cy="0" r="1" gradientUnits="userSpaceOnUse" gradientTransform="translate(257.892 430.455) rotate(-51.8851) scale(148.068 236.439)">
<stop stop-color="#0B0C14"/>
<stop offset="1" stop-color="#3025FF"/>
</radialGradient>
<radialGradient id="paint22_radial_558_13250" cx="0" cy="0" r="1" gradientUnits="userSpaceOnUse" gradientTransform="translate(262.883 364.693) rotate(76.1211) scale(88.2426 211.018)">
<stop stop-color="#06060C"/>
<stop offset="0.705" stop-color="#121953" stop-opacity="0.7"/>
<stop offset="0.96" stop-color="#081050" stop-opacity="0.3"/>
</radialGradient>
<radialGradient id="paint23_radial_558_13250" cx="0" cy="0" r="1" gradientUnits="userSpaceOnUse" gradientTransform="translate(271.871 430.455) rotate(-63.9796) scale(129.636 168.044)">
<stop stop-color="#0B0C14"/>
<stop offset="1" stop-color="#3025FF"/>
</radialGradient>
<clipPath id="clip0_558_13250">
<rect width="459" height="424" fill="white"/>
</clipPath>
</defs>
</svg>
