<?xml version="1.0" encoding="utf-8"?>
<!-- Generator: Adobe Illustrator 22.1.0, SVG Export Plug-In . SVG Version: 6.00 Build 0)  -->
<svg version="1.1" id="Layer_1" xmlns="http://www.w3.org/2000/svg" xmlns:xlink="http://www.w3.org/1999/xlink" x="0px" y="0px"
	 viewBox="0 0 546.7 131" style="enable-background:new 0 0 546.7 131;" xml:space="preserve">
<style type="text/css">
	.st0{fill:#2D2A26;}
	.st1{fill:#EC1D24;}
	.st2{fill:#FFFFFF;}
	.st3{fill:#010101;}
	.st4{fill:#231F20;}
</style>
<g>
	<path class="st0" d="M427.5,59.7l5-19.3c1.7-5.3,6.1-9.4,9.5-11.2c3.6-1.9,5.8-2.6,8.9-2.9c6.5-0.4,6.5,3.8,6,6.4l-7,27l16,0
		l6.9-26.2c0.9-3,1.1-9.6-4-12.9c-2.4-1.6-5.4-2.7-13-2.1c-7.6,0.6-13.3,3.1-19.6,8.4l2-7.7l-15.9,0l-10.7,40.6L427.5,59.7z"/>
	<path class="st0" d="M395.7,19.1l-5,19.4c-1.7,5.3-6.1,9.4-9.5,11.2c-3.6,1.9-5.8,2.6-8.9,2.9c-6.5,0.4-6.5-3.8-6-6.4l7-27l-16,0
		l-6.9,26.2c-0.9,3-1.1,9.6,4,12.9c2.4,1.6,5.4,2.7,13,2.1c7.6-0.6,13.3-3.1,19.6-8.4l-2,7.7l15.9,0l10.7-40.6L395.7,19.1z"/>
	<path class="st0" d="M144.1,19.8c-2.8,0.9-6.5,2.9-9.9,6.5l1.9-7.3l-16,0l-10.7,40.6l15.9,0l5.1-19.2c2-4.4,4.7-8,9.6-10.2
		c5.5-2.4,10.9-2.4,15.5-2.3l2.9-9.9C156.1,17.8,149.1,18,144.1,19.8"/>
	<path class="st0" d="M175.8,30.8c1-1.5,2-2.8,3.5-3.9c4.8-3.2,9.5-3,13.7-2.6c5.2,0.6,7.8,3.5,6.6,6.4L175.8,30.8z M173.6,36.7
		l39.7,0c1.2-5.2,2.4-12.1-5-15.8c-3.6-2.2-12.5-3.5-19.4-3.4c-4.2,0.2-12.7,0.6-21.3,6.8c-2.6,2.1-8.5,7.3-9.6,15.9
		c-0.2,2.6-1.8,13.3,11.7,17.8c4.3,1.4,10.2,2.5,18.3,2.4c5.8,0.2,12.8-0.8,17.9-1.9l1.4-6.7c-5.5,1.4-13.3,2.9-22.9,0.8
		c-9.9-2.9-11-9-11.3-12.5C173.2,38.9,173.4,37.8,173.6,36.7"/>
	<path class="st0" d="M303.6,51.8c-2.6-1.5-3.1-3.3-3.2-6.3c-0.1-8.1,3.5-12.7,5-15.1c3.7-5.2,7.9-6.2,12.9-6.1c0,0,3.8-0.1,7.1,1.7
		c2.6,1.5,3.1,3.3,3.2,6.3c0.1,8.1-3.5,12.7-5,15.1c-3.7,5.2-7.9,6.2-12.9,6.1C310.7,53.4,306.9,53.6,303.6,51.8 M308.7,60.7
		c6.8,0.1,14.2-0.7,20.5-3.6c5-2.5,10-7.1,13-12.5c1.9-3.6,3.7-7.6,2.9-13.4c-1.1-5.9-3.7-8.8-9.9-11.2c-3.6-1.4-7.8-2.4-14.9-2.4
		c-6.8-0.1-14.2,0.7-20.5,3.6c-5,2.5-10,7.1-13,12.5c-1.9,3.6-3.7,7.6-2.9,13.4c1.1,5.9,3.7,8.8,9.9,11.2
		C297.3,59.7,301.6,60.7,308.7,60.7"/>
	<path class="st0" d="M238.2,51.8c-2.6-1.5-3.1-3.3-3.2-6.3c-0.1-8.1,3.5-12.7,5-15.1c3.7-5.2,7.9-6.2,12.9-6.1c0,0,2.6-0.1,5.7,1.7
		c2.4,1.5,3,3.3,3,6.3c0.1,8.1-3.3,12.7-4.8,15.1c-3.5,5.2-6.7,6.2-11.7,6.1C245.2,53.4,241.4,53.6,238.2,51.8 M227.3,58.3
		c3.6,1.4,7.8,2.4,14.9,2.4c6.8,0.1,14.2-0.7,20.5-3.6c5-2.5,10-7.7,13-13.1c1.9-3.6,3.5-8.6,2.8-14.5c-1.1-5.9-4.2-8.4-9.4-10.5
		c-3.6-1.4-9.1-1.7-14.6-0.9c-4.9,0.5-11,3-14.5,6.4L246.5,0l-16,0l-10.6,40c-0.6,2-2.1,9,0.6,13C221.9,54.9,225.4,57.6,227.3,58.3"
		/>
	<path class="st0" d="M503.7,53.9c-5.1,0.1-7.7-0.9-8.5-6.1c-0.2-2.4-1.1-7,3.2-15.1c1.6-3,3.1-4.8,6.4-6.3c4-1.8,6.6-1.7,6.6-1.7
		c5.1-0.1,8.7,0.9,9.7,6.1c0.3,2.4,1.4,7-2.9,15.1c-1.6,3-3.2,4.8-6.5,6.3C507.4,54,503.7,53.9,503.7,53.9 M528.5,53.5
		c4.9-4,7-10.9,7.5-13l10.6-40l-16,0l-6.5,24.5c-1.7-3.4-6.4-5.9-11.1-6.4c-5-0.8-10.7-0.5-15.1,0.9c-6.3,2.1-10.6,4.6-14.9,10.5
		c-3.9,5.9-4.9,10.9-4.9,14.5c0.1,5.4,2.3,10.6,6,13.1c4.8,2.9,11.8,3.8,18.6,3.6c7.1,0,11.9-1,16.2-2.4
		C521.3,58.1,526.2,55.4,528.5,53.5"/>
	<g>
		<path class="st1" d="M38.5,2.6L38.5,2.6c-12,3.8-22.9,11.9-30,22.1C1,35.6-1.6,47.8,1.1,59c2.6,10.8,9.3,19.7,18.7,25.1
			c11,6.3,25.2,7.3,39.9,2.8c25.4-7.7,42.9-34,37.5-56.4c-2.5-10.4-9.3-19.1-19-24.6C66.7-0.5,52.2-1.7,38.5,2.6"/>
		<path class="st2" d="M93.8,31.3C89.7,14.2,73.5,3.4,55,3.4c-5,0-10.2,0.8-15.4,2.4c-2.4,0.8-4.7,1.7-7,2.8l0,0
			c-0.1,0-0.1,0.1-0.2,0.1C15.6,16.9,3.5,33.3,3.5,50.2c0,2.7,0.3,5.4,1,8c3.9,16.3,18,28,37.4,28h0.1c5.2,0,10.8-0.8,16.7-2.6
			c20.1-6.2,36-25.5,36-44.7C94.7,36.4,94.4,33.8,93.8,31.3 M7.2,57.5c-0.6-2.4-0.9-4.9-0.9-7.3c0-12.5,7.5-25.2,18.8-33.7
			c-1.8,3.1-2.9,6.6-2.9,10c-0.1,6.7,4.6,12.8,15,13.8L35,50c-0.1,0.4-0.2,1-0.2,1.6c0,1.6,0.4,3.9,2.2,5.9c1.7,2,4.7,3.4,9.1,3.4
			h0.1c0.3,0,0.5,0,0.8,0h0.5c-2,3.6-5.9,7.4-9.5,10.1c-3.5,2.8-13.3,6-16.9,6.5C14.1,72.9,9.3,65.9,7.2,57.5 M71,74.5L74.6,60
			c0.2-1.1,0.3-2,0.3-2.9c0-3.8-2.1-6.5-4.8-7.8c-2.7-1.4-6-1.8-8.8-1.8h-5.1l2.9-10.6l-2.8-0.8l-3.1,11.4H48v2.9h13.2
			c2.6,0,5.5,0.4,7.5,1.5c2,1.1,3.3,2.5,3.3,5.3c0,0.6-0.1,1.4-0.3,2.2l-4.4,17.4c-3,1.7-6.3,3.2-9.6,4.2c-5.7,1.7-11,2.5-15.9,2.5
			c-6.5,0-12.2-1.4-17.1-3.8c4.8-1.2,11.4-3.6,14.9-6.3c4.1-3.2,8.8-7.6,10.9-12.4h11.4V58L47,58c-0.3,0-0.5,0-0.8,0
			c-7.7-0.1-8.3-4.1-8.5-6.4c0-0.4,0-0.7,0.1-0.9l3.1-13l-1.7-0.1c-10.8-0.7-13.9-5.4-14-11.1c0-5.6,3.8-12.1,8.7-15.3
			c2.1-1,4.3-1.9,6.6-2.6C45.4,7,50.3,6.3,55,6.3C72.5,6.3,87.2,16.4,91,32c0.5,2.3,0.8,4.6,0.8,7C91.9,52.2,83.3,66,71,74.5
			 M71.7,33.3c0-0.4,0.1-0.6,0.1-0.9c0-3.7-3.2-6-7.5-6.3l-0.1,0l-6.9,0.1c1.6-1.7,2.6-4.1,2.6-6.6c0-5.3-4.2-9.6-9.5-9.6
			c-5.3,0-9.5,4.3-9.5,9.6c0,5.3,4.2,9.6,9.5,9.6c0.4,0,0.8-0.1,1.2-0.1v0.1L64.1,29c3.6,0.5,4.8,1.7,4.8,3.5c0,0.1,0,0.3,0,0.5
			l-1.4,7.6h18.9v-2.9H70.9L71.7,33.3z M50.5,26.3c-3.6,0-6.6-3-6.6-6.7c0-3.7,3-6.7,6.6-6.7c3.6,0,6.6,3,6.6,6.7
			C57.1,23.3,54.1,26.3,50.5,26.3"/>
	</g>
	<path class="st3" d="M116.9,81.1c-1.1,5-4.4,8.7-8.6,8.7c-4.3,0-5.9-3.7-4.8-8.7c1.1-5,4.4-8.7,8.6-8.7
		C116.4,72.4,118,76.1,116.9,81.1 M115.3,81.1c1.1-4.8-0.4-7.5-3.5-7.5c-3.1,0-5.7,2.7-6.8,7.5c-1.1,4.8,0.4,7.4,3.5,7.4
		C111.7,88.6,114.3,85.9,115.3,81.1"/>
	<path class="st3" d="M132.4,89.6h-1.7l-2.2-7.8h-4.4l-1.7,7.8h-1.5l3.8-17h5.7c3.3,0,4.8,1.8,4.2,4.6c-0.5,2.2-1.9,3.7-4.5,4.3
		L132.4,89.6z M124.4,80.6h4.2c2.3,0,3.9-1.2,4.4-3.3c0.5-2.1-0.5-3.3-2.9-3.3h-4.2L124.4,80.6z"/>
	<polygon class="st3" points="141,72.7 152.6,72.7 152.3,73.9 147.3,73.9 143.8,89.6 142.2,89.6 145.7,73.9 140.7,73.9 	"/>
	<polygon class="st3" points="158,72.7 159.6,72.7 157.9,80.2 167.1,80.2 168.7,72.7 170.3,72.7 166.5,89.6 165,89.6 166.8,81.5 
		157.6,81.5 155.8,89.6 154.2,89.6 	"/>
	<path class="st3" d="M187.6,81.1c-1.1,5-4.4,8.7-8.6,8.7c-4.3,0-5.9-3.7-4.8-8.7c1.1-5,4.4-8.7,8.6-8.7
		C187.1,72.4,188.7,76.1,187.6,81.1 M186.1,81.1c1.1-4.8-0.4-7.5-3.5-7.5c-3.1,0-5.7,2.7-6.8,7.5c-1.1,4.8,0.4,7.4,3.5,7.4
		C182.4,88.6,185,85.9,186.1,81.1"/>
	<path class="st3" d="M191.6,89.6l3.8-17h5.1c4,0,5.3,1.9,4.7,4.7c-0.6,2.8-2.7,4.7-6.8,4.7h-3.6l-1.7,7.5H191.6z M195.1,80.8h3.6
		c2.9,0,4.5-1.2,5-3.5c0.5-2.2-0.5-3.5-3.4-3.5h-3.6L195.1,80.8z"/>
	<polygon class="st3" points="208.2,89.6 212,72.7 221.7,72.7 221.4,73.9 213.3,73.9 211.9,80.2 217.7,80.2 217.5,81.5 211.6,81.5 
		210.1,88.4 218.7,88.4 218.4,89.6 	"/>
	<path class="st3" d="M227.4,72.7h4.8c5.3,0,6.5,3.9,5.5,8.5c-1,4.5-4,8.5-9.3,8.5h-4.8L227.4,72.7z M225.5,88.4h3.3
		c3.8,0,6.4-2.6,7.4-7.2c1-4.6-0.4-7.2-4.2-7.2h-3.3L225.5,88.4z"/>
	<polygon class="st3" points="245.6,72.7 247.1,72.7 243.3,89.6 241.8,89.6 	"/>
	<path class="st3" d="M262.5,77.6c-0.2-2.5-1.2-3.9-3.3-3.9c-3.4,0-5.6,3.3-6.5,7.5c-0.9,4.2-0.2,7.4,3.3,7.4c2.7,0,4.1-1.9,5.2-4.1
		l1.4,0.3c-1.3,3-3.4,5.1-6.9,5.1c-4.1,0-5.8-3.5-4.6-8.7c1.2-5.2,4.4-8.7,8.5-8.7c3,0,4.2,2.1,4.3,4.9L262.5,77.6z"/>
	<path class="st3" d="M268.1,84.9c0.1,2.6,1.3,3.7,4,3.7c2.1,0,3.7-1.3,4.1-3.4c1-4.6-8.6-2.8-7.3-8.4c0.6-2.5,2.7-4.4,5.9-4.4
		c2.7,0,4.3,1.5,4.5,4.1l-1.4,0.4c-0.2-1.9-1.2-3.2-3.4-3.2c-2,0-3.6,1.1-4,3.1c-0.3,1.2-0.1,2,2.8,3.1c4.4,1.8,5.1,3,4.5,5.4
		c-0.6,2.9-3.4,4.5-6.2,4.5c-3.2,0-4.8-1.4-5-4.5L268.1,84.9z"/>
	<path class="st3" d="M305,81.9c-0.8,1.8-1.9,3.5-3.3,5c0.6,0.8,1.4,1.5,2.6,1.5l-0.3,1.4c-1.5-0.1-2.7-0.8-3.5-1.9
		c-1.6,1.2-3.5,1.9-5.3,1.9c-2.7,0-4.8-1.4-4.1-4.4c0.6-2.5,1.9-3.7,5.1-5.6c-0.5-1.2-0.8-2.6-0.5-4c0.5-2.3,2.1-3.5,4.3-3.5
		c1.9,0,3.1,1.2,2.7,3.2c-0.5,2.3-2.6,3.6-4.6,4.9c0.9,1.9,1.6,3.9,2.7,5.4c1.1-1.3,2.1-2.8,2.7-4.3L305,81.9z M295.5,88.6
		c2,0,3.5-1.1,4.2-1.6c-0.9-1.1-2.4-4.2-3-5.8c-2.1,1-3.5,2.1-4.1,4.4C292.1,87.6,293.7,88.6,295.5,88.6 M297.6,79.2
		c1.7-0.8,3.2-2.3,3.5-3.7c0.2-1.1-0.2-1.9-1.5-1.9c-1.1,0-2,0.7-2.4,2.4C297,77.2,297.2,78.3,297.6,79.2"/>
	<polygon class="st3" points="322.1,72.7 324.7,72.7 329.6,86.8 329.7,86.8 332.8,72.7 334.4,72.7 330.6,89.6 329,89.6 323.4,73.9 
		323.4,73.9 319.9,89.6 318.3,89.6 	"/>
	<polygon class="st3" points="337.6,89.6 341.4,72.7 351.1,72.7 350.8,73.9 342.7,73.9 341.3,80.2 347.1,80.2 346.9,81.5 341,81.5 
		339.5,88.4 348.1,88.4 347.8,89.6 	"/>
	<path class="st3" d="M358.4,72.7l-2.6,11.6c-0.7,3.2,0.6,4.4,3.6,4.4c3,0,4.8-1.1,5.6-4.4l2.6-11.6h1.5l-2.5,11.4
		c-0.9,3.9-3.3,5.8-7.4,5.8c-4.1,0-5.7-1.9-4.8-5.8l2.5-11.4H358.4z"/>
	<path class="st3" d="M383.9,89.6h-1.7l-2.2-7.8h-4.4l-1.7,7.8h-1.5l3.8-17h5.7c3.3,0,4.8,1.8,4.2,4.6c-0.5,2.2-1.9,3.7-4.5,4.3
		L383.9,89.6z M375.9,80.6h4.2c2.3,0,3.9-1.2,4.4-3.3c0.5-2.1-0.5-3.3-2.9-3.3h-4.2L375.9,80.6z"/>
	<path class="st3" d="M404.4,81.1c-1.1,5-4.4,8.7-8.6,8.7c-4.3,0-5.9-3.7-4.8-8.7c1.1-5,4.4-8.7,8.6-8.7
		C403.9,72.4,405.5,76.1,404.4,81.1 M402.9,81.1c1.1-4.8-0.4-7.5-3.5-7.5c-3.1,0-5.7,2.7-6.8,7.5c-1.1,4.8,0.4,7.4,3.5,7.4
		C399.2,88.6,401.8,85.9,402.9,81.1"/>
	<path class="st3" d="M409.3,84.9c0.1,2.6,1.3,3.7,4,3.7c2.1,0,3.7-1.3,4.1-3.4c1-4.6-8.6-2.8-7.3-8.4c0.6-2.5,2.7-4.4,5.9-4.4
		c2.7,0,4.3,1.5,4.5,4.1l-1.4,0.4c-0.2-1.9-1.2-3.2-3.4-3.2c-2,0-3.6,1.1-4,3.1c-0.3,1.2-0.1,2,2.8,3.1c4.4,1.8,5.1,3,4.5,5.4
		c-0.6,2.9-3.4,4.5-6.2,4.5c-3.2,0-4.8-1.4-5-4.5L409.3,84.9z"/>
	<path class="st3" d="M429.1,72.7l-2.6,11.6c-0.7,3.2,0.6,4.4,3.6,4.4c3,0,4.8-1.1,5.6-4.4l2.6-11.6h1.5l-2.5,11.4
		c-0.9,3.9-3.3,5.8-7.4,5.8c-4.1,0-5.7-1.9-4.8-5.8l2.5-11.4H429.1z"/>
	<path class="st3" d="M454.6,89.6H453l-2.2-7.8h-4.4l-1.7,7.8h-1.6l3.8-17h5.7c3.3,0,4.8,1.8,4.2,4.6c-0.5,2.2-1.9,3.7-4.5,4.3
		L454.6,89.6z M446.6,80.6h4.2c2.3,0,3.9-1.2,4.4-3.3c0.5-2.1-0.5-3.3-2.9-3.3h-4.2L446.6,80.6z"/>
	<path class="st3" d="M473.4,77.6c0-2.2-1-3.9-3.5-3.9c-3,0-5.6,2.9-6.6,7.5c-0.8,3.6-0.6,7.4,3.8,7.4c2.4,0,4.4-1.8,4.9-4.1
		l0.3-1.6H468l0.3-1.3h5.8l-1.8,7.9H471l0.4-1.7h0c-1.3,1.3-2.7,1.9-5,1.9c-3.8,0-5.8-3.1-4.6-8.7c1.3-5.6,4.9-8.7,8.5-8.7
		c3.1,0,4.7,2,4.6,4.9L473.4,77.6z"/>
	<polygon class="st3" points="479.1,89.6 482.9,72.7 492.5,72.7 492.3,73.9 484.1,73.9 482.7,80.2 488.6,80.2 488.3,81.5 
		482.5,81.5 480.9,88.4 489.5,88.4 489.2,89.6 	"/>
	<path class="st3" d="M506.1,89.6h-1.7l-2.2-7.8h-4.4l-1.7,7.8h-1.6l3.8-17h5.7c3.3,0,4.8,1.8,4.2,4.6c-0.5,2.2-1.9,3.7-4.5,4.3
		L506.1,89.6z M498,80.6h4.2c2.3,0,3.9-1.2,4.4-3.3c0.5-2.1-0.5-3.3-2.9-3.3h-4.2L498,80.6z"/>
	<polygon class="st3" points="517.4,82.4 514.4,72.7 516.1,72.7 518.4,81 524.8,72.7 526.5,72.7 519,82.4 517.4,89.6 515.8,89.6 	
		"/>
</g>
<g>
	<path class="st4" d="M172.5,113h-3.8l0.5-2.2h10.1l-0.5,2.2H175l-2.9,13.9h-2.6L172.5,113z"/>
	<path class="st4" d="M180.6,110.8h2.4l-1.1,5.2l0.1,0c0.9-1,2.1-1.7,3.3-1.7c1.8,0,2.8,0.8,2.3,3.3l-1.9,9.1h-2.4l1.7-8.3
		c0.3-1.6,0-2.2-1.2-2.2c-1,0-2.1,0.8-2.4,2.4l-1.7,8.1h-2.4L180.6,110.8z"/>
	<path class="st4" d="M191.2,121.1l-0.1,0.7c-0.4,1.6-0.6,3.7,1.2,3.7c1.7,0,2.3-2,2.5-2.7h2.3c-0.6,2.7-2.5,4.3-5.2,4.3
		c-2,0-4.3-0.6-3.1-6.2c0.7-3.2,2.1-6.5,5.9-6.5c3.4,0,3.8,2,3.1,5.4l-0.3,1.3H191.2z M195.5,119.5l0.1-0.6c0.3-1.5,0.1-2.7-1.3-2.7
		c-1.5,0-2.4,1.5-2.7,3.1l0,0.2H195.5z"/>
	<path class="st4" d="M207.3,110.8h5.6c2.2,0,3.8,1.1,3.2,4.1c-0.4,2.1-1.7,3.7-3.5,3.9v0c1.6,0.2,2.2,1,1.8,3.3
		c-0.2,1-0.4,2.3-0.6,3.3c-0.1,0.8,0.2,1.2,0.5,1.4h-2.9c-0.2-0.3-0.2-0.8-0.1-1.4c0.1-1,0.3-1.9,0.5-3c0.3-1.7,0-2.5-1.8-2.5h-2.1
		l-1.5,6.9h-2.6L207.3,110.8z M210.3,118c1.6,0,2.8-1,3.1-2.6c0.4-1.7-0.2-2.6-1.9-2.6h-2.2l-1.1,5.2H210.3z"/>
	<path class="st4" d="M219,121.1l-0.1,0.7c-0.4,1.6-0.6,3.7,1.2,3.7c1.7,0,2.3-2,2.5-2.7h2.3c-0.6,2.7-2.5,4.3-5.2,4.3
		c-2,0-4.3-0.6-3.1-6.2c0.7-3.2,2.1-6.5,5.9-6.5c3.4,0,3.8,2,3.1,5.4l-0.3,1.3H219z M223.3,119.5l0.1-0.6c0.3-1.5,0.1-2.7-1.3-2.7
		c-1.5,0-2.4,1.5-2.7,3.1l0,0.2H223.3z"/>
	<path class="st4" d="M228.3,127.9c-0.2,0.7,0.4,1.4,1.5,1.4c1.3,0,2.2-0.9,2.5-2.3l0.4-2h0c-0.7,1.1-1.9,1.7-3.1,1.7
		c-2.8,0-3-2.8-2.3-6.1c0.6-2.6,1.7-6.2,5.2-6.2c1.4,0,2.2,0.9,2.3,1.8h0l0.3-1.5h2.3l-2.4,11.5c-0.6,2.9-2.3,4.7-5.5,4.7
		c-3.6,0-3.5-2.1-3.3-3.1H228.3z M230.7,124.8c1.9,0,2.6-2.4,3-4.3c0.4-2,0.6-4.1-1.1-4.1c-1.7,0-2.4,1.8-2.9,4
		C229.3,122.5,228.9,124.8,230.7,124.8z"/>
	<path class="st4" d="M239.6,114.8h2.4l-2.6,12.1H237L239.6,114.8z M240.5,110.7h2.4l-0.5,2.4H240L240.5,110.7z"/>
	<path class="st4" d="M248.5,114.5c3.5,0,4,2.6,3.2,6.3c-0.8,3.7-2.5,6.3-5.9,6.3c-3.3,0-3.9-2.6-3.1-6.3
		C243.5,117.1,245,114.5,248.5,114.5z M246.2,125.4c1.8,0,2.4-1.5,3-4.6c0.6-2.7,0.7-4.6-1.1-4.6c-1.7,0-2.5,1.9-3,4.6
		C244.5,123.9,244.5,125.4,246.2,125.4z"/>
	<path class="st4" d="M254.8,114.8h2.3l-0.3,1.4h0.1c0.8-1.1,2.1-1.7,3.5-1.7c1.8,0,2.8,0.8,2.3,3.3l-1.9,9.1h-2.4l1.7-8.3
		c0.3-1.6,0-2.2-1.2-2.2c-1,0-2.1,0.8-2.4,2.4l-1.7,8.1h-2.4L254.8,114.8z"/>
	<path class="st4" d="M266.7,110.8h2.6l-0.6,3c-0.4,1.8-1.2,3.1-3.3,3.5l0.3-1.3c0.7-0.2,1.3-0.8,1.5-1.8l0.1-0.3h-1.1L266.7,110.8z
		"/>
	<path class="st4" d="M274.6,118.3l0.1-0.3c0.2-1,0.1-1.9-1.2-1.9c-1,0-1.8,0.4-2.1,1.6c-0.2,0.9,0.1,1.3,1.3,1.8l1.4,0.5
		c1.7,0.6,2.3,1.6,1.9,3.5c-0.6,2.6-2.7,3.7-5.1,3.7c-3,0-3.7-1.4-3.2-3.7l0.1-0.4h2.2l-0.1,0.4c-0.3,1.4,0,2.2,1.4,2.2
		c1.3,0,2.1-0.7,2.4-1.8c0.2-0.9-0.2-1.5-1-1.8l-1.8-0.7c-1.7-0.6-2.2-1.5-1.8-3.5c0.5-2.3,2.3-3.3,4.8-3.3c3.1,0,3.4,1.8,3.1,3.3
		l-0.1,0.5H274.6z"/>
	<path class="st4" d="M286.1,110.8h4l0.3,11.9h0l5.3-11.9h3.9l-3.4,16h-2.4l2.8-13.3h0l-6.1,13.3h-2.2l-0.4-13.3h0l-2.8,13.3h-2.4
		L286.1,110.8z"/>
	<path class="st4" d="M305.4,114.5c3.5,0,4,2.6,3.2,6.3c-0.8,3.7-2.5,6.3-5.8,6.3c-3.3,0-3.9-2.6-3.1-6.3
		C300.3,117.1,301.9,114.5,305.4,114.5z M303.1,125.4c1.8,0,2.4-1.5,3-4.6c0.6-2.7,0.7-4.6-1.1-4.6c-1.7,0-2.5,1.9-3,4.6
		C301.3,123.9,301.3,125.4,303.1,125.4z"/>
	<path class="st4" d="M316.1,118.3l0.1-0.3c0.2-1,0.1-1.9-1.2-1.9c-1,0-1.8,0.4-2.1,1.6c-0.2,0.9,0.1,1.3,1.3,1.8l1.4,0.5
		c1.7,0.6,2.3,1.6,1.9,3.5c-0.6,2.6-2.7,3.7-5.1,3.7c-3,0-3.7-1.4-3.2-3.7l0.1-0.4h2.2l-0.1,0.4c-0.3,1.4,0,2.2,1.4,2.2
		c1.3,0,2.1-0.7,2.4-1.8c0.2-0.9-0.2-1.5-1-1.8l-1.8-0.7c-1.7-0.6-2.2-1.5-1.8-3.5c0.5-2.3,2.3-3.3,4.8-3.3c3.1,0,3.4,1.8,3.1,3.3
		l-0.1,0.5H316.1z"/>
	<path class="st4" d="M320.1,114.8h1.7l0.7-3.4h2.4l-0.7,3.4h2l-0.4,1.8h-2l-1.5,7.2c-0.2,0.9,0,1.3,0.8,1.3c0.4,0,0.7,0,0.9-0.1
		l-0.4,1.8c-0.6,0.1-1.2,0.2-2,0.2c-1.6,0-2.4-0.4-1.8-2.9l1.6-7.5h-1.7L320.1,114.8z"/>
	<path class="st4" d="M333.8,110.8h5.1c3.1,0,4,1.9,3.4,4.7c-0.6,2.9-2.7,4.7-5.7,4.7h-2.2l-1.4,6.6h-2.6L333.8,110.8z M334.8,118.3
		h1.8c1.4,0,2.7-0.7,3.1-2.8c0.4-1.7-0.1-2.8-2.2-2.8H336L334.8,118.3z"/>
	<path class="st4" d="M344,114.8h2.4l-0.4,1.9h0c0.8-1.3,1.9-2.2,3.3-2.2c0.3,0,0.4,0,0.6,0.1l-0.5,2.5c-0.2,0-0.6-0.1-1-0.1
		c-1.1,0-2.5,0.5-3,2.7l-1.5,7.2h-2.4L344,114.8z"/>
	<path class="st4" d="M351.7,121.1l-0.1,0.7c-0.4,1.6-0.6,3.7,1.2,3.7c1.7,0,2.3-2,2.5-2.7h2.3c-0.6,2.7-2.5,4.3-5.2,4.3
		c-2,0-4.3-0.6-3.1-6.2c0.7-3.2,2.1-6.5,5.8-6.5c3.4,0,3.8,2,3.1,5.4l-0.3,1.3H351.7z M355.9,119.5l0.1-0.6c0.3-1.5,0.1-2.7-1.3-2.7
		c-1.5,0-2.4,1.5-2.7,3.1l0,0.2H355.9z"/>
	<path class="st4" d="M361.7,116.6H360l0.4-1.8h1.7l0.2-1.1c0.5-2.3,1.7-3,3.7-3c0.5,0,1,0,1.3,0.1l-0.4,1.9h-0.7
		c-0.9,0-1.4,0.3-1.5,1.1l-0.2,1.1h2l-0.4,1.8h-2l-2.2,10.3h-2.4L361.7,116.6z"/>
	<path class="st4" d="M368.3,121.1l-0.1,0.7c-0.4,1.6-0.6,3.7,1.2,3.7c1.7,0,2.3-2,2.5-2.7h2.3c-0.6,2.7-2.5,4.3-5.2,4.3
		c-2,0-4.3-0.6-3.1-6.2c0.7-3.2,2.1-6.5,5.8-6.5c3.4,0,3.8,2,3.1,5.4l-0.3,1.3H368.3z M372.6,119.5l0.1-0.6c0.3-1.5,0.1-2.7-1.3-2.7
		c-1.5,0-2.4,1.5-2.7,3.1l0,0.2H372.6z"/>
	<path class="st4" d="M378,114.8h2.4l-0.4,1.9h0c0.8-1.3,1.9-2.2,3.3-2.2c0.3,0,0.4,0,0.6,0.1l-0.5,2.5c-0.2,0-0.6-0.1-1-0.1
		c-1.1,0-2.5,0.5-3,2.7l-1.5,7.2h-2.4L378,114.8z"/>
	<path class="st4" d="M385,114.8h2.4l-0.4,1.9h0c0.8-1.3,1.9-2.2,3.3-2.2c0.3,0,0.4,0,0.6,0.1l-0.5,2.5c-0.2,0-0.6-0.1-1-0.1
		c-1.1,0-2.5,0.5-3,2.7l-1.5,7.2h-2.4L385,114.8z"/>
	<path class="st4" d="M392.7,121.1l-0.1,0.7c-0.4,1.6-0.6,3.7,1.2,3.7c1.7,0,2.3-2,2.5-2.7h2.3c-0.6,2.7-2.5,4.3-5.2,4.3
		c-2,0-4.3-0.6-3.1-6.2c0.7-3.2,2.1-6.5,5.8-6.5c3.4,0,3.8,2,3.1,5.4l-0.3,1.3H392.7z M396.9,119.5l0.1-0.6c0.3-1.5,0.1-2.7-1.3-2.7
		c-1.5,0-2.4,1.5-2.7,3.1l0,0.2H396.9z"/>
	<path class="st4" d="M406.3,125.4L406.3,125.4c-0.5,0.8-1.3,1.8-3.1,1.8c-2.8,0-3.5-2.4-2.6-6.5c1.1-5.4,3.2-6.2,5-6.2
		c1.3,0,2.2,0.6,2.4,1.7h0l1.1-5.4h2.4l-3.4,16h-2.3L406.3,125.4z M406,116.4c-1.4,0-2.1,1.1-2.8,4.4c-0.6,2.7-0.6,4.5,1.1,4.5
		c1.7,0,2.4-1.7,3-4.3C407.8,118.1,407.8,116.4,406,116.4z"/>
	<path class="st4" d="M411.4,123.9h2.6l-0.6,3h-2.6L411.4,123.9z"/>
</g>
</svg>
