<svg width="161" height="40" viewBox="0 0 161 40" fill="none" xmlns="http://www.w3.org/2000/svg">
<g id="Social">
<g id="Twitter Icon">
<rect id="Rectangle" opacity="0.25" x="121.593" y="0.75" width="38.5" height="38.5" rx="18.75" stroke="white" stroke-width="1.5"/>
<path id="Twitter" fill-rule="evenodd" clip-rule="evenodd" d="M140.65 17.3603L140.679 17.8482L140.198 17.7885C138.444 17.5594 136.912 16.7827 135.612 15.4781L134.976 14.8307L134.812 15.3088C134.465 16.3743 134.687 17.4997 135.409 18.2566C135.795 18.6748 135.708 18.7346 135.043 18.4856C134.812 18.4059 134.61 18.3462 134.591 18.3761C134.523 18.4458 134.754 19.352 134.937 19.7105C135.188 20.2085 135.698 20.6965 136.257 20.9853L136.729 21.2143L136.171 21.2243C135.631 21.2243 135.612 21.2342 135.67 21.4434C135.862 22.0907 136.623 22.7778 137.471 23.0766L138.068 23.2857L137.548 23.6044C136.777 24.0625 135.872 24.3215 134.966 24.3414C134.533 24.3513 134.176 24.3912 134.176 24.421C134.176 24.5206 135.352 25.0783 136.036 25.2974C138.088 25.9447 140.525 25.6659 142.356 24.5605C143.656 23.7737 144.957 22.2102 145.564 20.6965C145.891 19.8898 146.219 18.4159 146.219 17.7088C146.219 17.2507 146.248 17.191 146.787 16.6432C147.105 16.3246 147.404 15.976 147.462 15.8764C147.558 15.6872 147.548 15.6872 147.057 15.8565C146.238 16.1553 146.123 16.1154 146.527 15.6673C146.826 15.3486 147.182 14.771 147.182 14.6017C147.182 14.5718 147.038 14.6216 146.874 14.7112C146.701 14.8108 146.315 14.9602 146.026 15.0498L145.506 15.2191L145.034 14.8905C144.774 14.7112 144.408 14.5121 144.215 14.4523C143.724 14.3129 142.972 14.3328 142.529 14.4921C141.325 14.9403 140.564 16.0955 140.65 17.3603Z" fill="white"/>
</g>
<g id="Linkedin Icon">
<rect id="Rectangle_2" opacity="0.25" x="61.5869" y="0.75" width="38.5" height="38.5" rx="18.75" stroke="white" stroke-width="1.5"/>
<g id="Group 14">
<path id="Shape" fill-rule="evenodd" clip-rule="evenodd" d="M77.2473 26.6668H74.1704V17.436H77.2473V26.6668Z" fill="white"/>
<path id="Shape_2" fill-rule="evenodd" clip-rule="evenodd" d="M75.6997 15.3845H75.6822C74.764 15.3845 74.1704 14.7005 74.1704 13.8455C74.1704 12.9725 74.7821 12.3076 75.7177 12.3076C76.6534 12.3076 77.2296 12.9725 77.2473 13.8455C77.2473 14.7005 76.6534 15.3845 75.6997 15.3845Z" fill="white"/>
<path id="Shape_3" fill-rule="evenodd" clip-rule="evenodd" d="M88.5295 26.6666H85.506V21.8415C85.506 20.6296 85.0684 19.8026 83.9738 19.8026C83.1385 19.8026 82.6409 20.3601 82.4224 20.8986C82.3425 21.0916 82.3228 21.3604 82.3228 21.63V26.6668H79.2988C79.2988 26.6668 79.3387 18.4943 79.2988 17.6481H82.3228V18.9255C82.7241 18.3114 83.4429 17.436 85.0482 17.436C87.0379 17.436 88.5296 18.7253 88.5296 21.4955L88.5295 26.6666Z" fill="white"/>
</g>
</g>
<g id="Facebook Icon">
<rect id="Rectangle_3" opacity="0.25" x="1.5791" y="0.75" width="38.5" height="38.5" rx="18.75" stroke="white" stroke-width="1.5"/>
<path id="Shape_4" fill-rule="evenodd" clip-rule="evenodd" d="M18.8298 27.6922V19.9993H17.2393V17.3482H18.8298V15.7565C18.8298 13.5937 19.7278 12.3076 22.2794 12.3076H24.4037V14.959H23.0759C22.0826 14.959 22.0169 15.3295 22.0169 16.021L22.0133 17.3479H24.4187L24.1373 19.999H22.0133V27.6922H18.8298Z" fill="white"/>
</g>
</g>
</svg>
