<svg width="69" height="75" viewBox="0 0 69 75" fill="none" xmlns="http://www.w3.org/2000/svg">
<path d="M68.6667 3C68.6667 1.52724 67.4728 0.333336 66 0.333336C64.5272 0.333336 63.3333 1.52724 63.3333 3C63.3333 4.47276 64.5272 5.66667 66 5.66667C67.4728 5.66667 68.6667 4.47276 68.6667 3ZM5.66666 72C5.66666 70.5272 4.47275 69.3333 2.99999 69.3333C1.52723 69.3333 0.333321 70.5272 0.333321 72C0.33332 73.4728 1.52723 74.6667 2.99999 74.6667C4.47275 74.6667 5.66666 73.4728 5.66666 72ZM65.5 3L65.5 21.0818L66.5 21.0818L66.5 3L65.5 3ZM46 40.5818L23 40.5818L23 41.5818L46 41.5818L46 40.5818ZM2.49999 61.0818L2.49999 72L3.49999 72L3.49999 61.0818L2.49999 61.0818ZM23 40.5818C11.6782 40.5818 2.49999 49.7599 2.49999 61.0818L3.49999 61.0818C3.49999 50.3122 12.2304 41.5818 23 41.5818L23 40.5818ZM65.5 21.0818C65.5 31.8513 56.7695 40.5818 46 40.5818L46 41.5818C57.3218 41.5818 66.5 32.4036 66.5 21.0818L65.5 21.0818Z" fill="#002FFF"/>
</svg>
