<svg width="337" height="543" viewBox="0 0 337 543" fill="none" xmlns="http://www.w3.org/2000/svg">
<path d="M0.333333 3C0.333333 1.52722 1.52724 0.333313 3 0.333313C4.47276 0.333313 5.66667 1.52722 5.66667 3C5.66667 4.47278 4.47276 5.66669 3 5.66669C1.52724 5.66669 0.333333 4.47278 0.333333 3ZM331.333 540C331.333 538.527 332.527 537.333 334 537.333C335.473 537.333 336.667 538.527 336.667 540C336.667 541.473 335.473 542.667 334 542.667C332.527 542.667 331.333 541.473 331.333 540ZM229.724 539.5H334V540.5H229.724V539.5ZM3 2.5H109.724V3.5H3V2.5ZM170.224 63V480H169.224V63H170.224ZM109.724 2.5C143.137 2.5 170.224 29.5868 170.224 63H169.224C169.224 30.139 142.585 3.5 109.724 3.5V2.5ZM229.724 540.5C196.311 540.5 169.224 513.413 169.224 480H170.224C170.224 512.861 196.863 539.5 229.724 539.5V540.5Z" fill="#002FFF"/>
</svg>
