<svg width="188" height="292" viewBox="0 0 188 292" fill="none" xmlns="http://www.w3.org/2000/svg">
<path d="M0.333333 3C0.333333 1.52725 1.52724 0.333344 3 0.333344C4.47276 0.333344 5.66667 1.52725 5.66667 3C5.66667 4.47275 4.47276 5.66666 3 5.66666C1.52724 5.66666 0.333333 4.47275 0.333333 3ZM182.333 289C182.333 287.527 183.527 286.333 185 286.333C186.473 286.333 187.667 287.527 187.667 289C187.667 290.473 186.473 291.667 185 291.667C183.527 291.667 182.333 290.473 182.333 289ZM154 288.5H185V289.5H154V288.5ZM3 2.5H34V3.5H3V2.5ZM94.5 63V229H93.5V63H94.5ZM34 2.5C67.4132 2.5 94.5 29.5868 94.5 63H93.5C93.5 30.1391 66.8609 3.5 34 3.5V2.5ZM154 289.5C120.587 289.5 93.5 262.413 93.5 229H94.5C94.5 261.861 121.139 288.5 154 288.5V289.5Z" fill="#002FFF"/>
</svg>
