<svg width="443" height="149" viewBox="0 0 443 149" fill="none" xmlns="http://www.w3.org/2000/svg">
<path d="M3 0.333317C1.52722 0.333317 0.333313 1.52722 0.333313 2.99998C0.333313 4.47274 1.52722 5.66665 3 5.66665C4.47275 5.66665 5.66666 4.47274 5.66666 2.99998C5.66666 1.52722 4.47275 0.333317 3 0.333317ZM440 143.333C438.527 143.333 437.333 144.527 437.333 146C437.333 147.473 438.527 148.667 440 148.667C441.473 148.667 442.667 147.473 442.667 146C442.667 144.527 441.473 143.333 440 143.333ZM211.989 86L212.489 86L211.989 86ZM3 3.49998L151.989 3.49999L151.989 2.49999L3 2.49998L3 3.49998ZM211.489 63L211.489 86L212.489 86L212.489 63L211.489 63ZM271.989 146.5L440 146.5L440 145.5L271.989 145.5L271.989 146.5ZM211.489 86C211.489 119.413 238.576 146.5 271.989 146.5L271.989 145.5C239.128 145.5 212.489 118.861 212.489 86L211.489 86ZM151.989 3.49999C184.85 3.49999 211.489 30.139 211.489 63L212.489 63C212.489 29.5868 185.402 2.49999 151.989 2.49999L151.989 3.49999Z" fill="#002FFF"/>
</svg>
