<svg width="797" height="272" viewBox="0 0 797 272" fill="none" xmlns="http://www.w3.org/2000/svg">
<path d="M3 0.3333C1.52722 0.3333 0.333313 1.52721 0.333313 2.99997C0.333313 4.47273 1.52722 5.66663 3 5.66663C4.47278 5.66663 5.66669 4.47273 5.66669 2.99997C5.66669 1.52721 4.47278 0.3333 3 0.3333ZM794 266.333C792.527 266.333 791.333 267.527 791.333 269C791.333 270.473 792.527 271.667 794 271.667C795.473 271.667 796.667 270.473 796.667 269C796.667 267.527 795.473 266.333 794 266.333ZM3 3.49997L258 3.49998L258 2.49998L3 2.49997L3 3.49997ZM317.5 63L317.5 209L318.5 209L318.5 63L317.5 63ZM378 269.5L794 269.5L794 268.5L378 268.5L378 269.5ZM317.5 209C317.5 242.413 344.587 269.5 378 269.5L378 268.5C345.139 268.5 318.5 241.861 318.5 209L317.5 209ZM258 3.49998C290.861 3.49998 317.5 30.139 317.5 63L318.5 63C318.5 29.5868 291.413 2.49998 258 2.49998L258 3.49998Z" fill="#002FFF"/>
</svg>
