<svg width="192" height="258" viewBox="0 0 192 258" fill="none" xmlns="http://www.w3.org/2000/svg">
<path d="M191.667 3C191.667 1.52724 190.473 0.333328 189 0.333328C187.527 0.333328 186.333 1.52724 186.333 3C186.333 4.47276 187.527 5.66666 189 5.66666C190.473 5.66666 191.667 4.47276 191.667 3ZM5.66667 255C5.66667 253.527 4.47276 252.333 3 252.333C1.52725 252.333 0.333344 253.527 0.333344 255C0.333344 256.473 1.52725 257.667 3 257.667C4.47276 257.667 5.66667 256.473 5.66667 255ZM36 254.5H3V255.5H36V254.5ZM189 2.5H156V3.5H189V2.5ZM95.5 63V195H96.5V63H95.5ZM156 2.5C122.587 2.5 95.5 29.5868 95.5 63H96.5C96.5 30.1391 123.139 3.5 156 3.5V2.5ZM36 255.5C69.4132 255.5 96.5 228.413 96.5 195H95.5C95.5 227.861 68.8609 254.5 36 254.5V255.5Z" fill="#002FFF"/>
</svg>
