<svg width="124" height="206" viewBox="0 0 124 206" fill="none" xmlns="http://www.w3.org/2000/svg">
<path d="M3.00003 0.333328C1.52727 0.333328 0.333359 1.52724 0.333359 2.99999C0.333359 4.47275 1.52727 5.66666 3.00003 5.66666C4.47279 5.66666 5.66669 4.47275 5.66669 2.99999C5.66669 1.52724 4.47279 0.333328 3.00003 0.333328ZM121 200.333C119.527 200.333 118.333 201.527 118.333 203C118.333 204.473 119.527 205.667 121 205.667C122.473 205.667 123.667 204.473 123.667 203C123.667 201.527 122.473 200.333 121 200.333ZM63 203L63 202.5L63 203ZM3.00001 143L2.50001 143L3.00001 143ZM63 203.5L121 203.5L121 202.5L63 202.5L63 203.5ZM2.50003 2.99999L2.50001 143L3.50001 143L3.50003 2.99999L2.50003 2.99999ZM63 202.5C30.1391 202.5 3.50001 175.861 3.50001 143L2.50001 143C2.50001 176.413 29.5868 203.5 63 203.5L63 202.5Z" fill="#002FFF"/>
</svg>
