<svg width="144" height="75" viewBox="0 0 144 75" fill="none" xmlns="http://www.w3.org/2000/svg">
<path d="M5.66668 3C5.66668 1.52724 4.47277 0.333332 3.00001 0.333331C1.52724 0.333331 0.333334 1.52724 0.333334 3C0.333334 4.47276 1.52724 5.66667 3.00001 5.66667C4.47277 5.66667 5.66668 4.47276 5.66668 3ZM143.667 72C143.667 70.5272 142.473 69.3333 141 69.3333C139.527 69.3333 138.333 70.5272 138.333 72C138.333 73.4728 139.527 74.6667 141 74.6667C142.473 74.6667 143.667 73.4728 143.667 72ZM121 41.0818L121 41.5818L121 41.0818ZM23 41.0818L23 40.5818L23 41.0818ZM2.50001 3L2.49999 21.0818L3.49999 21.0818L3.50001 3L2.50001 3ZM23 41.5818L121 41.5818L121 40.5818L23 40.5818L23 41.5818ZM140.5 61.0818L140.5 72L141.5 72L141.5 61.0818L140.5 61.0818ZM121 41.5818C131.77 41.5818 140.5 50.3122 140.5 61.0818L141.5 61.0818C141.5 49.7599 132.322 40.5818 121 40.5818L121 41.5818ZM2.49999 21.0818C2.49999 32.4036 11.6781 41.5818 23 41.5818L23 40.5818C12.2304 40.5818 3.49999 31.8513 3.49999 21.0818L2.49999 21.0818Z" fill="#002FFF"/>
</svg>
