<svg width="201" height="40" viewBox="0 0 201 40" fill="none" xmlns="http://www.w3.org/2000/svg">
<g id="White_Logotype_Horizontal_with_BG" clip-path="url(#clip0_411_5530)">
<path id="Vector" d="M90.6375 27.475C86.6416 27.475 85.5615 26.0783 85.5615 23.8481V22.5549C85.5615 20.2464 86.5343 18.9305 90.3822 18.9305H100.662V18.6248C100.662 16.8745 99.9954 16.4199 98.3051 16.4199H94.516V13.73H98.3205C102.756 13.73 104.497 15.3035 104.497 18.8016V22.1457C104.497 26.1288 103.087 27.47 98.1673 27.47L90.6375 27.475ZM100.662 21.2642H90.7984C89.8996 21.2642 89.3634 21.5673 89.3634 22.6584V23.598C89.3634 24.5603 89.9532 24.8887 90.926 24.8887H98.106C99.8933 24.8887 100.659 24.4845 100.659 22.4311L100.662 21.2642Z" fill="white"/>
<path id="Vector_2" d="M113.975 27.475C108.823 27.475 107.311 25.9015 107.311 21.5395V9.28467H111.141V13.7224H118.857C124.035 13.7224 125.547 15.2959 125.547 19.6806V21.5319C125.547 25.8939 124.035 27.4649 118.857 27.4649L113.975 27.475ZM121.717 19.817C121.717 17.4327 121.127 16.9755 118.719 16.9755H111.131V21.4562C111.131 23.7116 111.693 24.2698 114.103 24.2698H118.699C121.109 24.2698 121.699 23.7116 121.699 21.4309L121.717 19.817Z" fill="white"/>
<path id="Vector_3" d="M132.127 22.0016V22.6103C132.127 24.2823 132.637 24.5854 134.425 24.5854H138.936V27.4723H134.442C130.033 27.4723 128.314 25.9013 128.314 22.2516V19.0718C128.314 15.0659 129.724 13.7197 134.621 13.7197H141.336C145.309 13.7197 146.412 15.2958 146.412 17.473V22.0016H132.127ZM142.575 17.7937C142.575 16.8819 142.164 16.6521 141.01 16.6521H134.665C132.742 16.6521 132.127 16.8567 132.127 18.8318V19.5668H142.575V17.7937Z" fill="white"/>
<path id="Vector_4" d="M155.715 27.4724C150.56 27.4724 149.048 25.9014 149.048 21.5395V19.6906C149.048 15.3034 150.56 13.7324 155.715 13.7324H160.354C165.533 13.7324 167.044 15.3034 167.044 19.7134V21.5369C167.044 25.8989 165.533 27.4699 160.354 27.4699L155.715 27.4724ZM163.224 19.8169C163.224 17.4831 162.612 16.9755 159.844 16.9755H156.228C153.506 16.9755 152.868 17.4806 152.868 19.8169V21.441C152.868 23.7141 153.506 24.2799 156.228 24.2799H159.841C162.606 24.2799 163.222 23.7192 163.222 21.441L163.224 19.8169Z" fill="white"/>
<path id="Vector_5" d="M170.608 27.4747C169.661 27.4747 169.301 27.1464 169.301 26.3331V24.2544C169.301 23.4664 169.661 23.1128 170.608 23.1128H171.867C172.84 23.1128 173.197 23.4664 173.197 24.2544V26.3331C173.197 27.1464 172.84 27.4747 171.867 27.4747H170.608Z" fill="white"/>
<path id="Vector_6" d="M180.326 27.475C176.332 27.475 175.25 26.0783 175.25 23.8481V22.5549C175.25 20.2464 176.225 18.9305 180.068 18.9305H190.36V18.6248C190.36 16.8745 189.696 16.4199 188.003 16.4199H184.196V13.73H187.991C192.426 13.73 194.172 15.3035 194.172 18.8016V22.1457C194.172 26.1288 192.76 27.47 187.837 27.47L180.326 27.475ZM190.36 21.2642H180.481C179.582 21.2642 179.041 21.5673 179.041 22.6584V23.598C179.041 24.5603 179.631 24.8887 180.606 24.8887H187.786C189.574 24.8887 190.34 24.4845 190.34 22.4311L190.36 21.2642Z" fill="white"/>
<path id="Vector_7" d="M198.375 12.9294C197.425 12.9294 197.065 12.5732 197.065 11.7625V10.29C197.065 9.47922 197.425 9.15088 198.375 9.15088H199.628C200.604 9.15088 200.961 9.47922 200.961 10.29V11.7625C200.961 12.5732 200.604 12.9294 199.628 12.9294H198.375ZM197.065 14.0685H200.966V27.4675H197.065V14.0685Z" fill="white"/>
<path id="Vector_8" d="M83.5711 17.2231V21.5346C83.5711 25.8965 82.0595 27.4675 76.8533 27.4675H69.9593C64.8042 27.4675 63.29 25.8965 63.29 21.5346V16.1068C63.29 11.7448 64.8016 10.1738 69.9568 10.1738H74.517V13.4926H70.138C67.8018 13.4926 67.1583 14.1771 67.1583 16.2709V21.383C67.1583 23.6562 67.8554 24.1613 70.138 24.1613H76.7384C78.9189 24.1613 79.6875 23.6814 79.6875 21.2239V17.2231H83.5711Z" fill="white"/>
<path id="Vector_9" opacity="0.2" d="M4.20502 29.7431C5.6885 35.4311 7.02899 36.502 9.09718 38.217C6.41875 36.7748 3.53861 33.605 2.6475 29.0864L0.137585 13.9396C-0.304139 9.166 0.0686473 6.09723 3.76585 4.01855C2.54792 6.09723 1.8815 9.26197 2.23386 13.1364C2.24918 13.1465 2.71899 24.0552 4.20502 29.7431Z" fill="white"/>
<path id="Vector_10" opacity="0.5" d="M13.8104 39.7297C7.29948 37.8859 4.9249 28.6443 4.78191 24.3758L4.01592 12.1487C3.77846 4.83924 5.80324 1.38151 12.521 0.265137C8.51741 2.06346 7.24586 5.59696 7.44247 11.6309L7.99398 28.6922C8.19825 34.7439 9.69705 38.1865 13.8104 39.7297Z" fill="white"/>
<path id="Vector_11" d="M50.0713 19.5165V28.1368C50.0713 36.8607 47.0456 40.0077 36.6358 40.0077H22.8479C12.5427 40.0077 9.51953 36.8657 9.51953 28.1368V11.8661C9.51953 3.14218 12.5452 -0.00488281 22.8479 -0.00488281H31.976V6.64031H22.1585C17.491 6.64031 16.2067 8.00926 16.2067 12.2197V27.8312C16.2067 32.4002 17.5931 33.4105 22.1585 33.4105H37.3635C41.722 33.4105 43.2591 32.4508 43.2591 27.5281V19.5165H50.0713Z" fill="white"/>
<path id="Vector_12" d="M36.3398 20.1376C36.2073 20.546 36.0137 20.9326 35.7653 21.2843C35.6465 21.4435 35.5168 21.5945 35.3772 21.7364C33.6308 23.5515 31.8792 25.3684 30.1225 27.1869C30.0984 27.2142 30.0676 27.2351 30.0331 27.2475C30.0003 27.2623 29.9646 27.2701 29.9285 27.2702C29.8915 27.27 29.855 27.2622 29.8212 27.2475C29.7874 27.2351 29.7575 27.2142 29.7344 27.1869L24.4133 21.9435C23.9914 21.5476 23.6454 21.0796 23.392 20.5619C23.3358 20.4381 23.2822 20.3093 23.2388 20.1881H24.8703L26.3334 18.3569L28.4016 21.6404L29.1037 20.183H30.2681L31.6392 18.367L33.618 21.6505L34.241 20.1578L36.3398 20.1376Z" fill="#37A2ED"/>
<path id="Vector_13" d="M36.5643 18.4378V19.0212C36.5337 19.2157 36.5081 19.4127 36.4749 19.6047C36.4416 19.785 36.3964 19.963 36.3396 20.1376H34.2485L33.6254 21.653L31.6466 18.3696L30.2678 20.1831H29.0984L28.3962 21.6404L26.3281 18.357L24.865 20.1881H23.2334C22.9999 19.5508 22.9127 18.8701 22.9781 18.1953C23.044 17.3595 23.3635 16.5627 23.8947 15.9095C24.1758 15.5429 24.5333 15.2403 24.9431 15.0224C25.3528 14.8045 25.8051 14.6764 26.2693 14.6467C27.0092 14.6211 27.7339 14.8586 28.312 15.316C28.8123 15.6838 29.2605 16.1161 29.6448 16.6016L29.7495 16.7304L29.8593 16.5864C30.3249 15.9554 30.9136 15.423 31.5904 15.0205C32.645 14.4345 33.6944 14.5153 34.7004 15.1543C35.7064 15.7933 36.2962 16.8264 36.4877 18.0412L36.5643 18.4378Z" fill="#82C4F4"/>
<path id="Vector_14" d="M33.625 22.1098C33.5422 22.1098 33.4609 22.0887 33.3889 22.0484C33.3169 22.0081 33.2566 21.9501 33.2139 21.88L31.6027 19.2128L30.658 20.4757C30.6134 20.5345 30.5555 20.5821 30.4891 20.615C30.4226 20.6479 30.3493 20.665 30.275 20.6651H29.4069L28.8349 21.8522C28.7979 21.9283 28.7409 21.9932 28.6698 22.0401C28.5988 22.087 28.5163 22.1142 28.431 22.1188C28.3458 22.1234 28.2608 22.1054 28.185 22.0665C28.1092 22.0276 28.0453 21.9693 28 21.8977L26.2893 19.1952L25.2475 20.501C25.203 20.5573 25.146 20.6027 25.0809 20.6338C25.0159 20.6649 24.9445 20.6808 24.8722 20.6803H22.5283C22.4016 20.6803 22.2802 20.6305 22.1906 20.5419C22.1011 20.4534 22.0508 20.3332 22.0508 20.208C22.0508 20.0827 22.1011 19.9626 22.1906 19.874C22.2802 19.7854 22.4016 19.7357 22.5283 19.7357H24.6501L25.9676 18.0838C26.0149 18.0245 26.0759 17.9772 26.1455 17.946C26.2151 17.9149 26.2912 17.9006 26.3675 17.9046C26.4438 17.9086 26.518 17.9306 26.584 17.9688C26.6499 18.007 26.7056 18.0603 26.7463 18.1243L28.3549 20.6677L28.6817 19.9882C28.7208 19.9079 28.782 19.8401 28.8584 19.7927C28.9348 19.7453 29.0231 19.7203 29.1133 19.7205H30.0427L31.2708 18.0939C31.3176 18.0318 31.3791 17.9821 31.4499 17.949C31.5207 17.916 31.5986 17.9006 31.6768 17.9044C31.755 17.9081 31.831 17.9308 31.8983 17.9705C31.9655 18.0101 32.0218 18.0656 32.0623 18.1318L33.5535 20.5969L33.8088 19.968C33.8448 19.8814 33.906 19.8072 33.9846 19.7551C34.0633 19.7029 34.1558 19.675 34.2505 19.675H36.5638C36.6905 19.675 36.8119 19.7248 36.9015 19.8134C36.991 19.902 37.0413 20.0221 37.0413 20.1474C37.0413 20.2726 36.991 20.3928 36.9015 20.4813C36.8119 20.5699 36.6905 20.6197 36.5638 20.6197H34.5697L34.059 21.827C34.0251 21.908 33.9693 21.9782 33.8976 22.0299C33.826 22.0816 33.7414 22.1127 33.6531 22.12L33.625 22.1098Z" fill="white"/>
</g>
<defs>
<clipPath id="clip0_411_5530">
<rect width="200.964" height="40" fill="white"/>
</clipPath>
</defs>
</svg>
