<svg width="172" height="33" viewBox="0 0 172 33" fill="none" xmlns="http://www.w3.org/2000/svg">
<path d="M5.56078 32V21.02H4.58078L0.540781 -4.76837e-07H4.14078L5.58078 8.86L6.74078 18.06H7.94078L9.06078 8.86L10.5008 -4.76837e-07H14.1408L10.0608 21.02H9.10078V32H5.56078ZM14.6489 32L18.2289 -4.76837e-07H25.2289L28.7689 32H25.1689L24.3689 23.24H19.0689L18.2689 32H14.6489ZM19.3889 20.08H24.0689L23.4289 13.28L22.5889 3.16H20.8489L20.0089 13.28L19.3889 20.08ZM32.1808 32V-4.76837e-07H38.4608C40.5808 -4.76837e-07 42.1208 0.426666 43.0808 1.28C44.0408 2.13333 44.5474 3.54 44.6008 5.5C44.6541 6.7 44.6874 7.78667 44.7008 8.76C44.7141 9.73333 44.7141 10.6733 44.7008 11.58C44.6874 12.4867 44.6541 13.44 44.6008 14.44C44.5474 15.7467 44.3074 16.8 43.8808 17.6C43.4541 18.4 42.7874 18.9867 41.8808 19.36L45.2008 32H41.4808L38.5208 19.94H35.7008V32H32.1808ZM35.7008 16.78H38.4408C39.3741 16.78 40.0408 16.6133 40.4408 16.28C40.8408 15.9333 41.0541 15.3667 41.0808 14.58C41.1208 13.4467 41.1474 12.3933 41.1608 11.42C41.1874 10.4467 41.1941 9.48 41.1808 8.52C41.1808 7.54667 41.1474 6.49333 41.0808 5.36C41.0408 4.56 40.8208 3.99333 40.4208 3.66C40.0341 3.32667 39.3808 3.16 38.4608 3.16H35.7008V16.78ZM59.1111 32L55.4311 -4.76837e-07H59.0711L61.0511 17.6L61.7711 28.82H63.4111L64.1311 17.6L66.1111 -4.76837e-07H69.7911L66.0711 32H59.1111ZM77.7073 32.3C75.494 32.3 73.9073 31.8733 72.9473 31.02C71.9873 30.1533 71.4607 28.76 71.3673 26.84C71.3273 25.92 71.3007 24.88 71.2873 23.72C71.274 22.5467 71.2673 21.34 71.2673 20.1C71.2673 18.8467 71.274 17.6267 71.2873 16.44C71.3007 15.24 71.3273 14.16 71.3673 13.2C71.474 11.2133 72.0207 9.8 73.0073 8.96C73.994 8.10667 75.5473 7.68 77.6673 7.68C79.814 7.68 81.354 8.11333 82.2873 8.98C83.2207 9.83333 83.734 11.1933 83.8273 13.06C83.8407 13.3667 83.8473 13.9467 83.8473 14.8C83.8607 15.64 83.8607 16.5933 83.8473 17.66C83.8473 18.7133 83.8273 19.7133 83.7873 20.66H74.8473C74.8473 21.7267 74.854 22.8067 74.8673 23.9C74.894 24.98 74.914 26.0867 74.9273 27.22C74.954 28.0867 75.1807 28.6933 75.6073 29.04C76.034 29.3867 76.714 29.56 77.6473 29.56C78.5807 29.56 79.2407 29.3867 79.6273 29.04C80.0273 28.6933 80.2473 28.08 80.2873 27.2C80.314 26.8 80.3273 26.2667 80.3273 25.6C80.3273 24.9333 80.3073 24.2267 80.2673 23.48H83.7873C83.814 23.8933 83.834 24.4533 83.8473 25.16C83.8607 25.8533 83.854 26.4133 83.8273 26.84C83.734 28.7867 83.2207 30.1867 82.2873 31.04C81.3673 31.88 79.8407 32.3 77.7073 32.3ZM74.8473 18.02H80.3273C80.3407 17.3 80.3473 16.58 80.3473 15.86C80.3607 15.14 80.3607 14.5 80.3473 13.94C80.334 13.3667 80.314 12.9667 80.2873 12.74C80.234 11.8733 80.0007 11.2667 79.5873 10.92C79.174 10.5733 78.534 10.4 77.6673 10.4C76.6673 10.4 75.9673 10.5933 75.5673 10.98C75.1673 11.3667 74.954 11.9533 74.9273 12.74C74.914 13.6067 74.894 14.48 74.8673 15.36C74.854 16.24 74.8473 17.1267 74.8473 18.02ZM87.6058 32V8H91.1658V10.26H91.9258C92.3924 9.40667 92.9391 8.76667 93.5658 8.34C94.2058 7.9 95.0391 7.68 96.0658 7.68C97.5858 7.68 98.7191 8.1 99.4658 8.94C100.212 9.76667 100.592 11.1067 100.606 12.96V32H97.0858L97.0658 12.68C97.0524 11.8533 96.8591 11.26 96.4858 10.9C96.1124 10.54 95.5258 10.36 94.7258 10.36C93.9791 10.36 93.2658 10.56 92.5858 10.96C91.9058 11.3467 91.4324 11.9 91.1658 12.62V32H87.6058ZM111.492 32.3C109.199 32.3 107.586 31.8867 106.652 31.06C105.732 30.22 105.266 28.7933 105.252 26.78L105.232 10.74H103.292V8H105.332V1.2H108.912V8H113.112V10.74H108.792L108.832 27.2C108.832 28.1333 109.012 28.7667 109.372 29.1C109.746 29.4333 110.466 29.6 111.532 29.6C111.932 29.6 112.279 29.5933 112.572 29.58C112.866 29.5533 113.206 29.5267 113.592 29.5V32.1C113.272 32.1533 112.939 32.2 112.592 32.24C112.246 32.28 111.879 32.3 111.492 32.3ZM120.601 32.3C119.095 32.3 117.941 31.8867 117.141 31.06C116.355 30.2333 115.961 28.88 115.961 27V8H119.521L119.561 27.3C119.561 28.1133 119.735 28.7067 120.081 29.08C120.441 29.44 121.015 29.62 121.801 29.62C122.575 29.62 123.288 29.4267 123.941 29.04C124.595 28.64 125.061 28.08 125.341 27.36V8H128.921V32H125.341V29.72H124.741C124.248 30.6267 123.655 31.2867 122.961 31.7C122.281 32.1 121.495 32.3 120.601 32.3ZM133.27 32V8H136.89V10.46H137.61C137.85 9.51333 138.263 8.85333 138.85 8.48C139.437 8.09333 140.223 7.9 141.21 7.9C141.463 7.9 141.723 7.91333 141.99 7.94C142.257 7.95333 142.51 7.96667 142.75 7.98V10.74H141.25C140.01 10.74 139.037 10.9333 138.33 11.32C137.623 11.7067 137.143 12.3867 136.89 13.36V32H133.27ZM150.559 32.3C148.346 32.3 146.759 31.8733 145.799 31.02C144.839 30.1533 144.312 28.76 144.219 26.84C144.179 25.92 144.152 24.88 144.139 23.72C144.126 22.5467 144.119 21.34 144.119 20.1C144.119 18.8467 144.126 17.6267 144.139 16.44C144.152 15.24 144.179 14.16 144.219 13.2C144.326 11.2133 144.872 9.8 145.859 8.96C146.846 8.10667 148.399 7.68 150.519 7.68C152.666 7.68 154.206 8.11333 155.139 8.98C156.072 9.83333 156.586 11.1933 156.679 13.06C156.692 13.3667 156.699 13.9467 156.699 14.8C156.712 15.64 156.712 16.5933 156.699 17.66C156.699 18.7133 156.679 19.7133 156.639 20.66H147.699C147.699 21.7267 147.706 22.8067 147.719 23.9C147.746 24.98 147.766 26.0867 147.779 27.22C147.806 28.0867 148.032 28.6933 148.459 29.04C148.886 29.3867 149.566 29.56 150.499 29.56C151.432 29.56 152.092 29.3867 152.479 29.04C152.879 28.6933 153.099 28.08 153.139 27.2C153.166 26.8 153.179 26.2667 153.179 25.6C153.179 24.9333 153.159 24.2267 153.119 23.48H156.639C156.666 23.8933 156.686 24.4533 156.699 25.16C156.712 25.8533 156.706 26.4133 156.679 26.84C156.586 28.7867 156.072 30.1867 155.139 31.04C154.219 31.88 152.692 32.3 150.559 32.3ZM147.699 18.02H153.179C153.192 17.3 153.199 16.58 153.199 15.86C153.212 15.14 153.212 14.5 153.199 13.94C153.186 13.3667 153.166 12.9667 153.139 12.74C153.086 11.8733 152.852 11.2667 152.439 10.92C152.026 10.5733 151.386 10.4 150.519 10.4C149.519 10.4 148.819 10.5933 148.419 10.98C148.019 11.3667 147.806 11.9533 147.779 12.74C147.766 13.6067 147.746 14.48 147.719 15.36C147.706 16.24 147.699 17.1267 147.699 18.02ZM165.657 32.3C163.551 32.3 162.071 31.88 161.217 31.04C160.364 30.1867 159.897 28.7933 159.817 26.86C159.804 26.26 159.797 25.7 159.797 25.18C159.811 24.6467 159.831 24.1133 159.857 23.58H163.057C163.017 24.3933 162.997 25.0933 162.997 25.68C163.011 26.2667 163.024 26.78 163.037 27.22C163.051 28.1 163.257 28.7133 163.657 29.06C164.071 29.4067 164.737 29.58 165.657 29.58C166.657 29.58 167.377 29.4067 167.817 29.06C168.257 28.7 168.484 28.08 168.497 27.2C168.511 26.8133 168.517 26.5 168.517 26.26C168.517 26.0067 168.517 25.7667 168.517 25.54C168.517 25.3 168.511 25.0133 168.497 24.68C168.484 23.8133 168.357 23.1667 168.117 22.74C167.877 22.3133 167.391 21.9867 166.657 21.76L164.357 21.12C163.277 20.8 162.404 20.4067 161.737 19.94C161.071 19.4733 160.584 18.8667 160.277 18.12C159.971 17.3733 159.797 16.4133 159.757 15.24C159.757 14.8 159.757 14.4333 159.757 14.14C159.757 13.8333 159.757 13.5133 159.757 13.18C159.797 11.2333 160.264 9.83333 161.157 8.98C162.064 8.11333 163.624 7.68 165.837 7.68C167.917 7.68 169.397 8.1 170.277 8.94C171.157 9.76667 171.631 11.16 171.697 13.12C171.711 13.4 171.711 13.9 171.697 14.62C171.697 15.3267 171.677 15.9 171.637 16.34H168.357C168.371 15.94 168.377 15.5133 168.377 15.06C168.391 14.5933 168.391 14.1533 168.377 13.74C168.377 13.3267 168.371 12.98 168.357 12.7C168.344 11.8467 168.157 11.2533 167.797 10.92C167.437 10.5867 166.784 10.42 165.837 10.42C164.904 10.42 164.251 10.5867 163.877 10.92C163.504 11.2533 163.304 11.8533 163.277 12.72C163.264 12.9467 163.251 13.2467 163.237 13.62C163.224 13.98 163.224 14.4067 163.237 14.9C163.264 15.7933 163.384 16.5133 163.597 17.06C163.811 17.5933 164.324 17.9733 165.137 18.2L167.297 18.76C168.844 19.1467 169.991 19.78 170.737 20.66C171.484 21.5267 171.857 22.8267 171.857 24.56C171.857 25 171.857 25.3933 171.857 25.74C171.857 26.0867 171.844 26.4867 171.817 26.94C171.777 28.8467 171.297 30.22 170.377 31.06C169.471 31.8867 167.897 32.3 165.657 32.3Z" fill="#EBEDF0"/>
</svg>
